<ttFont>
    <TTGlyph name="A" xMin="25" yMin="0" xMax="499" yMax="742">
      <contour>
        <pt x="25" y="63" on="1"/>
        <pt x="25" y="123" on="0"/>
        <pt x="41" y="241" on="0"/>
        <pt x="47" y="300" on="1"/>
        <pt x="47" y="303" on="0"/>
        <pt x="49" y="324" on="0"/>
        <pt x="52" y="348" on="0"/>
        <pt x="55" y="369" on="0"/>
        <pt x="55" y="372" on="1"/>
        <pt x="55" y="376" on="1"/>
        <pt x="97" y="688" on="1"/>
        <pt x="95" y="708" on="0"/>
        <pt x="112" y="739" on="0"/>
        <pt x="135" y="739" on="1"/>
        <pt x="160" y="742" on="0"/>
        <pt x="193" y="723" on="0"/>
        <pt x="215" y="693" on="0"/>
        <pt x="229" y="657" on="0"/>
        <pt x="237" y="642" on="1"/>
        <pt x="242" y="628" on="0"/>
        <pt x="257" y="590" on="0"/>
        <pt x="278" y="532" on="0"/>
        <pt x="307" y="448" on="0"/>
        <pt x="326" y="388" on="1"/>
        <pt x="330" y="384" on="1"/>
        <pt x="337" y="388" on="0"/>
        <pt x="376" y="406" on="0"/>
        <pt x="419" y="426" on="0"/>
        <pt x="457" y="444" on="0"/>
        <pt x="465" y="447" on="1"/>
        <pt x="466" y="449" on="0"/>
        <pt x="475" y="452" on="0"/>
        <pt x="477" y="453" on="1"/>
        <pt x="479" y="453" on="1"/>
        <pt x="489" y="453" on="0"/>
        <pt x="499" y="438" on="0"/>
        <pt x="499" y="431" on="1"/>
        <pt x="499" y="420" on="0"/>
        <pt x="489" y="404" on="0"/>
        <pt x="476" y="391" on="0"/>
        <pt x="461" y="379" on="0"/>
        <pt x="457" y="372" on="1"/>
        <pt x="358" y="322" on="1"/>
        <pt x="354" y="317" on="0"/>
        <pt x="354" y="314" on="1"/>
        <pt x="354" y="306" on="0"/>
        <pt x="371" y="272" on="0"/>
        <pt x="376" y="262" on="1"/>
        <pt x="379" y="256" on="0"/>
        <pt x="393" y="224" on="0"/>
        <pt x="409" y="190" on="0"/>
        <pt x="424" y="159" on="0"/>
        <pt x="427" y="153" on="1"/>
        <pt x="427" y="150" on="1"/>
        <pt x="427" y="114" on="0"/>
        <pt x="391" y="114" on="1"/>
        <pt x="380" y="114" on="0"/>
        <pt x="356" y="119" on="0"/>
        <pt x="350" y="131" on="1"/>
        <pt x="283" y="274" on="1"/>
        <pt x="274" y="274" on="1"/>
        <pt x="236" y="245" on="0"/>
        <pt x="150" y="189" on="0"/>
        <pt x="105" y="169" on="1"/>
        <pt x="98" y="133" on="0"/>
        <pt x="95" y="59" on="0"/>
        <pt x="97" y="22" on="1"/>
        <pt x="89" y="11" on="0"/>
        <pt x="73" y="0" on="0"/>
        <pt x="59" y="0" on="1"/>
        <pt x="45" y="0" on="0"/>
        <pt x="31" y="13" on="0"/>
        <pt x="25" y="32" on="0"/>
        <pt x="25" y="54" on="0"/>
      </contour>
      <contour>
        <pt x="114" y="257" on="1"/>
        <pt x="144" y="269" on="0"/>
        <pt x="201" y="309" on="0"/>
        <pt x="227" y="326" on="1"/>
        <pt x="230" y="328" on="0"/>
        <pt x="239" y="332" on="0"/>
        <pt x="243" y="335" on="1"/>
        <pt x="247" y="338" on="0"/>
        <pt x="253" y="342" on="1"/>
        <pt x="253" y="350" on="1"/>
        <pt x="161" y="612" on="1"/>
        <pt x="157" y="616" on="1"/>
        <pt x="154" y="610" on="0"/>
        <pt x="145" y="554" on="0"/>
        <pt x="134" y="465" on="0"/>
        <pt x="121" y="349" on="0"/>
        <pt x="114" y="283" on="1"/>
      </contour>
    </TTGlyph>
    <TTGlyph name="AE" xMin="25" yMin="0" xMax="685" yMax="780">
      <contour>
        <pt x="360" y="77" on="1"/>
        <pt x="356" y="92" on="0"/>
        <pt x="349" y="122" on="0"/>
        <pt x="347" y="136" on="1"/>
        <pt x="283" y="274" on="1"/>
        <pt x="274" y="274" on="1"/>
        <pt x="236" y="245" on="0"/>
        <pt x="150" y="189" on="0"/>
        <pt x="105" y="169" on="1"/>
        <pt x="98" y="133" on="0"/>
        <pt x="95" y="59" on="0"/>
        <pt x="97" y="22" on="1"/>
        <pt x="89" y="11" on="0"/>
        <pt x="73" y="0" on="0"/>
        <pt x="59" y="0" on="1"/>
        <pt x="45" y="0" on="0"/>
        <pt x="31" y="13" on="0"/>
        <pt x="25" y="32" on="0"/>
        <pt x="25" y="54" on="0"/>
        <pt x="25" y="63" on="1"/>
        <pt x="25" y="123" on="0"/>
        <pt x="41" y="241" on="0"/>
        <pt x="47" y="300" on="1"/>
        <pt x="47" y="303" on="0"/>
        <pt x="49" y="324" on="0"/>
        <pt x="52" y="348" on="0"/>
        <pt x="55" y="369" on="0"/>
        <pt x="55" y="372" on="1"/>
        <pt x="55" y="376" on="1"/>
        <pt x="97" y="688" on="1"/>
        <pt x="95" y="708" on="0"/>
        <pt x="112" y="739" on="0"/>
        <pt x="135" y="739" on="1"/>
        <pt x="160" y="742" on="0"/>
        <pt x="193" y="723" on="0"/>
        <pt x="215" y="693" on="0"/>
        <pt x="229" y="657" on="0"/>
        <pt x="237" y="642" on="1"/>
        <pt x="242" y="628" on="0"/>
        <pt x="257" y="590" on="0"/>
        <pt x="278" y="532" on="0"/>
        <pt x="307" y="448" on="0"/>
        <pt x="326" y="388" on="1"/>
        <pt x="330" y="384" on="1"/>
        <pt x="330" y="384" on="0"/>
        <pt x="334" y="386" on="1"/>
        <pt x="334" y="390" on="1"/>
        <pt x="334" y="405" on="1"/>
        <pt x="334" y="415" on="0"/>
        <pt x="330" y="463" on="0"/>
        <pt x="326" y="517" on="0"/>
        <pt x="323" y="565" on="0"/>
        <pt x="322" y="574" on="1"/>
        <pt x="321" y="591" on="0"/>
        <pt x="305" y="617" on="0"/>
        <pt x="305" y="634" on="1"/>
        <pt x="305" y="666" on="0"/>
        <pt x="331" y="692" on="0"/>
        <pt x="364" y="692" on="1"/>
        <pt x="371" y="692" on="0"/>
        <pt x="380" y="680" on="0"/>
        <pt x="386" y="680" on="1"/>
        <pt x="390" y="680" on="1"/>
        <pt x="393" y="681" on="0"/>
        <pt x="405" y="684" on="0"/>
        <pt x="407" y="684" on="1"/>
        <pt x="491" y="720" on="0"/>
        <pt x="585" y="760" on="0"/>
        <pt x="633" y="778" on="0"/>
        <pt x="650" y="780" on="0"/>
        <pt x="656" y="777" on="1"/>
        <pt x="668" y="775" on="0"/>
        <pt x="677" y="764" on="0"/>
        <pt x="677" y="753" on="1"/>
        <pt x="677" y="743" on="0"/>
        <pt x="671" y="723" on="0"/>
        <pt x="660" y="718" on="1"/>
        <pt x="529" y="655" on="1"/>
        <pt x="525" y="651" on="1"/>
        <pt x="415" y="604" on="1"/>
        <pt x="409" y="602" on="0"/>
        <pt x="407" y="586" on="0"/>
        <pt x="407" y="581" on="1"/>
        <pt x="407" y="573" on="0"/>
        <pt x="411" y="531" on="0"/>
        <pt x="415" y="486" on="0"/>
        <pt x="420" y="451" on="0"/>
        <pt x="421" y="451" on="1"/>
        <pt x="422" y="451" on="1"/>
        <pt x="422" y="451" on="0"/>
        <pt x="423" y="452" on="1"/>
        <pt x="434" y="460" on="0"/>
        <pt x="482" y="499" on="0"/>
        <pt x="532" y="539" on="0"/>
        <pt x="570" y="570" on="0"/>
        <pt x="571" y="570" on="1"/>
        <pt x="582" y="570" on="0"/>
        <pt x="600" y="548" on="0"/>
        <pt x="600" y="536" on="1"/>
        <pt x="600" y="524" on="0"/>
        <pt x="590" y="494" on="0"/>
        <pt x="579" y="486" on="1"/>
        <pt x="491" y="407" on="1"/>
        <pt x="483" y="397" on="0"/>
        <pt x="460" y="380" on="0"/>
        <pt x="443" y="365" on="1"/>
        <pt x="423" y="347" on="1"/>
        <pt x="423" y="347" on="0"/>
        <pt x="423" y="337" on="0"/>
        <pt x="422" y="325" on="0"/>
        <pt x="422" y="312" on="0"/>
        <pt x="422" y="308" on="1"/>
        <pt x="422" y="272" on="0"/>
        <pt x="432" y="201" on="0"/>
        <pt x="432" y="165" on="1"/>
        <pt x="436" y="165" on="1"/>
        <pt x="437" y="165" on="0"/>
        <pt x="453" y="181" on="0"/>
        <pt x="457" y="186" on="1"/>
        <pt x="459" y="189" on="0"/>
        <pt x="474" y="209" on="0"/>
        <pt x="510" y="255" on="0"/>
        <pt x="570" y="331" on="0"/>
        <pt x="617" y="389" on="1"/>
        <pt x="621" y="393" on="0"/>
        <pt x="636" y="409" on="0"/>
        <pt x="638" y="409" on="1"/>
        <pt x="641" y="412" on="0"/>
        <pt x="660" y="411" on="0"/>
        <pt x="664" y="409" on="1"/>
        <pt x="669" y="407" on="0"/>
        <pt x="685" y="389" on="0"/>
        <pt x="685" y="381" on="1"/>
        <pt x="685" y="369" on="0"/>
        <pt x="660" y="330" on="0"/>
        <pt x="626" y="288" on="0"/>
        <pt x="592" y="249" on="0"/>
        <pt x="583" y="237" on="1"/>
        <pt x="569" y="215" on="0"/>
        <pt x="530" y="152" on="0"/>
        <pt x="484" y="95" on="0"/>
        <pt x="429" y="54" on="0"/>
        <pt x="398" y="54" on="1"/>
        <pt x="383" y="54" on="0"/>
        <pt x="370" y="64" on="0"/>
      </contour>
      <contour>
        <pt x="114" y="257" on="1"/>
        <pt x="144" y="269" on="0"/>
        <pt x="201" y="309" on="0"/>
        <pt x="227" y="326" on="1"/>
        <pt x="230" y="328" on="0"/>
        <pt x="239" y="332" on="0"/>
        <pt x="243" y="335" on="1"/>
        <pt x="247" y="338" on="0"/>
        <pt x="253" y="342" on="1"/>
        <pt x="253" y="350" on="1"/>
        <pt x="161" y="612" on="1"/>
        <pt x="157" y="616" on="1"/>
        <pt x="154" y="610" on="0"/>
        <pt x="145" y="554" on="0"/>
        <pt x="134" y="465" on="0"/>
        <pt x="121" y="349" on="0"/>
        <pt x="114" y="283" on="1"/>
      </contour>
    </TTGlyph>
    <TTGlyph name="AEacute" xMin="25" yMin="0" xMax="685" yMax="940">
      <component glyphName="AE" x="0" y="0" flags="0x204"/>
      <component glyphName="acute" x="177" y="170" flags="0x4"/>
    </TTGlyph>
    <TTGlyph name="Aacute" xMin="25" yMin="0" xMax="499" yMax="917">
      <component glyphName="A" x="0" y="0" flags="0x204"/>
      <component glyphName="acute" x="-43" y="147" flags="0x4"/>
    </TTGlyph>
    <TTGlyph name="Abreve" xMin="25" yMin="0" xMax="499" yMax="932">
      <component glyphName="A" x="0" y="0" flags="0x204"/>
      <component glyphName="breve" x="-2" y="190" flags="0x4"/>
    </TTGlyph>
    <TTGlyph name="Acircumflex" xMin="-16" yMin="0" xMax="499" yMax="995">
      <component glyphName="A" x="0" y="0" flags="0x204"/>
      <component glyphName="circumflex" x="-44" y="118" flags="0x4"/>
    </TTGlyph>
    <TTGlyph name="Adieresis" xMin="25" yMin="0" xMax="499" yMax="877">
      <component glyphName="A" x="0" y="0" flags="0x204"/>
      <component glyphName="dieresis" x="-6" y="129" flags="0x4"/>
    </TTGlyph>
    <TTGlyph name="Agrave" xMin="25" yMin="0" xMax="499" yMax="949">
      <component glyphName="A" x="0" y="0" flags="0x204"/>
      <component glyphName="grave" x="12" y="210" flags="0x4"/>
    </TTGlyph>
    <TTGlyph name="Amacron" xMin="25" yMin="0" xMax="499" yMax="840">
      <component glyphName="A" x="0" y="0" flags="0x204"/>
      <component glyphName="macron" x="36" y="66" flags="0x4"/>
    </TTGlyph>
    <TTGlyph name="Aogonek" xMin="25" yMin="-129" xMax="499" yMax="742">
      <component glyphName="A" x="0" y="0" flags="0x204"/>
      <component glyphName="ogonek" x="246" y="119" flags="0x4"/>
    </TTGlyph>
    <TTGlyph name="Aring" xMin="25" yMin="0" xMax="499" yMax="869">
      <component glyphName="A" x="0" y="0" flags="0x204"/>
      <component glyphName="ring" x="-10" y="118" flags="0x4"/>
    </TTGlyph>
    <TTGlyph name="Atilde" xMin="25" yMin="0" xMax="499" yMax="935">
      <component glyphName="A" x="0" y="0" flags="0x204"/>
      <component glyphName="tilde" x="-1" y="282" flags="0x4"/>
    </TTGlyph>
    <TTGlyph name="B" xMin="22" yMin="-1" xMax="498" yMax="659">
      <contour>
        <pt x="88" y="203" on="1"/>
        <pt x="86" y="245" on="0"/>
        <pt x="81" y="337" on="0"/>
        <pt x="76" y="380" on="1"/>
        <pt x="72" y="380" on="0"/>
        <pt x="54" y="381" on="0"/>
        <pt x="36" y="387" on="0"/>
        <pt x="22" y="396" on="0"/>
        <pt x="22" y="403" on="1"/>
        <pt x="22" y="414" on="0"/>
        <pt x="33" y="437" on="0"/>
        <pt x="49" y="458" on="0"/>
        <pt x="66" y="475" on="0"/>
        <pt x="72" y="481" on="1"/>
        <pt x="72" y="633" on="1"/>
        <pt x="72" y="646" on="0"/>
        <pt x="98" y="659" on="0"/>
        <pt x="109" y="659" on="1"/>
        <pt x="137" y="659" on="0"/>
        <pt x="153" y="633" on="0"/>
        <pt x="155" y="600" on="0"/>
        <pt x="154" y="570" on="0"/>
        <pt x="165" y="566" on="1"/>
        <pt x="183" y="575" on="0"/>
        <pt x="215" y="595" on="0"/>
        <pt x="246" y="611" on="0"/>
        <pt x="279" y="621" on="0"/>
        <pt x="298" y="621" on="1"/>
        <pt x="307" y="621" on="0"/>
        <pt x="328" y="617" on="0"/>
        <pt x="346" y="608" on="0"/>
        <pt x="358" y="593" on="0"/>
        <pt x="358" y="581" on="1"/>
        <pt x="358" y="559" on="0"/>
        <pt x="346" y="522" on="0"/>
        <pt x="328" y="487" on="0"/>
        <pt x="308" y="453" on="0"/>
        <pt x="300" y="435" on="1"/>
        <pt x="304" y="435" on="0"/>
        <pt x="326" y="432" on="0"/>
        <pt x="350" y="430" on="0"/>
        <pt x="372" y="427" on="0"/>
        <pt x="376" y="427" on="1"/>
        <pt x="392" y="424" on="0"/>
        <pt x="435" y="410" on="0"/>
        <pt x="472" y="386" on="0"/>
        <pt x="498" y="353" on="0"/>
        <pt x="498" y="332" on="1"/>
        <pt x="498" y="309" on="0"/>
        <pt x="481" y="263" on="0"/>
        <pt x="469" y="245" on="1"/>
        <pt x="465" y="239" on="0"/>
        <pt x="449" y="217" on="0"/>
        <pt x="433" y="195" on="0"/>
        <pt x="420" y="178" on="0"/>
        <pt x="419" y="177" on="1"/>
        <pt x="228" y="12" on="1"/>
        <pt x="218" y="4" on="0"/>
        <pt x="204" y="-1" on="0"/>
        <pt x="194" y="-1" on="1"/>
        <pt x="187" y="-1" on="0"/>
        <pt x="160" y="2" on="0"/>
        <pt x="132" y="8" on="0"/>
        <pt x="111" y="18" on="0"/>
        <pt x="110" y="26" on="1"/>
        <pt x="88" y="195" on="1"/>
      </contour>
      <contour>
        <pt x="186" y="88" on="1"/>
        <pt x="187" y="88" on="1"/>
        <pt x="192" y="88" on="0"/>
        <pt x="212" y="94" on="0"/>
        <pt x="215" y="97" on="1"/>
        <pt x="219" y="100" on="0"/>
        <pt x="238" y="116" on="0"/>
        <pt x="260" y="134" on="0"/>
        <pt x="279" y="150" on="0"/>
        <pt x="284" y="153" on="1"/>
        <pt x="301" y="167" on="0"/>
        <pt x="348" y="207" on="0"/>
        <pt x="390" y="252" on="0"/>
        <pt x="419" y="300" on="0"/>
        <pt x="419" y="323" on="1"/>
        <pt x="419" y="338" on="0"/>
        <pt x="399" y="355" on="0"/>
        <pt x="370" y="365" on="0"/>
        <pt x="339" y="368" on="0"/>
        <pt x="328" y="368" on="1"/>
        <pt x="307" y="368" on="0"/>
        <pt x="271" y="354" on="0"/>
        <pt x="239" y="332" on="0"/>
        <pt x="210" y="305" on="0"/>
        <pt x="195" y="292" on="1"/>
        <pt x="192" y="289" on="0"/>
        <pt x="181" y="283" on="0"/>
        <pt x="171" y="275" on="0"/>
        <pt x="164" y="267" on="0"/>
        <pt x="165" y="262" on="1"/>
      </contour>
      <contour>
        <pt x="262" y="541" on="1"/>
        <pt x="260" y="540" on="0"/>
        <pt x="250" y="534" on="0"/>
        <pt x="240" y="526" on="0"/>
        <pt x="230" y="520" on="0"/>
        <pt x="228" y="519" on="1"/>
        <pt x="228" y="519" on="0"/>
        <pt x="207" y="503" on="0"/>
        <pt x="182" y="483" on="0"/>
        <pt x="161" y="466" on="0"/>
        <pt x="161" y="465" on="1"/>
        <pt x="161" y="388" on="1"/>
        <pt x="165" y="388" on="1"/>
        <pt x="165" y="388" on="0"/>
        <pt x="177" y="402" on="0"/>
        <pt x="194" y="421" on="0"/>
        <pt x="210" y="441" on="0"/>
        <pt x="215" y="447" on="1"/>
        <pt x="218" y="452" on="0"/>
        <pt x="235" y="474" on="0"/>
        <pt x="237" y="477" on="1"/>
        <pt x="240" y="483" on="0"/>
        <pt x="250" y="501" on="0"/>
        <pt x="259" y="518" on="0"/>
        <pt x="266" y="531" on="0"/>
        <pt x="266" y="531" on="1"/>
        <pt x="266" y="541" on="1"/>
      </contour>
    </TTGlyph>
    <TTGlyph name="C" xMin="23" yMin="0" xMax="412" yMax="629">
      <contour>
        <pt x="23" y="153" on="1"/>
        <pt x="35" y="253" on="0"/>
        <pt x="49" y="361" on="0"/>
        <pt x="52" y="387" on="1"/>
        <pt x="56" y="417" on="0"/>
        <pt x="56" y="422" on="1"/>
        <pt x="65" y="453" on="0"/>
        <pt x="85" y="525" on="0"/>
        <pt x="118" y="587" on="0"/>
        <pt x="170" y="629" on="0"/>
        <pt x="211" y="629" on="1"/>
        <pt x="229" y="629" on="0"/>
        <pt x="258" y="624" on="0"/>
        <pt x="284" y="612" on="0"/>
        <pt x="309" y="595" on="0"/>
        <pt x="323" y="583" on="1"/>
        <pt x="333" y="574" on="0"/>
        <pt x="336" y="570" on="0"/>
        <pt x="336" y="560" on="1"/>
        <pt x="336" y="547" on="0"/>
        <pt x="318" y="523" on="0"/>
        <pt x="301" y="523" on="1"/>
        <pt x="287" y="523" on="0"/>
        <pt x="269" y="536" on="0"/>
        <pt x="252" y="553" on="0"/>
        <pt x="233" y="566" on="0"/>
        <pt x="218" y="566" on="1"/>
        <pt x="202" y="566" on="0"/>
        <pt x="178" y="549" on="0"/>
        <pt x="161" y="523" on="0"/>
        <pt x="152" y="491" on="0"/>
        <pt x="150" y="477" on="1"/>
        <pt x="103" y="157" on="1"/>
        <pt x="103" y="155" on="0"/>
        <pt x="102" y="140" on="0"/>
        <pt x="102" y="136" on="1"/>
        <pt x="102" y="129" on="0"/>
        <pt x="102" y="108" on="0"/>
        <pt x="106" y="87" on="0"/>
        <pt x="116" y="72" on="0"/>
        <pt x="126" y="72" on="1"/>
        <pt x="132" y="72" on="0"/>
        <pt x="137" y="76" on="1"/>
        <pt x="185" y="108" on="0"/>
        <pt x="254" y="193" on="0"/>
        <pt x="285" y="241" on="1"/>
        <pt x="286" y="243" on="0"/>
        <pt x="295" y="258" on="0"/>
        <pt x="304" y="275" on="0"/>
        <pt x="312" y="292" on="0"/>
        <pt x="314" y="296" on="1"/>
        <pt x="320" y="309" on="0"/>
        <pt x="326" y="337" on="0"/>
        <pt x="335" y="361" on="0"/>
        <pt x="353" y="376" on="0"/>
        <pt x="372" y="376" on="1"/>
        <pt x="386" y="376" on="0"/>
        <pt x="412" y="352" on="0"/>
        <pt x="412" y="336" on="1"/>
        <pt x="412" y="334" on="1"/>
        <pt x="387" y="262" on="0"/>
        <pt x="308" y="140" on="0"/>
        <pt x="260" y="80" on="1"/>
        <pt x="230" y="44" on="0"/>
        <pt x="152" y="0" on="0"/>
        <pt x="104" y="0" on="1"/>
        <pt x="99" y="0" on="1"/>
        <pt x="54" y="17" on="0"/>
        <pt x="23" y="84" on="0"/>
        <pt x="23" y="129" on="1"/>
      </contour>
    </TTGlyph>
    <TTGlyph name="Cacute" xMin="23" yMin="0" xMax="412" yMax="871">
      <component glyphName="C" x="0" y="0" flags="0x204"/>
      <component glyphName="acute" x="46" y="101" flags="0x4"/>
    </TTGlyph>
    <TTGlyph name="Ccaron" xMin="23" yMin="0" xMax="412" yMax="852">
      <component glyphName="C" x="0" y="0" flags="0x204"/>
      <component glyphName="caron" x="9" y="75" flags="0x4"/>
    </TTGlyph>
    <TTGlyph name="Ccedilla" xMin="23" yMin="-309" xMax="412" yMax="629">
      <component glyphName="C" x="0" y="0" flags="0x204"/>
      <component glyphName="cedilla" x="-14" y="0" flags="0x4"/>
    </TTGlyph>
    <TTGlyph name="Ccircumflex" xMin="23" yMin="0" xMax="412" yMax="877">
      <component glyphName="C" x="0" y="0" flags="0x204"/>
      <component glyphName="circumflex" x="46" y="0" flags="0x4"/>
    </TTGlyph>
    <TTGlyph name="Cdotaccent" xMin="23" yMin="0" xMax="412" yMax="802">
      <component glyphName="C" x="0" y="0" flags="0x204"/>
      <component glyphName="dotaccent" x="114" y="161" flags="0x4"/>
    </TTGlyph>
    <TTGlyph name="D" xMin="18" yMin="0" xMax="501" yMax="654">
      <contour>
        <pt x="141" y="32" on="1"/>
        <pt x="141" y="41" on="0"/>
        <pt x="154" y="55" on="0"/>
        <pt x="154" y="63" on="1"/>
        <pt x="154" y="65" on="0"/>
        <pt x="146" y="71" on="0"/>
        <pt x="145" y="72" on="1"/>
        <pt x="135" y="87" on="0"/>
        <pt x="133" y="125" on="0"/>
        <pt x="133" y="142" on="1"/>
        <pt x="133" y="234" on="0"/>
        <pt x="135" y="414" on="0"/>
        <pt x="135" y="506" on="1"/>
        <pt x="125" y="506" on="0"/>
        <pt x="107" y="497" on="0"/>
        <pt x="87" y="486" on="0"/>
        <pt x="65" y="477" on="0"/>
        <pt x="52" y="477" on="1"/>
        <pt x="36" y="477" on="1"/>
        <pt x="34" y="480" on="0"/>
        <pt x="18" y="485" on="0"/>
        <pt x="18" y="489" on="1"/>
        <pt x="18" y="519" on="1"/>
        <pt x="23" y="522" on="0"/>
        <pt x="30" y="533" on="0"/>
        <pt x="32" y="537" on="1"/>
        <pt x="133" y="587" on="1"/>
        <pt x="137" y="592" on="1"/>
        <pt x="135" y="620" on="0"/>
        <pt x="145" y="654" on="0"/>
        <pt x="175" y="654" on="1"/>
        <pt x="183" y="654" on="0"/>
        <pt x="202" y="648" on="0"/>
        <pt x="219" y="638" on="0"/>
        <pt x="228" y="622" on="0"/>
        <pt x="226" y="612" on="1"/>
        <pt x="276" y="610" on="0"/>
        <pt x="374" y="599" on="0"/>
        <pt x="452" y="562" on="0"/>
        <pt x="501" y="490" on="0"/>
        <pt x="501" y="427" on="1"/>
        <pt x="501" y="370" on="0"/>
        <pt x="457" y="256" on="0"/>
        <pt x="416" y="215" on="1"/>
        <pt x="226" y="26" on="1"/>
        <pt x="212" y="12" on="0"/>
        <pt x="193" y="0" on="0"/>
        <pt x="175" y="0" on="1"/>
        <pt x="160" y="0" on="0"/>
        <pt x="141" y="17" on="0"/>
      </contour>
      <contour>
        <pt x="226" y="122" on="1"/>
        <pt x="222" y="122" on="1"/>
        <pt x="230" y="127" on="1"/>
        <pt x="231" y="128" on="0"/>
        <pt x="244" y="139" on="0"/>
        <pt x="260" y="154" on="0"/>
        <pt x="276" y="168" on="0"/>
        <pt x="281" y="173" on="1"/>
        <pt x="304" y="197" on="0"/>
        <pt x="355" y="251" on="0"/>
        <pt x="397" y="312" on="0"/>
        <pt x="424" y="379" on="0"/>
        <pt x="424" y="416" on="1"/>
        <pt x="424" y="451" on="0"/>
        <pt x="398" y="500" on="0"/>
        <pt x="355" y="531" on="0"/>
        <pt x="297" y="545" on="0"/>
        <pt x="264" y="545" on="1"/>
        <pt x="261" y="545" on="0"/>
        <pt x="232" y="542" on="0"/>
        <pt x="226" y="537" on="1"/>
      </contour>
    </TTGlyph>
    <TTGlyph name="Dcaron" xMin="18" yMin="0" xMax="501" yMax="866">
      <component glyphName="D" x="0" y="0" flags="0x204"/>
      <component glyphName="caron" x="110" y="89" flags="0x4"/>
    </TTGlyph>
    <TTGlyph name="E" xMin="23" yMin="-1" xMax="403" yMax="725">
      <contour>
        <pt x="78" y="22" on="1"/>
        <pt x="68" y="62" on="0"/>
        <pt x="58" y="133" on="0"/>
        <pt x="56" y="173" on="1"/>
        <pt x="55" y="196" on="0"/>
        <pt x="57" y="229" on="0"/>
        <pt x="52" y="249" on="1"/>
        <pt x="51" y="253" on="0"/>
        <pt x="44" y="257" on="0"/>
        <pt x="37" y="263" on="0"/>
        <pt x="31" y="272" on="0"/>
        <pt x="31" y="282" on="1"/>
        <pt x="31" y="290" on="0"/>
        <pt x="38" y="302" on="0"/>
        <pt x="45" y="313" on="0"/>
        <pt x="52" y="326" on="0"/>
        <pt x="52" y="335" on="1"/>
        <pt x="52" y="350" on="1"/>
        <pt x="52" y="360" on="0"/>
        <pt x="48" y="408" on="0"/>
        <pt x="44" y="462" on="0"/>
        <pt x="41" y="510" on="0"/>
        <pt x="40" y="519" on="1"/>
        <pt x="39" y="536" on="0"/>
        <pt x="23" y="562" on="0"/>
        <pt x="23" y="579" on="1"/>
        <pt x="23" y="611" on="0"/>
        <pt x="49" y="637" on="0"/>
        <pt x="82" y="637" on="1"/>
        <pt x="89" y="637" on="0"/>
        <pt x="98" y="625" on="0"/>
        <pt x="104" y="625" on="1"/>
        <pt x="108" y="625" on="1"/>
        <pt x="111" y="626" on="0"/>
        <pt x="123" y="629" on="0"/>
        <pt x="125" y="629" on="1"/>
        <pt x="209" y="665" on="0"/>
        <pt x="303" y="705" on="0"/>
        <pt x="351" y="723" on="0"/>
        <pt x="368" y="725" on="0"/>
        <pt x="374" y="722" on="1"/>
        <pt x="386" y="720" on="0"/>
        <pt x="395" y="709" on="0"/>
        <pt x="395" y="698" on="1"/>
        <pt x="395" y="688" on="0"/>
        <pt x="389" y="668" on="0"/>
        <pt x="378" y="663" on="1"/>
        <pt x="247" y="600" on="1"/>
        <pt x="243" y="596" on="1"/>
        <pt x="133" y="549" on="1"/>
        <pt x="127" y="547" on="0"/>
        <pt x="125" y="531" on="0"/>
        <pt x="125" y="526" on="1"/>
        <pt x="125" y="518" on="0"/>
        <pt x="129" y="476" on="0"/>
        <pt x="133" y="431" on="0"/>
        <pt x="138" y="396" on="0"/>
        <pt x="139" y="396" on="1"/>
        <pt x="140" y="396" on="1"/>
        <pt x="140" y="396" on="0"/>
        <pt x="141" y="397" on="1"/>
        <pt x="152" y="405" on="0"/>
        <pt x="200" y="444" on="0"/>
        <pt x="250" y="484" on="0"/>
        <pt x="288" y="515" on="0"/>
        <pt x="289" y="515" on="1"/>
        <pt x="300" y="515" on="0"/>
        <pt x="318" y="493" on="0"/>
        <pt x="318" y="481" on="1"/>
        <pt x="318" y="469" on="0"/>
        <pt x="308" y="439" on="0"/>
        <pt x="297" y="431" on="1"/>
        <pt x="141" y="292" on="1"/>
        <pt x="141" y="292" on="0"/>
        <pt x="141" y="282" on="0"/>
        <pt x="140" y="270" on="0"/>
        <pt x="140" y="257" on="0"/>
        <pt x="140" y="253" on="1"/>
        <pt x="140" y="217" on="0"/>
        <pt x="150" y="146" on="0"/>
        <pt x="150" y="110" on="1"/>
        <pt x="154" y="110" on="1"/>
        <pt x="155" y="110" on="0"/>
        <pt x="171" y="126" on="0"/>
        <pt x="175" y="131" on="1"/>
        <pt x="177" y="134" on="0"/>
        <pt x="192" y="154" on="0"/>
        <pt x="228" y="200" on="0"/>
        <pt x="288" y="276" on="0"/>
        <pt x="335" y="334" on="1"/>
        <pt x="339" y="338" on="0"/>
        <pt x="354" y="354" on="0"/>
        <pt x="356" y="354" on="1"/>
        <pt x="359" y="357" on="0"/>
        <pt x="378" y="356" on="0"/>
        <pt x="382" y="354" on="1"/>
        <pt x="387" y="352" on="0"/>
        <pt x="403" y="334" on="0"/>
        <pt x="403" y="326" on="1"/>
        <pt x="403" y="314" on="0"/>
        <pt x="378" y="275" on="0"/>
        <pt x="344" y="233" on="0"/>
        <pt x="310" y="194" on="0"/>
        <pt x="301" y="182" on="1"/>
        <pt x="287" y="160" on="0"/>
        <pt x="248" y="97" on="0"/>
        <pt x="202" y="40" on="0"/>
        <pt x="147" y="-1" on="0"/>
        <pt x="116" y="-1" on="1"/>
        <pt x="101" y="-1" on="0"/>
        <pt x="88" y="9" on="0"/>
      </contour>
    </TTGlyph>
    <TTGlyph name="Eacute" xMin="23" yMin="-1" xMax="403" yMax="862">
      <component glyphName="E" x="0" y="0" flags="0x204"/>
      <component glyphName="acute" x="27" y="92" flags="0x4"/>
    </TTGlyph>
    <TTGlyph name="Ebreve" xMin="23" yMin="-1" xMax="403" yMax="872">
      <component glyphName="E" x="0" y="0" flags="0x204"/>
      <component glyphName="breve" x="69" y="130" flags="0x4"/>
    </TTGlyph>
    <TTGlyph name="Ecaron" xMin="23" yMin="-1" xMax="403" yMax="889">
      <component glyphName="E" x="0" y="0" flags="0x204"/>
      <component glyphName="caron" x="-21" y="112" flags="0x4"/>
    </TTGlyph>
    <TTGlyph name="Ecircumflex" xMin="23" yMin="-1" xMax="403" yMax="969">
      <component glyphName="E" x="0" y="0" flags="0x204"/>
      <component glyphName="circumflex" x="31" y="92" flags="0x4"/>
    </TTGlyph>
    <TTGlyph name="Edieresis" xMin="23" yMin="-1" xMax="403" yMax="814">
      <component glyphName="E" x="0" y="0" flags="0x204"/>
      <component glyphName="dieresis" x="42" y="66" flags="0x4"/>
    </TTGlyph>
    <TTGlyph name="Edotaccent" xMin="23" yMin="-1" xMax="403" yMax="848">
      <component glyphName="E" x="0" y="0" flags="0x204"/>
      <component glyphName="dotaccent" x="100" y="207" flags="0x4"/>
    </TTGlyph>
    <TTGlyph name="Egrave" xMin="23" yMin="-1" xMax="403" yMax="900">
      <component glyphName="E" x="0" y="0" flags="0x204"/>
      <component glyphName="grave" x="-10" y="161" flags="0x4"/>
    </TTGlyph>
    <TTGlyph name="Emacron" xMin="23" yMin="-1" xMax="403" yMax="834">
      <component glyphName="E" x="0" y="0" flags="0x204"/>
      <component glyphName="macron" x="16" y="60" flags="0x4"/>
    </TTGlyph>
    <TTGlyph name="Eogonek" xMin="23" yMin="-23" xMax="420" yMax="725">
      <component glyphName="E" x="0" y="0" flags="0x204"/>
      <component glyphName="ogonek" x="175" y="225" flags="0x4"/>
    </TTGlyph>
    <TTGlyph name="Eth" xMin="18" yMin="0" xMax="501" yMax="654">
      <contour>
        <pt x="52" y="259" on="1"/>
        <pt x="52" y="268" on="0"/>
        <pt x="72" y="278" on="0"/>
        <pt x="98" y="284" on="0"/>
        <pt x="124" y="286" on="0"/>
        <pt x="131" y="288" on="1"/>
        <pt x="133" y="288" on="1"/>
        <pt x="134" y="343" on="0"/>
        <pt x="135" y="451" on="0"/>
        <pt x="135" y="506" on="1"/>
        <pt x="125" y="506" on="0"/>
        <pt x="107" y="497" on="0"/>
        <pt x="87" y="486" on="0"/>
        <pt x="65" y="477" on="0"/>
        <pt x="52" y="477" on="1"/>
        <pt x="36" y="477" on="1"/>
        <pt x="34" y="480" on="0"/>
        <pt x="18" y="485" on="0"/>
        <pt x="18" y="489" on="1"/>
        <pt x="18" y="519" on="1"/>
        <pt x="23" y="522" on="0"/>
        <pt x="30" y="533" on="0"/>
        <pt x="32" y="537" on="1"/>
        <pt x="133" y="587" on="1"/>
        <pt x="137" y="592" on="1"/>
        <pt x="135" y="620" on="0"/>
        <pt x="145" y="654" on="0"/>
        <pt x="175" y="654" on="1"/>
        <pt x="183" y="654" on="0"/>
        <pt x="202" y="648" on="0"/>
        <pt x="219" y="638" on="0"/>
        <pt x="228" y="622" on="0"/>
        <pt x="226" y="612" on="1"/>
        <pt x="276" y="610" on="0"/>
        <pt x="374" y="599" on="0"/>
        <pt x="452" y="562" on="0"/>
        <pt x="501" y="490" on="0"/>
        <pt x="501" y="427" on="1"/>
        <pt x="501" y="370" on="0"/>
        <pt x="457" y="256" on="0"/>
        <pt x="416" y="215" on="1"/>
        <pt x="226" y="26" on="1"/>
        <pt x="212" y="12" on="0"/>
        <pt x="193" y="0" on="0"/>
        <pt x="175" y="0" on="1"/>
        <pt x="160" y="0" on="0"/>
        <pt x="141" y="17" on="0"/>
        <pt x="141" y="32" on="1"/>
        <pt x="141" y="41" on="0"/>
        <pt x="154" y="55" on="0"/>
        <pt x="154" y="63" on="1"/>
        <pt x="154" y="65" on="0"/>
        <pt x="146" y="71" on="0"/>
        <pt x="145" y="72" on="1"/>
        <pt x="135" y="87" on="0"/>
        <pt x="133" y="125" on="0"/>
        <pt x="133" y="142" on="1"/>
        <pt x="133" y="222" on="1"/>
        <pt x="131" y="222" on="1"/>
        <pt x="125" y="222" on="0"/>
        <pt x="98" y="228" on="0"/>
        <pt x="72" y="239" on="0"/>
        <pt x="52" y="252" on="0"/>
      </contour>
      <contour>
        <pt x="226" y="302" on="1"/>
        <pt x="266" y="308" on="1"/>
        <pt x="283" y="308" on="0"/>
        <pt x="313" y="296" on="0"/>
        <pt x="313" y="276" on="1"/>
        <pt x="313" y="271" on="0"/>
        <pt x="300" y="259" on="0"/>
        <pt x="284" y="249" on="0"/>
        <pt x="266" y="242" on="0"/>
        <pt x="262" y="244" on="1"/>
        <pt x="226" y="238" on="1"/>
        <pt x="226" y="124" on="1"/>
        <pt x="230" y="127" on="1"/>
        <pt x="231" y="128" on="0"/>
        <pt x="244" y="139" on="0"/>
        <pt x="260" y="154" on="0"/>
        <pt x="276" y="168" on="0"/>
        <pt x="281" y="173" on="1"/>
        <pt x="304" y="197" on="0"/>
        <pt x="355" y="251" on="0"/>
        <pt x="397" y="312" on="0"/>
        <pt x="424" y="379" on="0"/>
        <pt x="424" y="416" on="1"/>
        <pt x="424" y="451" on="0"/>
        <pt x="398" y="500" on="0"/>
        <pt x="355" y="531" on="0"/>
        <pt x="297" y="545" on="0"/>
        <pt x="264" y="545" on="1"/>
        <pt x="261" y="545" on="0"/>
        <pt x="232" y="542" on="0"/>
        <pt x="226" y="537" on="1"/>
      </contour>
    </TTGlyph>
    <TTGlyph name="Euro" xMin="5" yMin="0" xMax="536" yMax="629">
      <contour>
        <pt x="7" y="336" on="1"/>
        <pt x="5" y="355" on="0"/>
        <pt x="27" y="370" on="0"/>
        <pt x="41" y="374" on="1"/>
        <pt x="65" y="383" on="0"/>
        <pt x="118" y="398" on="0"/>
        <pt x="158" y="407" on="1"/>
        <pt x="159" y="412" on="0"/>
        <pt x="160" y="418" on="0"/>
        <pt x="160" y="420" on="1"/>
        <pt x="160" y="422" on="1"/>
        <pt x="169" y="453" on="0"/>
        <pt x="189" y="525" on="0"/>
        <pt x="222" y="587" on="0"/>
        <pt x="274" y="629" on="0"/>
        <pt x="315" y="629" on="1"/>
        <pt x="333" y="629" on="0"/>
        <pt x="362" y="624" on="0"/>
        <pt x="388" y="612" on="0"/>
        <pt x="413" y="595" on="0"/>
        <pt x="427" y="583" on="1"/>
        <pt x="437" y="574" on="0"/>
        <pt x="440" y="570" on="0"/>
        <pt x="440" y="560" on="1"/>
        <pt x="440" y="547" on="0"/>
        <pt x="422" y="523" on="0"/>
        <pt x="405" y="523" on="1"/>
        <pt x="391" y="523" on="0"/>
        <pt x="373" y="536" on="0"/>
        <pt x="356" y="553" on="0"/>
        <pt x="337" y="566" on="0"/>
        <pt x="322" y="566" on="1"/>
        <pt x="306" y="566" on="0"/>
        <pt x="282" y="549" on="0"/>
        <pt x="265" y="523" on="0"/>
        <pt x="256" y="491" on="0"/>
        <pt x="254" y="477" on="1"/>
        <pt x="246" y="426" on="1"/>
        <pt x="266" y="431" on="0"/>
        <pt x="313" y="441" on="0"/>
        <pt x="340" y="447" on="1"/>
        <pt x="345" y="447" on="1"/>
        <pt x="349" y="447" on="0"/>
        <pt x="360" y="443" on="0"/>
        <pt x="371" y="436" on="0"/>
        <pt x="379" y="428" on="0"/>
        <pt x="379" y="424" on="1"/>
        <pt x="379" y="411" on="0"/>
        <pt x="365" y="388" on="0"/>
        <pt x="354" y="383" on="1"/>
        <pt x="324" y="372" on="0"/>
        <pt x="264" y="355" on="0"/>
        <pt x="235" y="347" on="1"/>
        <pt x="227" y="295" on="1"/>
        <pt x="254" y="303" on="0"/>
        <pt x="282" y="316" on="1"/>
        <pt x="304" y="323" on="0"/>
        <pt x="327" y="328" on="0"/>
        <pt x="344" y="328" on="1"/>
        <pt x="357" y="328" on="0"/>
        <pt x="389" y="318" on="0"/>
        <pt x="391" y="303" on="1"/>
        <pt x="390" y="299" on="0"/>
        <pt x="381" y="276" on="0"/>
        <pt x="379" y="274" on="1"/>
        <pt x="377" y="272" on="0"/>
        <pt x="362" y="262" on="0"/>
        <pt x="358" y="260" on="1"/>
        <pt x="321" y="254" on="0"/>
        <pt x="250" y="224" on="0"/>
        <pt x="214" y="208" on="1"/>
        <pt x="207" y="157" on="1"/>
        <pt x="207" y="155" on="0"/>
        <pt x="206" y="140" on="0"/>
        <pt x="206" y="136" on="1"/>
        <pt x="206" y="129" on="0"/>
        <pt x="206" y="108" on="0"/>
        <pt x="210" y="87" on="0"/>
        <pt x="220" y="72" on="0"/>
        <pt x="230" y="72" on="1"/>
        <pt x="233" y="72" on="0"/>
        <pt x="237" y="75" on="0"/>
        <pt x="241" y="76" on="1"/>
        <pt x="303" y="93" on="0"/>
        <pt x="392" y="145" on="0"/>
        <pt x="452" y="193" on="0"/>
        <pt x="486" y="227" on="0"/>
        <pt x="495" y="227" on="1"/>
        <pt x="509" y="227" on="0"/>
        <pt x="535" y="203" on="0"/>
        <pt x="535" y="187" on="1"/>
        <pt x="535" y="185" on="1"/>
        <pt x="536" y="180" on="0"/>
        <pt x="487" y="121" on="0"/>
        <pt x="399" y="54" on="0"/>
        <pt x="279" y="0" on="0"/>
        <pt x="208" y="0" on="1"/>
        <pt x="203" y="0" on="1"/>
        <pt x="158" y="17" on="0"/>
        <pt x="127" y="84" on="0"/>
        <pt x="127" y="129" on="1"/>
        <pt x="127" y="153" on="1"/>
        <pt x="130" y="180" on="1"/>
        <pt x="124" y="178" on="0"/>
        <pt x="111" y="177" on="0"/>
        <pt x="105" y="176" on="1"/>
        <pt x="88" y="176" on="0"/>
        <pt x="53" y="197" on="0"/>
        <pt x="53" y="216" on="1"/>
        <pt x="71" y="234" on="0"/>
        <pt x="115" y="259" on="0"/>
        <pt x="141" y="268" on="1"/>
        <pt x="143" y="285" on="0"/>
        <pt x="146" y="313" on="0"/>
        <pt x="148" y="325" on="1"/>
        <pt x="128" y="320" on="0"/>
        <pt x="89" y="309" on="0"/>
        <pt x="69" y="302" on="1"/>
        <pt x="62" y="302" on="0"/>
        <pt x="41" y="306" on="0"/>
        <pt x="22" y="314" on="0"/>
        <pt x="8" y="327" on="0"/>
      </contour>
    </TTGlyph>
    <TTGlyph name="F" xMin="26" yMin="-1" xMax="415" yMax="642">
      <contour>
        <pt x="34" y="249" on="1"/>
        <pt x="34" y="258" on="0"/>
        <pt x="39" y="270" on="0"/>
        <pt x="46" y="281" on="0"/>
        <pt x="51" y="292" on="0"/>
        <pt x="51" y="300" on="1"/>
        <pt x="51" y="330" on="0"/>
        <pt x="43" y="389" on="0"/>
        <pt x="34" y="449" on="0"/>
        <pt x="26" y="508" on="0"/>
        <pt x="26" y="538" on="1"/>
        <pt x="26" y="559" on="0"/>
        <pt x="41" y="575" on="0"/>
        <pt x="63" y="575" on="1"/>
        <pt x="80" y="575" on="0"/>
        <pt x="103" y="558" on="0"/>
        <pt x="114" y="545" on="1"/>
        <pt x="119" y="545" on="1"/>
        <pt x="126" y="549" on="0"/>
        <pt x="164" y="571" on="0"/>
        <pt x="207" y="595" on="0"/>
        <pt x="246" y="616" on="0"/>
        <pt x="254" y="621" on="1"/>
        <pt x="271" y="630" on="0"/>
        <pt x="303" y="642" on="0"/>
        <pt x="322" y="642" on="1"/>
        <pt x="332" y="642" on="0"/>
        <pt x="342" y="636" on="0"/>
        <pt x="342" y="623" on="1"/>
        <pt x="342" y="621" on="1"/>
        <pt x="338" y="601" on="0"/>
        <pt x="318" y="576" on="0"/>
        <pt x="291" y="558" on="0"/>
        <pt x="262" y="545" on="0"/>
        <pt x="249" y="537" on="1"/>
        <pt x="219" y="516" on="0"/>
        <pt x="178" y="490" on="0"/>
        <pt x="149" y="474" on="0"/>
        <pt x="132" y="463" on="0"/>
        <pt x="127" y="457" on="1"/>
        <pt x="127" y="454" on="0"/>
        <pt x="126" y="437" on="0"/>
        <pt x="126" y="435" on="1"/>
        <pt x="126" y="405" on="0"/>
        <pt x="128" y="345" on="0"/>
        <pt x="139" y="317" on="1"/>
        <pt x="372" y="427" on="1"/>
        <pt x="379" y="430" on="0"/>
        <pt x="386" y="431" on="0"/>
        <pt x="393" y="431" on="1"/>
        <pt x="397" y="431" on="0"/>
        <pt x="415" y="425" on="0"/>
        <pt x="415" y="420" on="1"/>
        <pt x="415" y="397" on="0"/>
        <pt x="384" y="361" on="0"/>
        <pt x="340" y="331" on="0"/>
        <pt x="292" y="309" on="0"/>
        <pt x="274" y="300" on="1"/>
        <pt x="270" y="298" on="0"/>
        <pt x="260" y="296" on="0"/>
        <pt x="258" y="292" on="1"/>
        <pt x="153" y="237" on="1"/>
        <pt x="148" y="234" on="0"/>
        <pt x="147" y="229" on="0"/>
        <pt x="147" y="224" on="1"/>
        <pt x="147" y="222" on="0"/>
        <pt x="148" y="216" on="0"/>
        <pt x="148" y="215" on="1"/>
        <pt x="169" y="51" on="1"/>
        <pt x="172" y="27" on="0"/>
        <pt x="143" y="-1" on="0"/>
        <pt x="122" y="-1" on="1"/>
        <pt x="118" y="-1" on="0"/>
        <pt x="106" y="2" on="0"/>
        <pt x="94" y="7" on="0"/>
        <pt x="85" y="16" on="0"/>
        <pt x="84" y="22" on="1"/>
        <pt x="59" y="219" on="1"/>
        <pt x="59" y="223" on="0"/>
        <pt x="51" y="229" on="0"/>
        <pt x="42" y="235" on="0"/>
        <pt x="34" y="243" on="0"/>
      </contour>
    </TTGlyph>
    <TTGlyph name="G" xMin="18" yMin="-121" xMax="479" yMax="595">
      <contour>
        <pt x="374" y="-87" on="1"/>
        <pt x="359" y="-27" on="0"/>
        <pt x="346" y="108" on="0"/>
        <pt x="344" y="167" on="1"/>
        <pt x="335" y="162" on="0"/>
        <pt x="323" y="141" on="0"/>
        <pt x="314" y="118" on="0"/>
        <pt x="304" y="95" on="0"/>
        <pt x="297" y="87" on="1"/>
        <pt x="274" y="61" on="0"/>
        <pt x="220" y="18" on="0"/>
        <pt x="183" y="18" on="1"/>
        <pt x="153" y="18" on="0"/>
        <pt x="94" y="44" on="0"/>
        <pt x="47" y="87" on="0"/>
        <pt x="18" y="143" on="0"/>
        <pt x="18" y="174" on="1"/>
        <pt x="18" y="217" on="0"/>
        <pt x="46" y="306" on="0"/>
        <pt x="66" y="344" on="1"/>
        <pt x="70" y="351" on="0"/>
        <pt x="87" y="378" on="0"/>
        <pt x="106" y="406" on="0"/>
        <pt x="122" y="429" on="0"/>
        <pt x="125" y="432" on="1"/>
        <pt x="234" y="547" on="1"/>
        <pt x="256" y="570" on="0"/>
        <pt x="323" y="591" on="0"/>
        <pt x="352" y="593" on="1"/>
        <pt x="367" y="595" on="0"/>
        <pt x="387" y="582" on="0"/>
        <pt x="387" y="567" on="1"/>
        <pt x="387" y="555" on="0"/>
        <pt x="368" y="542" on="0"/>
        <pt x="342" y="534" on="0"/>
        <pt x="314" y="527" on="0"/>
        <pt x="306" y="522" on="1"/>
        <pt x="253" y="479" on="0"/>
        <pt x="167" y="372" on="0"/>
        <pt x="133" y="314" on="1"/>
        <pt x="122" y="279" on="0"/>
        <pt x="98" y="215" on="0"/>
        <pt x="98" y="177" on="1"/>
        <pt x="98" y="174" on="0"/>
        <pt x="99" y="153" on="0"/>
        <pt x="99" y="150" on="1"/>
        <pt x="109" y="126" on="0"/>
        <pt x="150" y="86" on="0"/>
        <pt x="178" y="86" on="1"/>
        <pt x="192" y="86" on="0"/>
        <pt x="222" y="104" on="0"/>
        <pt x="230" y="117" on="1"/>
        <pt x="234" y="122" on="0"/>
        <pt x="254" y="152" on="0"/>
        <pt x="275" y="186" on="0"/>
        <pt x="294" y="216" on="0"/>
        <pt x="297" y="222" on="1"/>
        <pt x="300" y="228" on="0"/>
        <pt x="311" y="247" on="0"/>
        <pt x="320" y="265" on="0"/>
        <pt x="327" y="280" on="0"/>
        <pt x="327" y="281" on="1"/>
        <pt x="327" y="285" on="1"/>
        <pt x="313" y="281" on="0"/>
        <pt x="285" y="276" on="0"/>
        <pt x="270" y="276" on="1"/>
        <pt x="261" y="276" on="0"/>
        <pt x="240" y="279" on="0"/>
        <pt x="221" y="287" on="0"/>
        <pt x="208" y="301" on="0"/>
        <pt x="208" y="313" on="1"/>
        <pt x="208" y="318" on="0"/>
        <pt x="210" y="332" on="0"/>
        <pt x="213" y="336" on="1"/>
        <pt x="221" y="343" on="0"/>
        <pt x="248" y="350" on="0"/>
        <pt x="279" y="353" on="0"/>
        <pt x="310" y="356" on="0"/>
        <pt x="323" y="361" on="1"/>
        <pt x="334" y="365" on="0"/>
        <pt x="364" y="378" on="0"/>
        <pt x="397" y="391" on="0"/>
        <pt x="431" y="401" on="0"/>
        <pt x="445" y="403" on="1"/>
        <pt x="448" y="403" on="0"/>
        <pt x="459" y="399" on="0"/>
        <pt x="471" y="393" on="0"/>
        <pt x="479" y="386" on="0"/>
        <pt x="479" y="383" on="1"/>
        <pt x="479" y="361" on="0"/>
        <pt x="455" y="344" on="0"/>
        <pt x="436" y="332" on="1"/>
        <pt x="439" y="292" on="0"/>
        <pt x="428" y="212" on="0"/>
        <pt x="428" y="172" on="1"/>
        <pt x="428" y="124" on="0"/>
        <pt x="432" y="24" on="0"/>
        <pt x="440" y="-23" on="1"/>
        <pt x="441" y="-25" on="0"/>
        <pt x="445" y="-42" on="0"/>
        <pt x="450" y="-60" on="0"/>
        <pt x="454" y="-76" on="0"/>
        <pt x="454" y="-78" on="1"/>
        <pt x="454" y="-80" on="1"/>
        <pt x="454" y="-94" on="0"/>
        <pt x="433" y="-121" on="0"/>
        <pt x="419" y="-121" on="1"/>
        <pt x="404" y="-121" on="0"/>
        <pt x="377" y="-101" on="0"/>
      </contour>
    </TTGlyph>
    <TTGlyph name="Gbreve" xMin="18" yMin="-121" xMax="479" yMax="742">
      <component glyphName="G" x="0" y="0" flags="0x204"/>
      <component glyphName="breve" x="120" y="0" flags="0x4"/>
    </TTGlyph>
    <TTGlyph name="Gcircumflex" xMin="18" yMin="-121" xMax="479" yMax="877">
      <component glyphName="G" x="0" y="0" flags="0x204"/>
      <component glyphName="circumflex" x="81" y="0" flags="0x4"/>
    </TTGlyph>
    <TTGlyph name="Gcommaaccent" xMin="18" yMin="-184" xMax="479" yMax="595">
      <component glyphName="G" x="0" y="0" flags="0x204"/>
      <component glyphName="commaaccent" x="58" y="0" flags="0x4"/>
    </TTGlyph>
    <TTGlyph name="Gdotaccent" xMin="18" yMin="-121" xMax="479" yMax="773">
      <component glyphName="G" x="0" y="0" flags="0x204"/>
      <component glyphName="dotaccent" x="178" y="132" flags="0x4"/>
    </TTGlyph>
    <TTGlyph name="H" xMin="22" yMin="-1" xMax="338" yMax="795">
      <contour>
        <pt x="131" y="257" on="1"/>
        <pt x="128" y="257" on="1"/>
        <pt x="128" y="216" on="0"/>
        <pt x="131" y="137" on="0"/>
        <pt x="131" y="95" on="1"/>
        <pt x="131" y="83" on="0"/>
        <pt x="130" y="60" on="0"/>
        <pt x="124" y="41" on="0"/>
        <pt x="109" y="30" on="0"/>
        <pt x="94" y="30" on="1"/>
        <pt x="66" y="30" on="0"/>
        <pt x="55" y="59" on="1"/>
        <pt x="50" y="106" on="0"/>
        <pt x="48" y="197" on="0"/>
        <pt x="43" y="245" on="1"/>
        <pt x="41" y="259" on="0"/>
        <pt x="22" y="285" on="0"/>
        <pt x="22" y="297" on="1"/>
        <pt x="22" y="306" on="0"/>
        <pt x="35" y="318" on="0"/>
        <pt x="35" y="329" on="1"/>
        <pt x="35" y="407" on="0"/>
        <pt x="26" y="560" on="0"/>
        <pt x="26" y="637" on="1"/>
        <pt x="26" y="654" on="1"/>
        <pt x="33" y="664" on="0"/>
        <pt x="47" y="668" on="0"/>
        <pt x="59" y="668" on="1"/>
        <pt x="88" y="668" on="0"/>
        <pt x="104" y="633" on="0"/>
        <pt x="105" y="608" on="1"/>
        <pt x="114" y="342" on="1"/>
        <pt x="115" y="339" on="0"/>
        <pt x="120" y="326" on="0"/>
        <pt x="125" y="326" on="1"/>
        <pt x="132" y="326" on="0"/>
        <pt x="170" y="333" on="0"/>
        <pt x="212" y="342" on="0"/>
        <pt x="246" y="353" on="0"/>
        <pt x="249" y="358" on="1"/>
        <pt x="249" y="365" on="0"/>
        <pt x="250" y="401" on="0"/>
        <pt x="250" y="408" on="1"/>
        <pt x="250" y="450" on="0"/>
        <pt x="248" y="532" on="0"/>
        <pt x="245" y="574" on="1"/>
        <pt x="245" y="581" on="0"/>
        <pt x="239" y="634" on="0"/>
        <pt x="233" y="696" on="0"/>
        <pt x="228" y="749" on="0"/>
        <pt x="228" y="756" on="1"/>
        <pt x="227" y="757" on="0"/>
        <pt x="227" y="768" on="0"/>
        <pt x="227" y="770" on="1"/>
        <pt x="227" y="783" on="0"/>
        <pt x="246" y="795" on="0"/>
        <pt x="257" y="795" on="1"/>
        <pt x="281" y="795" on="0"/>
        <pt x="304" y="765" on="0"/>
        <pt x="309" y="743" on="1"/>
        <pt x="310" y="732" on="0"/>
        <pt x="314" y="680" on="0"/>
        <pt x="320" y="620" on="0"/>
        <pt x="325" y="567" on="0"/>
        <pt x="326" y="557" on="1"/>
        <pt x="326" y="541" on="1"/>
        <pt x="326" y="536" on="0"/>
        <pt x="329" y="507" on="0"/>
        <pt x="330" y="502" on="1"/>
        <pt x="330" y="92" on="1"/>
        <pt x="335" y="75" on="0"/>
        <pt x="338" y="53" on="0"/>
        <pt x="338" y="38" on="1"/>
        <pt x="338" y="26" on="0"/>
        <pt x="325" y="-1" on="0"/>
        <pt x="309" y="-1" on="1"/>
        <pt x="295" y="-1" on="0"/>
        <pt x="272" y="13" on="0"/>
        <pt x="255" y="35" on="0"/>
        <pt x="245" y="62" on="0"/>
        <pt x="245" y="76" on="1"/>
        <pt x="245" y="282" on="1"/>
      </contour>
    </TTGlyph>
    <TTGlyph name="Hcircumflex" xMin="22" yMin="-1" xMax="338" yMax="1021">
      <component glyphName="H" x="0" y="0" flags="0x204"/>
      <component glyphName="circumflex" x="2" y="144" flags="0x4"/>
    </TTGlyph>
    <TTGlyph name="I" xMin="23" yMin="0" xMax="129" yMax="584">
      <contour>
        <pt x="23" y="566" on="1"/>
        <pt x="31" y="577" on="0"/>
        <pt x="44" y="584" on="0"/>
        <pt x="56" y="584" on="1"/>
        <pt x="72" y="584" on="0"/>
        <pt x="101" y="566" on="0"/>
        <pt x="103" y="549" on="1"/>
        <pt x="107" y="521" on="0"/>
        <pt x="108" y="464" on="0"/>
        <pt x="107" y="407" on="0"/>
        <pt x="106" y="350" on="0"/>
        <pt x="108" y="322" on="1"/>
        <pt x="112" y="254" on="0"/>
        <pt x="129" y="108" on="0"/>
        <pt x="129" y="40" on="1"/>
        <pt x="129" y="20" on="0"/>
        <pt x="113" y="0" on="0"/>
        <pt x="90" y="0" on="1"/>
        <pt x="71" y="0" on="0"/>
        <pt x="51" y="26" on="0"/>
        <pt x="42" y="62" on="0"/>
        <pt x="40" y="99" on="0"/>
        <pt x="40" y="110" on="1"/>
        <pt x="40" y="118" on="0"/>
        <pt x="37" y="169" on="0"/>
        <pt x="34" y="238" on="0"/>
        <pt x="30" y="315" on="0"/>
        <pt x="26" y="384" on="0"/>
        <pt x="23" y="435" on="0"/>
        <pt x="23" y="443" on="1"/>
        <pt x="23" y="505" on="1"/>
      </contour>
    </TTGlyph>
    <TTGlyph name="Iacute" xMin="5" yMin="0" xMax="147" yMax="770">
      <component glyphName="I" x="0" y="0" flags="0x204"/>
      <component glyphName="acute" x="-79" y="0" flags="0x4"/>
    </TTGlyph>
    <TTGlyph name="Ibreve" xMin="-11" yMin="0" xMax="194" yMax="742">
      <component glyphName="I" x="0" y="0" flags="0x204"/>
      <component glyphName="breve" x="-52" y="0" flags="0x4"/>
    </TTGlyph>
    <TTGlyph name="Icircumflex" xMin="-63" yMin="0" xMax="225" yMax="877">
      <component glyphName="I" x="0" y="0" flags="0x204"/>
      <component glyphName="circumflex" x="-91" y="0" flags="0x4"/>
    </TTGlyph>
    <TTGlyph name="Idieresis" xMin="-28" yMin="0" xMax="184" yMax="748">
      <component glyphName="I" x="0" y="0" flags="0x204"/>
      <component glyphName="dieresis" x="-68" y="0" flags="0x4"/>
    </TTGlyph>
    <TTGlyph name="Idotaccent" xMin="10" yMin="0" xMax="135" yMax="767">
      <component glyphName="I" x="0" y="0" flags="0x204"/>
      <component glyphName="dotaccent" x="-12" y="126" flags="0x4"/>
    </TTGlyph>
    <TTGlyph name="Igrave" xMin="6" yMin="0" xMax="157" yMax="739">
      <component glyphName="I" x="0" y="0" flags="0x204"/>
      <component glyphName="grave" x="-80" y="0" flags="0x4"/>
    </TTGlyph>
    <TTGlyph name="Iogonek" xMin="-11" yMin="-246" xMax="177" yMax="584">
      <component glyphName="I" x="0" y="0" flags="0x204"/>
      <component glyphName="ogonek" x="-68" y="2" flags="0x4"/>
    </TTGlyph>
    <TTGlyph name="Itilde" xMin="-55" yMin="0" xMax="235" yMax="774">
      <component glyphName="I" x="0" y="0" flags="0x204"/>
      <component glyphName="tilde" x="-94" y="121" flags="0x4"/>
    </TTGlyph>
    <TTGlyph name="J" xMin="10" yMin="-1" xMax="294" yMax="681">
      <contour>
        <pt x="10" y="255" on="1"/>
        <pt x="10" y="268" on="0"/>
        <pt x="24" y="292" on="0"/>
        <pt x="40" y="292" on="1"/>
        <pt x="49" y="292" on="0"/>
        <pt x="61" y="280" on="0"/>
        <pt x="70" y="263" on="0"/>
        <pt x="78" y="246" on="0"/>
        <pt x="83" y="241" on="1"/>
        <pt x="90" y="235" on="0"/>
        <pt x="125" y="195" on="0"/>
        <pt x="161" y="151" on="0"/>
        <pt x="191" y="114" on="0"/>
        <pt x="193" y="110" on="1"/>
        <pt x="195" y="108" on="0"/>
        <pt x="203" y="99" on="0"/>
        <pt x="205" y="97" on="1"/>
        <pt x="209" y="101" on="1"/>
        <pt x="209" y="102" on="0"/>
        <pt x="210" y="120" on="0"/>
        <pt x="210" y="142" on="0"/>
        <pt x="210" y="165" on="0"/>
        <pt x="210" y="172" on="1"/>
        <pt x="210" y="258" on="0"/>
        <pt x="205" y="427" on="0"/>
        <pt x="205" y="513" on="1"/>
        <pt x="205" y="654" on="1"/>
        <pt x="208" y="668" on="0"/>
        <pt x="227" y="681" on="0"/>
        <pt x="240" y="681" on="1"/>
        <pt x="254" y="681" on="0"/>
        <pt x="281" y="669" on="0"/>
        <pt x="285" y="654" on="1"/>
        <pt x="283" y="529" on="0"/>
        <pt x="294" y="287" on="0"/>
        <pt x="294" y="163" on="1"/>
        <pt x="294" y="148" on="0"/>
        <pt x="294" y="93" on="0"/>
        <pt x="285" y="39" on="0"/>
        <pt x="260" y="-1" on="0"/>
        <pt x="236" y="-1" on="1"/>
        <pt x="234" y="-1" on="0"/>
        <pt x="227" y="0" on="0"/>
        <pt x="226" y="0" on="1"/>
        <pt x="221" y="2" on="0"/>
        <pt x="195" y="18" on="0"/>
        <pt x="193" y="22" on="1"/>
        <pt x="28" y="207" on="1"/>
        <pt x="16" y="220" on="0"/>
        <pt x="10" y="241" on="0"/>
      </contour>
    </TTGlyph>
    <TTGlyph name="Jcircumflex" xMin="10" yMin="-1" xMax="381" yMax="946">
      <component glyphName="J" x="0" y="0" flags="0x204"/>
      <component glyphName="circumflex" x="65" y="69" flags="0x4"/>
    </TTGlyph>
    <TTGlyph name="K" xMin="26" yMin="0" xMax="587" yMax="644">
      <contour>
        <pt x="76" y="143" on="1"/>
        <pt x="65" y="148" on="0"/>
        <pt x="46" y="170" on="0"/>
        <pt x="46" y="181" on="1"/>
        <pt x="46" y="195" on="0"/>
        <pt x="63" y="215" on="0"/>
        <pt x="63" y="229" on="1"/>
        <pt x="63" y="252" on="0"/>
        <pt x="52" y="298" on="0"/>
        <pt x="55" y="322" on="1"/>
        <pt x="26" y="604" on="1"/>
        <pt x="26" y="606" on="1"/>
        <pt x="26" y="618" on="0"/>
        <pt x="46" y="644" on="0"/>
        <pt x="59" y="642" on="1"/>
        <pt x="62" y="642" on="0"/>
        <pt x="73" y="639" on="0"/>
        <pt x="87" y="634" on="0"/>
        <pt x="98" y="628" on="0"/>
        <pt x="101" y="625" on="1"/>
        <pt x="103" y="623" on="0"/>
        <pt x="113" y="603" on="0"/>
        <pt x="114" y="600" on="1"/>
        <pt x="122" y="571" on="0"/>
        <pt x="121" y="500" on="0"/>
        <pt x="123" y="469" on="1"/>
        <pt x="124" y="458" on="0"/>
        <pt x="127" y="411" on="0"/>
        <pt x="132" y="364" on="0"/>
        <pt x="138" y="329" on="0"/>
        <pt x="141" y="329" on="1"/>
        <pt x="143" y="330" on="1"/>
        <pt x="194" y="381" on="0"/>
        <pt x="271" y="490" on="0"/>
        <pt x="296" y="557" on="1"/>
        <pt x="296" y="559" on="0"/>
        <pt x="300" y="571" on="0"/>
        <pt x="304" y="584" on="0"/>
        <pt x="307" y="597" on="0"/>
        <pt x="308" y="600" on="1"/>
        <pt x="308" y="600" on="0"/>
        <pt x="310" y="612" on="0"/>
        <pt x="314" y="625" on="0"/>
        <pt x="319" y="637" on="0"/>
        <pt x="322" y="637" on="1"/>
        <pt x="368" y="637" on="1"/>
        <pt x="375" y="637" on="0"/>
        <pt x="384" y="627" on="0"/>
        <pt x="390" y="613" on="0"/>
        <pt x="392" y="600" on="0"/>
        <pt x="392" y="596" on="1"/>
        <pt x="392" y="595" on="0"/>
        <pt x="389" y="588" on="0"/>
        <pt x="388" y="587" on="1"/>
        <pt x="388" y="579" on="1"/>
        <pt x="380" y="551" on="0"/>
        <pt x="362" y="505" on="0"/>
        <pt x="341" y="461" on="0"/>
        <pt x="315" y="417" on="0"/>
        <pt x="300" y="392" on="1"/>
        <pt x="295" y="384" on="0"/>
        <pt x="273" y="365" on="0"/>
        <pt x="270" y="354" on="1"/>
        <pt x="178" y="245" on="1"/>
        <pt x="165" y="219" on="1"/>
        <pt x="169" y="219" on="1"/>
        <pt x="212" y="230" on="0"/>
        <pt x="291" y="240" on="0"/>
        <pt x="369" y="244" on="0"/>
        <pt x="449" y="244" on="0"/>
        <pt x="494" y="245" on="1"/>
        <pt x="495" y="245" on="0"/>
        <pt x="507" y="246" on="0"/>
        <pt x="519" y="248" on="0"/>
        <pt x="530" y="249" on="0"/>
        <pt x="532" y="249" on="1"/>
        <pt x="541" y="249" on="1"/>
        <pt x="552" y="249" on="0"/>
        <pt x="579" y="241" on="0"/>
        <pt x="583" y="227" on="1"/>
        <pt x="587" y="216" on="0"/>
        <pt x="572" y="191" on="0"/>
        <pt x="562" y="186" on="1"/>
        <pt x="559" y="185" on="0"/>
        <pt x="544" y="183" on="0"/>
        <pt x="528" y="180" on="0"/>
        <pt x="514" y="177" on="0"/>
        <pt x="511" y="177" on="1"/>
        <pt x="498" y="177" on="1"/>
        <pt x="477" y="176" on="0"/>
        <pt x="414" y="176" on="0"/>
        <pt x="385" y="175" on="1"/>
        <pt x="351" y="174" on="0"/>
        <pt x="313" y="173" on="1"/>
        <pt x="165" y="143" on="1"/>
        <pt x="165" y="137" on="1"/>
        <pt x="165" y="115" on="0"/>
        <pt x="178" y="73" on="0"/>
        <pt x="178" y="51" on="1"/>
        <pt x="178" y="31" on="0"/>
        <pt x="158" y="0" on="0"/>
        <pt x="135" y="0" on="1"/>
        <pt x="123" y="0" on="0"/>
        <pt x="95" y="26" on="0"/>
        <pt x="92" y="38" on="1"/>
        <pt x="76" y="143" on="1"/>
      </contour>
    </TTGlyph>
    <TTGlyph name="Kcommaaccent" xMin="26" yMin="-184" xMax="587" yMax="644">
      <component glyphName="K" x="0" y="0" flags="0x204"/>
      <component glyphName="commaaccent" x="103" y="0" flags="0x4"/>
    </TTGlyph>
    <TTGlyph name="L" xMin="28" yMin="0" xMax="441" yMax="676">
      <contour>
        <pt x="32" y="155" on="1"/>
        <pt x="32" y="232" on="0"/>
        <pt x="37" y="384" on="0"/>
        <pt x="37" y="462" on="1"/>
        <pt x="37" y="507" on="0"/>
        <pt x="28" y="597" on="0"/>
        <pt x="28" y="642" on="1"/>
        <pt x="28" y="656" on="0"/>
        <pt x="45" y="676" on="0"/>
        <pt x="59" y="676" on="1"/>
        <pt x="83" y="676" on="0"/>
        <pt x="107" y="656" on="0"/>
        <pt x="117" y="626" on="0"/>
        <pt x="117" y="588" on="0"/>
        <pt x="117" y="570" on="1"/>
        <pt x="117" y="566" on="0"/>
        <pt x="118" y="534" on="0"/>
        <pt x="120" y="497" on="0"/>
        <pt x="121" y="465" on="0"/>
        <pt x="121" y="461" on="1"/>
        <pt x="121" y="428" on="1"/>
        <pt x="121" y="363" on="0"/>
        <pt x="117" y="235" on="0"/>
        <pt x="117" y="169" on="1"/>
        <pt x="117" y="127" on="1"/>
        <pt x="117" y="122" on="0"/>
        <pt x="120" y="105" on="0"/>
        <pt x="121" y="105" on="1"/>
        <pt x="129" y="105" on="1"/>
        <pt x="366" y="199" on="1"/>
        <pt x="374" y="206" on="0"/>
        <pt x="386" y="207" on="0"/>
        <pt x="394" y="207" on="1"/>
        <pt x="399" y="207" on="0"/>
        <pt x="415" y="206" on="0"/>
        <pt x="430" y="201" on="0"/>
        <pt x="441" y="192" on="0"/>
        <pt x="441" y="183" on="1"/>
        <pt x="441" y="160" on="0"/>
        <pt x="416" y="143" on="1"/>
        <pt x="384" y="126" on="0"/>
        <pt x="316" y="97" on="0"/>
        <pt x="281" y="88" on="1"/>
        <pt x="276" y="84" on="1"/>
        <pt x="228" y="71" on="0"/>
        <pt x="145" y="21" on="0"/>
        <pt x="100" y="0" on="1"/>
        <pt x="91" y="0" on="1"/>
        <pt x="64" y="0" on="0"/>
        <pt x="38" y="36" on="0"/>
        <pt x="30" y="85" on="0"/>
        <pt x="32" y="138" on="0"/>
      </contour>
    </TTGlyph>
    <TTGlyph name="Lacute" xMin="28" yMin="0" xMax="441" yMax="934">
      <component glyphName="L" x="0" y="0" flags="0x204"/>
      <component glyphName="acute" x="23" y="164" flags="0x4"/>
    </TTGlyph>
    <TTGlyph name="Lcommaaccent" xMin="28" yMin="-184" xMax="441" yMax="676">
      <component glyphName="L" x="0" y="0" flags="0x204"/>
      <component glyphName="commaaccent" x="31" y="0" flags="0x4"/>
    </TTGlyph>
    <TTGlyph name="Ldot" xMin="28" yMin="0" xMax="441" yMax="676">
      <component glyphName="L" x="0" y="0" flags="0x204"/>
      <component glyphName="periodcentered" x="157" y="0" flags="0x4"/>
    </TTGlyph>
    <TTGlyph name="Lslash" xMin="-48" yMin="0" xMax="441" yMax="676">
      <component glyphName="L" x="0" y="0" flags="0x204"/>
      <component glyphName="hyphen" x="-102" y="34" flags="0x4"/>
    </TTGlyph>
    <TTGlyph name="M" xMin="25" yMin="0" xMax="562" yMax="739">
      <contour>
        <pt x="34" y="30" on="1"/>
        <pt x="32" y="141" on="0"/>
        <pt x="25" y="362" on="0"/>
        <pt x="25" y="473" on="1"/>
        <pt x="25" y="481" on="0"/>
        <pt x="25" y="522" on="0"/>
        <pt x="26" y="568" on="0"/>
        <pt x="26" y="608" on="0"/>
        <pt x="26" y="616" on="1"/>
        <pt x="30" y="632" on="0"/>
        <pt x="46" y="651" on="0"/>
        <pt x="63" y="651" on="1"/>
        <pt x="80" y="651" on="0"/>
        <pt x="106" y="630" on="0"/>
        <pt x="114" y="616" on="1"/>
        <pt x="258" y="338" on="1"/>
        <pt x="259" y="336" on="0"/>
        <pt x="271" y="316" on="0"/>
        <pt x="274" y="312" on="1"/>
        <pt x="275" y="311" on="0"/>
        <pt x="279" y="309" on="0"/>
        <pt x="279" y="308" on="1"/>
        <pt x="283" y="317" on="1"/>
        <pt x="368" y="616" on="1"/>
        <pt x="377" y="630" on="0"/>
        <pt x="386" y="665" on="0"/>
        <pt x="397" y="699" on="0"/>
        <pt x="414" y="729" on="0"/>
        <pt x="431" y="739" on="1"/>
        <pt x="439" y="739" on="1"/>
        <pt x="466" y="739" on="0"/>
        <pt x="492" y="708" on="0"/>
        <pt x="502" y="663" on="0"/>
        <pt x="501" y="614" on="0"/>
        <pt x="502" y="596" on="1"/>
        <pt x="502" y="589" on="0"/>
        <pt x="505" y="549" on="0"/>
        <pt x="509" y="495" on="0"/>
        <pt x="513" y="434" on="0"/>
        <pt x="516" y="380" on="0"/>
        <pt x="519" y="340" on="0"/>
        <pt x="519" y="334" on="1"/>
        <pt x="519" y="330" on="1"/>
        <pt x="520" y="321" on="0"/>
        <pt x="526" y="279" on="0"/>
        <pt x="533" y="232" on="0"/>
        <pt x="539" y="190" on="0"/>
        <pt x="541" y="182" on="1"/>
        <pt x="542" y="177" on="0"/>
        <pt x="547" y="157" on="0"/>
        <pt x="554" y="134" on="0"/>
        <pt x="560" y="114" on="0"/>
        <pt x="562" y="110" on="1"/>
        <pt x="558" y="87" on="0"/>
        <pt x="543" y="62" on="0"/>
        <pt x="518" y="62" on="1"/>
        <pt x="515" y="62" on="0"/>
        <pt x="503" y="63" on="0"/>
        <pt x="502" y="63" on="1"/>
        <pt x="499" y="65" on="0"/>
        <pt x="482" y="81" on="0"/>
        <pt x="481" y="84" on="1"/>
        <pt x="465" y="139" on="1"/>
        <pt x="435" y="367" on="1"/>
        <pt x="435" y="376" on="1"/>
        <pt x="434" y="394" on="0"/>
        <pt x="434" y="435" on="0"/>
        <pt x="433" y="477" on="0"/>
        <pt x="429" y="519" on="0"/>
        <pt x="423" y="537" on="1"/>
        <pt x="418" y="531" on="1"/>
        <pt x="346" y="241" on="1"/>
        <pt x="345" y="230" on="0"/>
        <pt x="343" y="205" on="0"/>
        <pt x="335" y="182" on="0"/>
        <pt x="319" y="166" on="0"/>
        <pt x="304" y="165" on="1"/>
        <pt x="298" y="164" on="0"/>
        <pt x="284" y="170" on="0"/>
        <pt x="270" y="180" on="0"/>
        <pt x="259" y="193" on="0"/>
        <pt x="258" y="199" on="1"/>
        <pt x="131" y="401" on="1"/>
        <pt x="110" y="443" on="1"/>
        <pt x="110" y="357" on="1"/>
        <pt x="110" y="296" on="0"/>
        <pt x="115" y="179" on="0"/>
        <pt x="115" y="118" on="1"/>
        <pt x="115" y="113" on="0"/>
        <pt x="115" y="88" on="0"/>
        <pt x="114" y="60" on="0"/>
        <pt x="114" y="35" on="0"/>
        <pt x="114" y="30" on="1"/>
        <pt x="110" y="18" on="0"/>
        <pt x="95" y="0" on="0"/>
        <pt x="81" y="0" on="1"/>
        <pt x="62" y="0" on="0"/>
        <pt x="41" y="13" on="0"/>
      </contour>
    </TTGlyph>
    <TTGlyph name="N" xMin="23" yMin="0" xMax="424" yMax="777">
      <contour>
        <pt x="23" y="125" on="1"/>
        <pt x="23" y="186" on="0"/>
        <pt x="28" y="309" on="0"/>
        <pt x="34" y="432" on="0"/>
        <pt x="37" y="555" on="0"/>
        <pt x="35" y="616" on="1"/>
        <pt x="38" y="627" on="0"/>
        <pt x="54" y="638" on="0"/>
        <pt x="65" y="638" on="1"/>
        <pt x="86" y="638" on="0"/>
        <pt x="108" y="623" on="0"/>
        <pt x="118" y="597" on="0"/>
        <pt x="120" y="565" on="0"/>
        <pt x="121" y="549" on="1"/>
        <pt x="133" y="527" on="0"/>
        <pt x="166" y="486" on="0"/>
        <pt x="179" y="465" on="1"/>
        <pt x="179" y="464" on="0"/>
        <pt x="182" y="457" on="0"/>
        <pt x="183" y="457" on="1"/>
        <pt x="189" y="448" on="0"/>
        <pt x="208" y="419" on="0"/>
        <pt x="226" y="392" on="0"/>
        <pt x="239" y="372" on="0"/>
        <pt x="239" y="372" on="1"/>
        <pt x="243" y="367" on="1"/>
        <pt x="301" y="283" on="1"/>
        <pt x="305" y="279" on="0"/>
        <pt x="308" y="279" on="1"/>
        <pt x="310" y="279" on="1"/>
        <pt x="297" y="385" on="0"/>
        <pt x="281" y="606" on="0"/>
        <pt x="281" y="714" on="1"/>
        <pt x="281" y="764" on="1"/>
        <pt x="289" y="777" on="0"/>
        <pt x="308" y="777" on="1"/>
        <pt x="327" y="777" on="0"/>
        <pt x="345" y="759" on="0"/>
        <pt x="351" y="732" on="0"/>
        <pt x="351" y="701" on="0"/>
        <pt x="352" y="688" on="1"/>
        <pt x="352" y="687" on="0"/>
        <pt x="354" y="682" on="0"/>
        <pt x="357" y="665" on="0"/>
        <pt x="360" y="630" on="0"/>
        <pt x="365" y="568" on="0"/>
        <pt x="370" y="474" on="0"/>
        <pt x="374" y="406" on="1"/>
        <pt x="374" y="388" on="1"/>
        <pt x="408" y="165" on="1"/>
        <pt x="409" y="157" on="0"/>
        <pt x="424" y="124" on="0"/>
        <pt x="424" y="115" on="1"/>
        <pt x="424" y="94" on="0"/>
        <pt x="400" y="68" on="0"/>
        <pt x="378" y="68" on="1"/>
        <pt x="375" y="68" on="0"/>
        <pt x="365" y="73" on="0"/>
        <pt x="355" y="79" on="0"/>
        <pt x="346" y="86" on="0"/>
        <pt x="344" y="88" on="1"/>
        <pt x="183" y="317" on="1"/>
        <pt x="182" y="317" on="0"/>
        <pt x="180" y="324" on="0"/>
        <pt x="179" y="326" on="1"/>
        <pt x="173" y="335" on="0"/>
        <pt x="153" y="362" on="0"/>
        <pt x="135" y="389" on="0"/>
        <pt x="121" y="409" on="0"/>
        <pt x="121" y="410" on="1"/>
        <pt x="116" y="414" on="1"/>
        <pt x="111" y="319" on="0"/>
        <pt x="105" y="126" on="0"/>
        <pt x="108" y="30" on="1"/>
        <pt x="106" y="18" on="0"/>
        <pt x="85" y="0" on="0"/>
        <pt x="74" y="0" on="1"/>
        <pt x="54" y="0" on="0"/>
        <pt x="31" y="21" on="0"/>
        <pt x="23" y="38" on="1"/>
      </contour>
    </TTGlyph>
    <TTGlyph name="Nacute" xMin="23" yMin="0" xMax="424" yMax="903">
      <component glyphName="N" x="0" y="0" flags="0x204"/>
      <component glyphName="acute" x="30" y="133" flags="0x4"/>
    </TTGlyph>
    <TTGlyph name="Ncaron" xMin="23" yMin="0" xMax="424" yMax="892">
      <component glyphName="N" x="0" y="0" flags="0x204"/>
      <component glyphName="caron" x="0" y="115" flags="0x4"/>
    </TTGlyph>
    <TTGlyph name="Ncommaaccent" xMin="23" yMin="-184" xMax="424" yMax="777">
      <component glyphName="N" x="0" y="0" flags="0x204"/>
      <component glyphName="commaaccent" x="30" y="0" flags="0x4"/>
    </TTGlyph>
    <TTGlyph name="Ntilde" xMin="-5" yMin="0" xMax="424" yMax="932">
      <component glyphName="N" x="0" y="0" flags="0x204"/>
      <component glyphName="tilde" x="-44" y="279" flags="0x4"/>
    </TTGlyph>
    <TTGlyph name="O" xMin="21" yMin="0" xMax="305" yMax="667">
      <contour>
        <pt x="22" y="177" on="1"/>
        <pt x="23" y="183" on="0"/>
        <pt x="21" y="235" on="0"/>
        <pt x="22" y="312" on="0"/>
        <pt x="25" y="404" on="0"/>
        <pt x="36" y="498" on="0"/>
        <pt x="57" y="585" on="0"/>
        <pt x="74" y="617" on="1"/>
        <pt x="80" y="644" on="0"/>
        <pt x="126" y="665" on="0"/>
        <pt x="168" y="667" on="1"/>
        <pt x="195" y="667" on="0"/>
        <pt x="233" y="639" on="0"/>
        <pt x="260" y="598" on="0"/>
        <pt x="280" y="550" on="0"/>
        <pt x="288" y="531" on="1"/>
        <pt x="288" y="526" on="1"/>
        <pt x="295" y="506" on="0"/>
        <pt x="302" y="427" on="0"/>
        <pt x="305" y="340" on="0"/>
        <pt x="305" y="260" on="0"/>
        <pt x="305" y="239" on="1"/>
        <pt x="305" y="209" on="0"/>
        <pt x="289" y="126" on="0"/>
        <pt x="254" y="52" on="0"/>
        <pt x="198" y="0" on="0"/>
        <pt x="159" y="0" on="1"/>
        <pt x="126" y="0" on="0"/>
        <pt x="75" y="34" on="0"/>
        <pt x="40" y="87" on="0"/>
        <pt x="22" y="149" on="0"/>
      </contour>
      <contour>
        <pt x="119" y="110" on="1"/>
        <pt x="121" y="99" on="0"/>
        <pt x="140" y="76" on="0"/>
        <pt x="153" y="76" on="1"/>
        <pt x="161" y="76" on="1"/>
        <pt x="203" y="114" on="0"/>
        <pt x="229" y="213" on="0"/>
        <pt x="229" y="268" on="1"/>
        <pt x="229" y="281" on="0"/>
        <pt x="227" y="335" on="0"/>
        <pt x="222" y="402" on="0"/>
        <pt x="214" y="476" on="0"/>
        <pt x="202" y="541" on="0"/>
        <pt x="186" y="589" on="0"/>
        <pt x="175" y="598" on="1"/>
        <pt x="174" y="597" on="0"/>
        <pt x="171" y="591" on="0"/>
        <pt x="171" y="590" on="1"/>
        <pt x="150" y="564" on="0"/>
        <pt x="116" y="474" on="0"/>
        <pt x="99" y="351" on="0"/>
        <pt x="102" y="198" on="0"/>
      </contour>
    </TTGlyph>
    <TTGlyph name="OE" xMin="21" yMin="0" xMax="618" yMax="728">
      <component glyphName="O" x="0" y="0" flags="0x4"/>
      <component glyphName="E" x="215" y="3" flags="0x4"/>
    </TTGlyph>
    <TTGlyph name="Oacute" xMin="21" yMin="0" xMax="305" yMax="856">
      <component glyphName="O" x="0" y="0" flags="0x204"/>
      <component glyphName="acute" x="-27" y="86" flags="0x4"/>
    </TTGlyph>
    <TTGlyph name="Obreve" xMin="21" yMin="0" xMax="305" yMax="834">
      <component glyphName="O" x="0" y="0" flags="0x204"/>
      <component glyphName="breve" x="8" y="92" flags="0x4"/>
    </TTGlyph>
    <TTGlyph name="Ocircumflex" xMin="4" yMin="0" xMax="305" yMax="943">
      <component glyphName="O" x="0" y="0" flags="0x204"/>
      <component glyphName="circumflex" x="-24" y="66" flags="0x4"/>
    </TTGlyph>
    <TTGlyph name="Odieresis" xMin="21" yMin="0" xMax="305" yMax="797">
      <component glyphName="O" x="0" y="0" flags="0x204"/>
      <component glyphName="dieresis" x="7" y="49" flags="0x4"/>
    </TTGlyph>
    <TTGlyph name="Ograve" xMin="21" yMin="0" xMax="305" yMax="851">
      <component glyphName="O" x="0" y="0" flags="0x204"/>
      <component glyphName="grave" x="-11" y="112" flags="0x4"/>
    </TTGlyph>
    <TTGlyph name="Ohungarumlaut" xMin="21" yMin="0" xMax="313" yMax="896">
      <component glyphName="O" x="0" y="0" flags="0x204"/>
      <component glyphName="hungarumlaut" x="21" y="107" flags="0x4"/>
    </TTGlyph>
    <TTGlyph name="Omacron" xMin="-2" yMin="0" xMax="334" yMax="774">
      <component glyphName="O" x="0" y="0" flags="0x204"/>
      <component glyphName="macron" x="-26" y="0" flags="0x4"/>
    </TTGlyph>
    <TTGlyph name="Oslash" xMin="21" yMin="-85" xMax="305" yMax="754">
      <component glyphName="O" x="0" y="0" flags="0x204"/>
      <component glyphName="slash" x="32" y="-34" scalex="0.946044921875" scaley="0.848327636719" flags="0x4"/>
    </TTGlyph>
    <TTGlyph name="Oslashacute" xMin="21" yMin="-59" xMax="305" yMax="891">
      <component glyphName="O" x="0" y="0" flags="0x204"/>
      <component glyphName="slash" x="45" y="-11" scalex="0.921142578125" scaley="0.7998046875" flags="0x4"/>
      <component glyphName="acute" x="-12" y="121" flags="0x4"/>
    </TTGlyph>
    <TTGlyph name="Otilde" xMin="21" yMin="0" xMax="328" yMax="863">
      <component glyphName="O" x="0" y="0" flags="0x204"/>
      <component glyphName="tilde" x="-1" y="210" flags="0x4"/>
    </TTGlyph>
    <TTGlyph name="P" xMin="18" yMin="0" xMax="555" yMax="748">
      <contour>
        <pt x="141" y="199" on="1"/>
        <pt x="142" y="219" on="0"/>
        <pt x="139" y="259" on="0"/>
        <pt x="137" y="279" on="1"/>
        <pt x="136" y="284" on="0"/>
        <pt x="133" y="306" on="0"/>
        <pt x="133" y="308" on="1"/>
        <pt x="133" y="309" on="0"/>
        <pt x="129" y="316" on="0"/>
        <pt x="129" y="317" on="1"/>
        <pt x="131" y="319" on="1"/>
        <pt x="134" y="322" on="0"/>
        <pt x="133" y="322" on="1"/>
        <pt x="133" y="515" on="1"/>
        <pt x="129" y="515" on="1"/>
        <pt x="117" y="501" on="0"/>
        <pt x="85" y="469" on="0"/>
        <pt x="63" y="469" on="1"/>
        <pt x="47" y="469" on="0"/>
        <pt x="18" y="491" on="0"/>
        <pt x="18" y="509" on="1"/>
        <pt x="18" y="511" on="1"/>
        <pt x="18" y="512" on="0"/>
        <pt x="20" y="516" on="0"/>
        <pt x="21" y="518" on="1"/>
        <pt x="22" y="521" on="0"/>
        <pt x="23" y="523" on="1"/>
        <pt x="135" y="621" on="1"/>
        <pt x="135" y="676" on="1"/>
        <pt x="135" y="686" on="0"/>
        <pt x="159" y="697" on="0"/>
        <pt x="167" y="697" on="1"/>
        <pt x="180" y="697" on="0"/>
        <pt x="202" y="684" on="0"/>
        <pt x="213" y="684" on="1"/>
        <pt x="223" y="684" on="0"/>
        <pt x="239" y="696" on="0"/>
        <pt x="247" y="701" on="1"/>
        <pt x="285" y="724" on="0"/>
        <pt x="356" y="748" on="0"/>
        <pt x="400" y="748" on="1"/>
        <pt x="419" y="748" on="0"/>
        <pt x="472" y="741" on="0"/>
        <pt x="521" y="723" on="0"/>
        <pt x="555" y="691" on="0"/>
        <pt x="555" y="666" on="1"/>
        <pt x="555" y="621" on="0"/>
        <pt x="519" y="539" on="0"/>
        <pt x="487" y="507" on="1"/>
        <pt x="445" y="467" on="0"/>
        <pt x="372" y="404" on="0"/>
        <pt x="327" y="372" on="1"/>
        <pt x="326" y="371" on="0"/>
        <pt x="324" y="368" on="0"/>
        <pt x="323" y="367" on="1"/>
        <pt x="226" y="300" on="1"/>
        <pt x="221" y="296" on="0"/>
        <pt x="221" y="275" on="0"/>
        <pt x="221" y="272" on="1"/>
        <pt x="221" y="243" on="0"/>
        <pt x="228" y="186" on="0"/>
        <pt x="236" y="128" on="0"/>
        <pt x="243" y="70" on="0"/>
        <pt x="243" y="41" on="1"/>
        <pt x="243" y="25" on="0"/>
        <pt x="228" y="0" on="0"/>
        <pt x="209" y="0" on="1"/>
        <pt x="195" y="0" on="0"/>
        <pt x="164" y="23" on="0"/>
        <pt x="162" y="38" on="1"/>
      </contour>
      <contour>
        <pt x="221" y="392" on="1"/>
        <pt x="403" y="531" on="1"/>
        <pt x="415" y="540" on="0"/>
        <pt x="440" y="569" on="0"/>
        <pt x="461" y="602" on="0"/>
        <pt x="475" y="638" on="0"/>
        <pt x="475" y="654" on="1"/>
        <pt x="475" y="664" on="0"/>
        <pt x="458" y="675" on="0"/>
        <pt x="436" y="680" on="0"/>
        <pt x="413" y="680" on="0"/>
        <pt x="406" y="680" on="1"/>
        <pt x="361" y="680" on="0"/>
        <pt x="286" y="639" on="0"/>
        <pt x="252" y="616" on="1"/>
        <pt x="250" y="614" on="0"/>
        <pt x="238" y="607" on="0"/>
        <pt x="226" y="598" on="0"/>
        <pt x="217" y="590" on="0"/>
        <pt x="217" y="587" on="1"/>
        <pt x="217" y="397" on="1"/>
      </contour>
    </TTGlyph>
    <TTGlyph name="Q" xMin="26" yMin="-127" xMax="584" yMax="596">
      <contour>
        <pt x="322" y="80" on="1"/>
        <pt x="312" y="91" on="0"/>
        <pt x="294" y="113" on="0"/>
        <pt x="283" y="122" on="1"/>
        <pt x="281" y="123" on="1"/>
        <pt x="277" y="123" on="0"/>
        <pt x="254" y="90" on="0"/>
        <pt x="217" y="49" on="0"/>
        <pt x="168" y="16" on="0"/>
        <pt x="137" y="16" on="1"/>
        <pt x="107" y="16" on="0"/>
        <pt x="65" y="50" on="0"/>
        <pt x="38" y="101" on="0"/>
        <pt x="26" y="159" on="0"/>
        <pt x="26" y="183" on="1"/>
        <pt x="26" y="198" on="0"/>
        <pt x="31" y="226" on="0"/>
        <pt x="30" y="240" on="1"/>
        <pt x="33" y="253" on="0"/>
        <pt x="48" y="319" on="0"/>
        <pt x="65" y="394" on="0"/>
        <pt x="81" y="460" on="0"/>
        <pt x="84" y="473" on="1"/>
        <pt x="85" y="479" on="0"/>
        <pt x="95" y="507" on="0"/>
        <pt x="106" y="540" on="0"/>
        <pt x="116" y="568" on="0"/>
        <pt x="118" y="574" on="1"/>
        <pt x="123" y="578" on="0"/>
        <pt x="128" y="586" on="0"/>
        <pt x="133" y="592" on="0"/>
        <pt x="140" y="596" on="0"/>
        <pt x="147" y="596" on="1"/>
        <pt x="162" y="596" on="0"/>
        <pt x="195" y="582" on="0"/>
        <pt x="199" y="565" on="1"/>
        <pt x="201" y="557" on="0"/>
        <pt x="197" y="556" on="0"/>
        <pt x="203" y="549" on="1"/>
        <pt x="217" y="554" on="0"/>
        <pt x="247" y="557" on="0"/>
        <pt x="261" y="557" on="1"/>
        <pt x="288" y="557" on="0"/>
        <pt x="319" y="524" on="0"/>
        <pt x="334" y="477" on="0"/>
        <pt x="338" y="426" on="0"/>
        <pt x="338" y="407" on="1"/>
        <pt x="338" y="398" on="0"/>
        <pt x="336" y="372" on="0"/>
        <pt x="334" y="344" on="0"/>
        <pt x="333" y="317" on="0"/>
        <pt x="334" y="308" on="1"/>
        <pt x="313" y="211" on="1"/>
        <pt x="312" y="211" on="0"/>
        <pt x="329" y="191" on="0"/>
        <pt x="334" y="185" on="1"/>
        <pt x="335" y="184" on="0"/>
        <pt x="344" y="175" on="0"/>
        <pt x="353" y="166" on="0"/>
        <pt x="361" y="157" on="0"/>
        <pt x="362" y="156" on="1"/>
        <pt x="364" y="155" on="0"/>
        <pt x="367" y="149" on="0"/>
        <pt x="368" y="147" on="1"/>
        <pt x="574" y="-68" on="1"/>
        <pt x="575" y="-69" on="0"/>
        <pt x="581" y="-81" on="0"/>
        <pt x="583" y="-84" on="1"/>
        <pt x="583" y="-85" on="1"/>
        <pt x="583" y="-86" on="0"/>
        <pt x="584" y="-87" on="1"/>
        <pt x="584" y="-104" on="0"/>
        <pt x="562" y="-127" on="0"/>
        <pt x="547" y="-127" on="1"/>
        <pt x="539" y="-127" on="0"/>
        <pt x="520" y="-124" on="0"/>
        <pt x="515" y="-119" on="1"/>
      </contour>
      <contour>
        <pt x="110" y="199" on="1"/>
        <pt x="105" y="176" on="0"/>
        <pt x="115" y="134" on="0"/>
        <pt x="123" y="114" on="1"/>
        <pt x="125" y="110" on="0"/>
        <pt x="132" y="92" on="0"/>
        <pt x="137" y="92" on="1"/>
        <pt x="146" y="92" on="0"/>
        <pt x="171" y="111" on="0"/>
        <pt x="195" y="138" on="0"/>
        <pt x="211" y="167" on="0"/>
        <pt x="211" y="177" on="1"/>
        <pt x="211" y="190" on="0"/>
        <pt x="194" y="206" on="0"/>
        <pt x="194" y="219" on="1"/>
        <pt x="194" y="234" on="0"/>
        <pt x="205" y="246" on="0"/>
        <pt x="221" y="250" on="0"/>
        <pt x="238" y="252" on="0"/>
        <pt x="245" y="257" on="1"/>
        <pt x="250" y="261" on="0"/>
        <pt x="259" y="297" on="0"/>
        <pt x="266" y="339" on="0"/>
        <pt x="270" y="378" on="0"/>
        <pt x="270" y="386" on="1"/>
        <pt x="270" y="397" on="0"/>
        <pt x="270" y="425" on="0"/>
        <pt x="268" y="454" on="0"/>
        <pt x="263" y="482" on="0"/>
        <pt x="258" y="494" on="1"/>
        <pt x="252" y="494" on="1"/>
        <pt x="232" y="494" on="0"/>
        <pt x="199" y="472" on="0"/>
        <pt x="174" y="440" on="0"/>
        <pt x="154" y="403" on="0"/>
        <pt x="147" y="388" on="1"/>
        <pt x="145" y="383" on="0"/>
        <pt x="137" y="365" on="0"/>
        <pt x="139" y="358" on="1"/>
      </contour>
    </TTGlyph>
    <TTGlyph name="R" xMin="25" yMin="-1" xMax="760" yMax="685">
      <contour>
        <pt x="76" y="232" on="1"/>
        <pt x="70" y="245" on="0"/>
        <pt x="63" y="261" on="0"/>
        <pt x="63" y="272" on="1"/>
        <pt x="63" y="281" on="0"/>
        <pt x="68" y="296" on="0"/>
        <pt x="68" y="305" on="1"/>
        <pt x="68" y="327" on="0"/>
        <pt x="65" y="365" on="0"/>
        <pt x="63" y="388" on="1"/>
        <pt x="62" y="391" on="0"/>
        <pt x="50" y="395" on="0"/>
        <pt x="36" y="402" on="0"/>
        <pt x="25" y="416" on="0"/>
        <pt x="25" y="429" on="1"/>
        <pt x="25" y="441" on="0"/>
        <pt x="36" y="458" on="0"/>
        <pt x="48" y="473" on="0"/>
        <pt x="59" y="490" on="0"/>
        <pt x="59" y="502" on="1"/>
        <pt x="59" y="507" on="0"/>
        <pt x="57" y="534" on="0"/>
        <pt x="56" y="564" on="0"/>
        <pt x="55" y="591" on="0"/>
        <pt x="55" y="596" on="1"/>
        <pt x="55" y="598" on="1"/>
        <pt x="55" y="600" on="1"/>
        <pt x="59" y="609" on="0"/>
        <pt x="64" y="621" on="0"/>
        <pt x="70" y="627" on="0"/>
        <pt x="80" y="630" on="0"/>
        <pt x="88" y="630" on="1"/>
        <pt x="109" y="630" on="0"/>
        <pt x="129" y="614" on="0"/>
        <pt x="137" y="593" on="0"/>
        <pt x="139" y="575" on="0"/>
        <pt x="143" y="574" on="1"/>
        <pt x="215" y="637" on="1"/>
        <pt x="219" y="637" on="1"/>
        <pt x="254" y="660" on="0"/>
        <pt x="332" y="685" on="0"/>
        <pt x="375" y="685" on="1"/>
        <pt x="388" y="685" on="0"/>
        <pt x="425" y="679" on="0"/>
        <pt x="458" y="664" on="0"/>
        <pt x="481" y="640" on="0"/>
        <pt x="481" y="622" on="1"/>
        <pt x="481" y="602" on="0"/>
        <pt x="471" y="560" on="0"/>
        <pt x="454" y="519" on="0"/>
        <pt x="431" y="482" on="0"/>
        <pt x="418" y="469" on="1"/>
        <pt x="413" y="458" on="0"/>
        <pt x="295" y="368" on="0"/>
        <pt x="178" y="279" on="1"/>
        <pt x="658" y="249" on="1"/>
        <pt x="668" y="248" on="0"/>
        <pt x="703" y="247" on="0"/>
        <pt x="736" y="241" on="0"/>
        <pt x="760" y="224" on="0"/>
        <pt x="760" y="207" on="1"/>
        <pt x="760" y="198" on="0"/>
        <pt x="755" y="187" on="0"/>
        <pt x="748" y="180" on="0"/>
        <pt x="739" y="174" on="0"/>
        <pt x="735" y="169" on="1"/>
        <pt x="718" y="169" on="1"/>
        <pt x="701" y="169" on="1"/>
        <pt x="681" y="171" on="0"/>
        <pt x="638" y="177" on="0"/>
        <pt x="581" y="185" on="0"/>
        <pt x="505" y="193" on="0"/>
        <pt x="399" y="199" on="0"/>
        <pt x="258" y="203" on="0"/>
        <pt x="165" y="203" on="1"/>
        <pt x="164" y="203" on="0"/>
        <pt x="161" y="197" on="0"/>
        <pt x="161" y="195" on="1"/>
        <pt x="161" y="157" on="0"/>
        <pt x="174" y="84" on="0"/>
        <pt x="174" y="48" on="1"/>
        <pt x="174" y="41" on="0"/>
        <pt x="171" y="24" on="0"/>
        <pt x="163" y="9" on="0"/>
        <pt x="151" y="-1" on="0"/>
        <pt x="142" y="-1" on="1"/>
        <pt x="136" y="-1" on="0"/>
        <pt x="120" y="4" on="0"/>
        <pt x="105" y="14" on="0"/>
        <pt x="93" y="26" on="0"/>
        <pt x="92" y="34" on="1"/>
      </contour>
      <contour>
        <pt x="143" y="453" on="1"/>
        <pt x="143" y="428" on="0"/>
        <pt x="145" y="384" on="0"/>
        <pt x="147" y="358" on="1"/>
        <pt x="150" y="358" on="1"/>
        <pt x="151" y="358" on="0"/>
        <pt x="159" y="362" on="0"/>
        <pt x="191" y="383" on="0"/>
        <pt x="257" y="428" on="0"/>
        <pt x="317" y="469" on="1"/>
        <pt x="329" y="476" on="0"/>
        <pt x="357" y="510" on="0"/>
        <pt x="381" y="550" on="0"/>
        <pt x="397" y="589" on="0"/>
        <pt x="397" y="602" on="1"/>
        <pt x="397" y="612" on="0"/>
        <pt x="378" y="612" on="0"/>
        <pt x="371" y="612" on="1"/>
        <pt x="356" y="612" on="0"/>
        <pt x="318" y="602" on="0"/>
        <pt x="265" y="572" on="0"/>
        <pt x="192" y="516" on="0"/>
        <pt x="143" y="469" on="1"/>
      </contour>
    </TTGlyph>
    <TTGlyph name="Racute" xMin="25" yMin="-1" xMax="760" yMax="865">
      <component glyphName="R" x="0" y="0" flags="0x204"/>
      <component glyphName="acute" x="134" y="95" flags="0x4"/>
    </TTGlyph>
    <TTGlyph name="Rcaron" xMin="25" yMin="-1" xMax="760" yMax="852">
      <component glyphName="R" x="0" y="0" flags="0x204"/>
      <component glyphName="caron" x="83" y="75" flags="0x4"/>
    </TTGlyph>
    <TTGlyph name="Rcommaaccent" xMin="25" yMin="-184" xMax="760" yMax="685">
      <contour>
        <pt x="76" y="232" on="1"/>
        <pt x="70" y="245" on="0"/>
        <pt x="63" y="261" on="0"/>
        <pt x="63" y="272" on="1"/>
        <pt x="63" y="281" on="0"/>
        <pt x="68" y="296" on="0"/>
        <pt x="68" y="305" on="1"/>
        <pt x="68" y="327" on="0"/>
        <pt x="65" y="365" on="0"/>
        <pt x="63" y="388" on="1"/>
        <pt x="62" y="391" on="0"/>
        <pt x="50" y="395" on="0"/>
        <pt x="36" y="402" on="0"/>
        <pt x="25" y="416" on="0"/>
        <pt x="25" y="429" on="1"/>
        <pt x="25" y="441" on="0"/>
        <pt x="36" y="458" on="0"/>
        <pt x="48" y="473" on="0"/>
        <pt x="59" y="490" on="0"/>
        <pt x="59" y="502" on="1"/>
        <pt x="59" y="507" on="0"/>
        <pt x="57" y="534" on="0"/>
        <pt x="56" y="564" on="0"/>
        <pt x="55" y="591" on="0"/>
        <pt x="55" y="596" on="1"/>
        <pt x="55" y="598" on="1"/>
        <pt x="55" y="600" on="1"/>
        <pt x="59" y="609" on="0"/>
        <pt x="64" y="621" on="0"/>
        <pt x="70" y="627" on="0"/>
        <pt x="80" y="630" on="0"/>
        <pt x="88" y="630" on="1"/>
        <pt x="109" y="630" on="0"/>
        <pt x="129" y="614" on="0"/>
        <pt x="137" y="593" on="0"/>
        <pt x="139" y="575" on="0"/>
        <pt x="143" y="574" on="1"/>
        <pt x="215" y="637" on="1"/>
        <pt x="219" y="637" on="1"/>
        <pt x="254" y="660" on="0"/>
        <pt x="332" y="685" on="0"/>
        <pt x="375" y="685" on="1"/>
        <pt x="388" y="685" on="0"/>
        <pt x="425" y="679" on="0"/>
        <pt x="458" y="664" on="0"/>
        <pt x="481" y="640" on="0"/>
        <pt x="481" y="622" on="1"/>
        <pt x="481" y="602" on="0"/>
        <pt x="471" y="560" on="0"/>
        <pt x="454" y="519" on="0"/>
        <pt x="431" y="482" on="0"/>
        <pt x="418" y="469" on="1"/>
        <pt x="413" y="458" on="0"/>
        <pt x="295" y="368" on="0"/>
        <pt x="178" y="279" on="1"/>
        <pt x="658" y="249" on="1"/>
        <pt x="668" y="248" on="0"/>
        <pt x="703" y="247" on="0"/>
        <pt x="736" y="241" on="0"/>
        <pt x="760" y="224" on="0"/>
        <pt x="760" y="207" on="1"/>
        <pt x="760" y="198" on="0"/>
        <pt x="755" y="187" on="0"/>
        <pt x="748" y="180" on="0"/>
        <pt x="739" y="174" on="0"/>
        <pt x="735" y="169" on="1"/>
        <pt x="718" y="169" on="1"/>
        <pt x="701" y="169" on="1"/>
        <pt x="681" y="171" on="0"/>
        <pt x="638" y="177" on="0"/>
        <pt x="581" y="185" on="0"/>
        <pt x="505" y="193" on="0"/>
        <pt x="399" y="199" on="0"/>
        <pt x="258" y="203" on="0"/>
        <pt x="165" y="203" on="1"/>
        <pt x="164" y="203" on="0"/>
        <pt x="161" y="197" on="0"/>
        <pt x="161" y="195" on="1"/>
        <pt x="161" y="157" on="0"/>
        <pt x="174" y="84" on="0"/>
        <pt x="174" y="48" on="1"/>
        <pt x="174" y="41" on="0"/>
        <pt x="171" y="24" on="0"/>
        <pt x="163" y="9" on="0"/>
        <pt x="151" y="-1" on="0"/>
        <pt x="142" y="-1" on="1"/>
        <pt x="136" y="-1" on="0"/>
        <pt x="120" y="4" on="0"/>
        <pt x="105" y="14" on="0"/>
        <pt x="93" y="26" on="0"/>
        <pt x="92" y="34" on="1"/>
      </contour>
      <contour>
        <pt x="143" y="453" on="1"/>
        <pt x="143" y="428" on="0"/>
        <pt x="145" y="384" on="0"/>
        <pt x="147" y="358" on="1"/>
        <pt x="150" y="358" on="1"/>
        <pt x="151" y="358" on="0"/>
        <pt x="159" y="362" on="0"/>
        <pt x="191" y="383" on="0"/>
        <pt x="257" y="428" on="0"/>
        <pt x="317" y="469" on="1"/>
        <pt x="329" y="476" on="0"/>
        <pt x="357" y="510" on="0"/>
        <pt x="381" y="550" on="0"/>
        <pt x="397" y="589" on="0"/>
        <pt x="397" y="602" on="1"/>
        <pt x="397" y="612" on="0"/>
        <pt x="378" y="612" on="0"/>
        <pt x="371" y="612" on="1"/>
        <pt x="356" y="612" on="0"/>
        <pt x="318" y="602" on="0"/>
        <pt x="265" y="572" on="0"/>
        <pt x="192" y="516" on="0"/>
        <pt x="143" y="469" on="1"/>
      </contour>
      <contour>
        <pt x="386" y="-181" on="1"/>
        <pt x="372" y="-170" on="0"/>
        <pt x="378" y="-138" on="0"/>
        <pt x="388" y="-106" on="0"/>
        <pt x="386" y="-77" on="0"/>
        <pt x="365" y="-69" on="1"/>
        <pt x="351" y="-61" on="0"/>
        <pt x="348" y="-44" on="0"/>
        <pt x="360" y="-30" on="0"/>
        <pt x="383" y="-22" on="0"/>
        <pt x="396" y="-22" on="1"/>
        <pt x="415" y="-22" on="0"/>
        <pt x="438" y="-39" on="0"/>
        <pt x="438" y="-59" on="1"/>
        <pt x="438" y="-62" on="0"/>
        <pt x="438" y="-72" on="0"/>
        <pt x="437" y="-73" on="1"/>
        <pt x="435" y="-98" on="0"/>
        <pt x="432" y="-140" on="0"/>
        <pt x="424" y="-169" on="0"/>
        <pt x="405" y="-184" on="0"/>
      </contour>
    </TTGlyph>
    <TTGlyph name="S" xMin="16" yMin="0" xMax="528" yMax="570">
      <contour>
        <pt x="173" y="36" on="1"/>
        <pt x="189" y="58" on="0"/>
        <pt x="228" y="80" on="0"/>
        <pt x="269" y="94" on="0"/>
        <pt x="310" y="107" on="0"/>
        <pt x="330" y="122" on="1"/>
        <pt x="341" y="128" on="0"/>
        <pt x="381" y="152" on="0"/>
        <pt x="420" y="181" on="0"/>
        <pt x="449" y="209" on="0"/>
        <pt x="449" y="219" on="1"/>
        <pt x="449" y="220" on="0"/>
        <pt x="448" y="220" on="1"/>
        <pt x="446" y="220" on="0"/>
        <pt x="446" y="221" on="1"/>
        <pt x="444" y="223" on="1"/>
        <pt x="439" y="225" on="0"/>
        <pt x="417" y="231" on="0"/>
        <pt x="415" y="232" on="1"/>
        <pt x="286" y="247" on="0"/>
        <pt x="129" y="270" on="0"/>
        <pt x="44" y="296" on="0"/>
        <pt x="16" y="330" on="0"/>
        <pt x="16" y="356" on="1"/>
        <pt x="16" y="366" on="0"/>
        <pt x="24" y="390" on="0"/>
        <pt x="35" y="414" on="0"/>
        <pt x="47" y="434" on="0"/>
        <pt x="52" y="440" on="1"/>
        <pt x="68" y="460" on="0"/>
        <pt x="120" y="492" on="0"/>
        <pt x="180" y="516" on="0"/>
        <pt x="241" y="534" on="0"/>
        <pt x="266" y="541" on="1"/>
        <pt x="294" y="543" on="0"/>
        <pt x="351" y="566" on="0"/>
        <pt x="379" y="570" on="1"/>
        <pt x="393" y="570" on="0"/>
        <pt x="411" y="548" on="0"/>
        <pt x="411" y="536" on="1"/>
        <pt x="411" y="519" on="0"/>
        <pt x="398" y="502" on="0"/>
        <pt x="377" y="493" on="0"/>
        <pt x="351" y="488" on="0"/>
        <pt x="338" y="485" on="1"/>
        <pt x="330" y="483" on="0"/>
        <pt x="302" y="476" on="0"/>
        <pt x="274" y="468" on="0"/>
        <pt x="252" y="462" on="0"/>
        <pt x="250" y="461" on="1"/>
        <pt x="219" y="448" on="0"/>
        <pt x="164" y="425" on="0"/>
        <pt x="123" y="401" on="0"/>
        <pt x="100" y="374" on="0"/>
        <pt x="101" y="358" on="1"/>
        <pt x="101" y="357" on="1"/>
        <pt x="111" y="343" on="0"/>
        <pt x="181" y="329" on="0"/>
        <pt x="276" y="319" on="0"/>
        <pt x="381" y="309" on="0"/>
        <pt x="469" y="289" on="0"/>
        <pt x="527" y="255" on="0"/>
        <pt x="528" y="226" on="1"/>
        <pt x="528" y="215" on="0"/>
        <pt x="519" y="185" on="0"/>
        <pt x="511" y="177" on="1"/>
        <pt x="486" y="149" on="0"/>
        <pt x="417" y="89" on="0"/>
        <pt x="337" y="38" on="0"/>
        <pt x="252" y="3" on="0"/>
        <pt x="211" y="0" on="1"/>
        <pt x="197" y="0" on="0"/>
        <pt x="173" y="21" on="0"/>
      </contour>
    </TTGlyph>
    <TTGlyph name="Sacute" xMin="16" yMin="0" xMax="528" yMax="770">
      <component glyphName="S" x="0" y="0" flags="0x204"/>
      <component glyphName="acute" x="117" y="0" flags="0x4"/>
    </TTGlyph>
    <TTGlyph name="Scaron" xMin="16" yMin="0" xMax="528" yMax="777">
      <component glyphName="S" x="0" y="0" flags="0x204"/>
      <component glyphName="caron" x="91" y="0" flags="0x4"/>
    </TTGlyph>
    <TTGlyph name="Scedilla" xMin="16" yMin="-266" xMax="559" yMax="570">
      <component glyphName="S" x="0" y="0" flags="0x204"/>
      <component glyphName="cedilla" x="170" y="43" flags="0x4"/>
    </TTGlyph>
    <TTGlyph name="Scircumflex" xMin="16" yMin="0" xMax="528" yMax="877">
      <component glyphName="S" x="0" y="0" flags="0x204"/>
      <component glyphName="circumflex" x="105" y="0" flags="0x4"/>
    </TTGlyph>
    <TTGlyph name="Scommaaccent" xMin="16" yMin="-184" xMax="528" yMax="570">
      <contour>
        <pt x="386" y="-181" on="1"/>
        <pt x="372" y="-170" on="0"/>
        <pt x="378" y="-138" on="0"/>
        <pt x="388" y="-106" on="0"/>
        <pt x="386" y="-77" on="0"/>
        <pt x="365" y="-69" on="1"/>
        <pt x="351" y="-61" on="0"/>
        <pt x="348" y="-44" on="0"/>
        <pt x="360" y="-30" on="0"/>
        <pt x="383" y="-22" on="0"/>
        <pt x="396" y="-22" on="1"/>
        <pt x="415" y="-22" on="0"/>
        <pt x="438" y="-39" on="0"/>
        <pt x="438" y="-59" on="1"/>
        <pt x="438" y="-62" on="0"/>
        <pt x="438" y="-72" on="0"/>
        <pt x="437" y="-73" on="1"/>
        <pt x="435" y="-98" on="0"/>
        <pt x="432" y="-140" on="0"/>
        <pt x="424" y="-169" on="0"/>
        <pt x="405" y="-184" on="0"/>
      </contour>
      <contour>
        <pt x="173" y="36" on="1"/>
        <pt x="189" y="58" on="0"/>
        <pt x="228" y="80" on="0"/>
        <pt x="269" y="94" on="0"/>
        <pt x="310" y="107" on="0"/>
        <pt x="330" y="122" on="1"/>
        <pt x="341" y="128" on="0"/>
        <pt x="381" y="152" on="0"/>
        <pt x="420" y="181" on="0"/>
        <pt x="449" y="209" on="0"/>
        <pt x="449" y="219" on="1"/>
        <pt x="449" y="220" on="0"/>
        <pt x="448" y="220" on="1"/>
        <pt x="446" y="220" on="0"/>
        <pt x="446" y="221" on="1"/>
        <pt x="444" y="223" on="1"/>
        <pt x="439" y="225" on="0"/>
        <pt x="417" y="231" on="0"/>
        <pt x="415" y="232" on="1"/>
        <pt x="286" y="247" on="0"/>
        <pt x="129" y="270" on="0"/>
        <pt x="44" y="296" on="0"/>
        <pt x="16" y="330" on="0"/>
        <pt x="16" y="356" on="1"/>
        <pt x="16" y="366" on="0"/>
        <pt x="24" y="390" on="0"/>
        <pt x="35" y="414" on="0"/>
        <pt x="47" y="434" on="0"/>
        <pt x="52" y="440" on="1"/>
        <pt x="68" y="460" on="0"/>
        <pt x="120" y="492" on="0"/>
        <pt x="180" y="516" on="0"/>
        <pt x="241" y="534" on="0"/>
        <pt x="266" y="541" on="1"/>
        <pt x="294" y="543" on="0"/>
        <pt x="351" y="566" on="0"/>
        <pt x="379" y="570" on="1"/>
        <pt x="393" y="570" on="0"/>
        <pt x="411" y="548" on="0"/>
        <pt x="411" y="536" on="1"/>
        <pt x="411" y="519" on="0"/>
        <pt x="398" y="502" on="0"/>
        <pt x="377" y="493" on="0"/>
        <pt x="351" y="488" on="0"/>
        <pt x="338" y="485" on="1"/>
        <pt x="330" y="483" on="0"/>
        <pt x="302" y="476" on="0"/>
        <pt x="274" y="468" on="0"/>
        <pt x="252" y="462" on="0"/>
        <pt x="250" y="461" on="1"/>
        <pt x="219" y="448" on="0"/>
        <pt x="164" y="425" on="0"/>
        <pt x="123" y="401" on="0"/>
        <pt x="100" y="374" on="0"/>
        <pt x="101" y="358" on="1"/>
        <pt x="101" y="357" on="1"/>
        <pt x="111" y="343" on="0"/>
        <pt x="181" y="329" on="0"/>
        <pt x="276" y="319" on="0"/>
        <pt x="381" y="309" on="0"/>
        <pt x="469" y="289" on="0"/>
        <pt x="527" y="255" on="0"/>
        <pt x="528" y="226" on="1"/>
        <pt x="528" y="215" on="0"/>
        <pt x="519" y="185" on="0"/>
        <pt x="511" y="177" on="1"/>
        <pt x="486" y="149" on="0"/>
        <pt x="417" y="89" on="0"/>
        <pt x="337" y="38" on="0"/>
        <pt x="252" y="3" on="0"/>
        <pt x="211" y="0" on="1"/>
        <pt x="197" y="0" on="0"/>
        <pt x="173" y="21" on="0"/>
      </contour>
    </TTGlyph>
    <TTGlyph name="T" xMin="10" yMin="0" xMax="514" yMax="654">
      <contour>
        <pt x="218" y="439" on="1"/>
        <pt x="217" y="447" on="0"/>
        <pt x="214" y="472" on="0"/>
        <pt x="211" y="495" on="0"/>
        <pt x="209" y="511" on="0"/>
        <pt x="209" y="511" on="1"/>
        <pt x="201" y="511" on="1"/>
        <pt x="87" y="477" on="1"/>
        <pt x="82" y="469" on="0"/>
        <pt x="59" y="469" on="0"/>
        <pt x="53" y="469" on="1"/>
        <pt x="39" y="469" on="0"/>
        <pt x="10" y="494" on="0"/>
        <pt x="10" y="509" on="1"/>
        <pt x="10" y="520" on="0"/>
        <pt x="25" y="541" on="0"/>
        <pt x="36" y="545" on="1"/>
        <pt x="197" y="596" on="1"/>
        <pt x="200" y="607" on="0"/>
        <pt x="217" y="630" on="0"/>
        <pt x="231" y="630" on="1"/>
        <pt x="245" y="630" on="0"/>
        <pt x="264" y="616" on="0"/>
        <pt x="276" y="612" on="1"/>
        <pt x="285" y="613" on="0"/>
        <pt x="327" y="623" on="0"/>
        <pt x="374" y="634" on="0"/>
        <pt x="416" y="644" on="0"/>
        <pt x="424" y="646" on="1"/>
        <pt x="436" y="648" on="0"/>
        <pt x="448" y="654" on="0"/>
        <pt x="461" y="654" on="1"/>
        <pt x="478" y="654" on="0"/>
        <pt x="514" y="634" on="0"/>
        <pt x="514" y="614" on="1"/>
        <pt x="514" y="601" on="0"/>
        <pt x="496" y="582" on="0"/>
        <pt x="483" y="579" on="1"/>
        <pt x="293" y="531" on="1"/>
        <pt x="293" y="522" on="1"/>
        <pt x="293" y="491" on="0"/>
        <pt x="304" y="431" on="0"/>
        <pt x="302" y="401" on="1"/>
        <pt x="336" y="92" on="1"/>
        <pt x="336" y="70" on="1"/>
        <pt x="336" y="58" on="0"/>
        <pt x="335" y="33" on="0"/>
        <pt x="328" y="13" on="0"/>
        <pt x="312" y="0" on="0"/>
        <pt x="296" y="0" on="1"/>
        <pt x="284" y="0" on="0"/>
        <pt x="257" y="20" on="0"/>
        <pt x="256" y="34" on="1"/>
        <pt x="218" y="431" on="1"/>
      </contour>
    </TTGlyph>
    <TTGlyph name="Tbar" xMin="10" yMin="0" xMax="514" yMax="654">
      <component glyphName="T" x="0" y="0" flags="0x204"/>
      <component glyphName="macron" x="78" y="-310" flags="0x4"/>
    </TTGlyph>
    <TTGlyph name="Tcaron" xMin="10" yMin="0" xMax="514" yMax="875">
      <component glyphName="T" x="0" y="0" flags="0x204"/>
      <component glyphName="caron" x="59" y="98" flags="0x4"/>
    </TTGlyph>
    <TTGlyph name="Tcommaaccent" xMin="10" yMin="-203" xMax="514" yMax="654">
      <component glyphName="T" x="0" y="0" flags="0x204"/>
      <component glyphName="commaaccent" x="90" y="-19" flags="0x4"/>
    </TTGlyph>
    <TTGlyph name="Thorn" xMin="7" yMin="-38" xMax="362" yMax="747">
      <contour>
        <pt x="7" y="431" on="1"/>
        <pt x="7" y="433" on="1"/>
        <pt x="7" y="441" on="0"/>
        <pt x="18" y="458" on="0"/>
        <pt x="24" y="464" on="1"/>
        <pt x="24" y="515" on="1"/>
        <pt x="24" y="556" on="0"/>
        <pt x="24" y="598" on="0"/>
        <pt x="22" y="632" on="0"/>
        <pt x="18" y="674" on="0"/>
        <pt x="14" y="716" on="1"/>
        <pt x="14" y="729" on="0"/>
        <pt x="32" y="742" on="0"/>
        <pt x="42" y="742" on="1"/>
        <pt x="70" y="747" on="0"/>
        <pt x="99" y="730" on="0"/>
        <pt x="110" y="695" on="0"/>
        <pt x="109" y="650" on="0"/>
        <pt x="106" y="606" on="0"/>
        <pt x="105" y="568" on="0"/>
        <pt x="112" y="558" on="1"/>
        <pt x="125" y="563" on="0"/>
        <pt x="126" y="562" on="0"/>
        <pt x="125" y="561" on="0"/>
        <pt x="130" y="566" on="0"/>
        <pt x="146" y="578" on="1"/>
        <pt x="168" y="595" on="0"/>
        <pt x="227" y="604" on="0"/>
        <pt x="253" y="604" on="1"/>
        <pt x="314" y="595" on="0"/>
        <pt x="362" y="538" on="0"/>
        <pt x="356" y="455" on="0"/>
        <pt x="305" y="354" on="0"/>
        <pt x="229" y="247" on="0"/>
        <pt x="137" y="142" on="0"/>
        <pt x="94" y="96" on="1"/>
        <pt x="95" y="83" on="0"/>
        <pt x="96" y="49" on="0"/>
        <pt x="95" y="16" on="0"/>
        <pt x="92" y="-12" on="0"/>
        <pt x="88" y="-19" on="1"/>
        <pt x="83" y="-29" on="0"/>
        <pt x="68" y="-38" on="0"/>
        <pt x="52" y="-36" on="0"/>
        <pt x="38" y="-22" on="0"/>
        <pt x="34" y="-8" on="1"/>
        <pt x="31" y="1" on="0"/>
        <pt x="28" y="33" on="0"/>
        <pt x="26" y="74" on="0"/>
        <pt x="27" y="120" on="0"/>
        <pt x="28" y="144" on="1"/>
        <pt x="28" y="405" on="1"/>
      </contour>
      <contour>
        <pt x="112" y="354" on="1"/>
        <pt x="112" y="351" on="0"/>
        <pt x="113" y="329" on="0"/>
        <pt x="115" y="304" on="0"/>
        <pt x="116" y="282" on="0"/>
        <pt x="116" y="279" on="1"/>
        <pt x="116" y="276" on="0"/>
        <pt x="116" y="261" on="0"/>
        <pt x="117" y="244" on="0"/>
        <pt x="117" y="229" on="0"/>
        <pt x="117" y="226" on="1"/>
        <pt x="128" y="228" on="0"/>
        <pt x="168" y="280" on="0"/>
        <pt x="210" y="349" on="0"/>
        <pt x="246" y="419" on="0"/>
        <pt x="255" y="439" on="1"/>
        <pt x="259" y="449" on="0"/>
        <pt x="267" y="477" on="0"/>
        <pt x="270" y="506" on="0"/>
        <pt x="263" y="530" on="0"/>
        <pt x="252" y="537" on="1"/>
        <pt x="234" y="537" on="0"/>
        <pt x="193" y="519" on="0"/>
        <pt x="154" y="491" on="0"/>
        <pt x="123" y="458" on="0"/>
        <pt x="116" y="443" on="1"/>
        <pt x="115" y="438" on="0"/>
        <pt x="114" y="413" on="0"/>
        <pt x="113" y="385" on="0"/>
        <pt x="112" y="359" on="0"/>
      </contour>
    </TTGlyph>
    <TTGlyph name="U" xMin="39" yMin="-135" xMax="416" yMax="535">
      <contour>
        <pt x="297" y="141" on="1"/>
        <pt x="286" y="120" on="0"/>
        <pt x="255" y="68" on="0"/>
        <pt x="214" y="21" on="0"/>
        <pt x="167" y="-11" on="0"/>
        <pt x="140" y="-11" on="1"/>
        <pt x="106" y="-11" on="0"/>
        <pt x="66" y="29" on="0"/>
        <pt x="45" y="88" on="0"/>
        <pt x="39" y="153" on="0"/>
        <pt x="39" y="179" on="1"/>
        <pt x="39" y="205" on="1"/>
        <pt x="40" y="213" on="0"/>
        <pt x="43" y="245" on="0"/>
        <pt x="48" y="286" on="0"/>
        <pt x="52" y="331" on="0"/>
        <pt x="57" y="372" on="0"/>
        <pt x="60" y="404" on="0"/>
        <pt x="61" y="412" on="1"/>
        <pt x="57" y="422" on="0"/>
        <pt x="60" y="443" on="0"/>
        <pt x="71" y="460" on="0"/>
        <pt x="89" y="471" on="0"/>
        <pt x="100" y="471" on="1"/>
        <pt x="103" y="471" on="0"/>
        <pt x="118" y="467" on="0"/>
        <pt x="134" y="459" on="0"/>
        <pt x="146" y="450" on="0"/>
        <pt x="146" y="446" on="1"/>
        <pt x="146" y="408" on="1"/>
        <pt x="132" y="300" on="0"/>
        <pt x="124" y="172" on="0"/>
        <pt x="126" y="101" on="0"/>
        <pt x="136" y="75" on="0"/>
        <pt x="141" y="70" on="1"/>
        <pt x="153" y="65" on="0"/>
        <pt x="176" y="70" on="0"/>
        <pt x="208" y="102" on="0"/>
        <pt x="253" y="169" on="0"/>
        <pt x="285" y="225" on="1"/>
        <pt x="287" y="228" on="0"/>
        <pt x="292" y="244" on="0"/>
        <pt x="293" y="247" on="1"/>
        <pt x="291" y="313" on="0"/>
        <pt x="294" y="447" on="0"/>
        <pt x="297" y="513" on="1"/>
        <pt x="301" y="523" on="0"/>
        <pt x="319" y="535" on="0"/>
        <pt x="329" y="535" on="1"/>
        <pt x="333" y="535" on="0"/>
        <pt x="349" y="529" on="0"/>
        <pt x="365" y="518" on="0"/>
        <pt x="377" y="506" on="0"/>
        <pt x="377" y="500" on="1"/>
        <pt x="377" y="205" on="1"/>
        <pt x="384" y="160" on="0"/>
        <pt x="392" y="69" on="0"/>
        <pt x="399" y="24" on="1"/>
        <pt x="399" y="19" on="0"/>
        <pt x="404" y="-12" on="0"/>
        <pt x="410" y="-48" on="0"/>
        <pt x="415" y="-78" on="0"/>
        <pt x="416" y="-82" on="1"/>
        <pt x="416" y="-94" on="1"/>
        <pt x="416" y="-130" on="0"/>
        <pt x="377" y="-133" on="1"/>
        <pt x="360" y="-135" on="0"/>
        <pt x="337" y="-102" on="0"/>
        <pt x="323" y="-49" on="0"/>
        <pt x="314" y="17" on="0"/>
        <pt x="308" y="79" on="0"/>
        <pt x="302" y="130" on="0"/>
      </contour>
    </TTGlyph>
    <TTGlyph name="Uacute" xMin="39" yMin="-135" xMax="416" yMax="770">
      <component glyphName="U" x="0" y="0" flags="0x204"/>
      <component glyphName="acute" x="53" y="0" flags="0x4"/>
    </TTGlyph>
    <TTGlyph name="Ubreve" xMin="39" yMin="-135" xMax="416" yMax="742">
      <component glyphName="U" x="0" y="0" flags="0x204"/>
      <component glyphName="breve" x="80" y="0" flags="0x4"/>
    </TTGlyph>
    <TTGlyph name="Ucircumflex" xMin="39" yMin="-135" xMax="416" yMax="877">
      <component glyphName="U" x="0" y="0" flags="0x204"/>
      <component glyphName="circumflex" x="42" y="0" flags="0x4"/>
    </TTGlyph>
    <TTGlyph name="Udieresis" xMin="39" yMin="-135" xMax="416" yMax="748">
      <component glyphName="U" x="0" y="0" flags="0x204"/>
      <component glyphName="dieresis" x="65" y="0" flags="0x4"/>
    </TTGlyph>
    <TTGlyph name="Ugrave" xMin="39" yMin="-135" xMax="416" yMax="739">
      <component glyphName="U" x="0" y="0" flags="0x204"/>
      <component glyphName="grave" x="52" y="0" flags="0x4"/>
    </TTGlyph>
    <TTGlyph name="Uhungarumlaut" xMin="39" yMin="-135" xMax="416" yMax="789">
      <component glyphName="U" x="0" y="0" flags="0x204"/>
      <component glyphName="hungarumlaut" x="55" y="0" flags="0x4"/>
    </TTGlyph>
    <TTGlyph name="Umacron" xMin="39" yMin="-135" xMax="416" yMax="691">
      <component glyphName="U" x="0" y="0" flags="0x204"/>
      <component glyphName="macron" x="27" y="-83" flags="0x4"/>
    </TTGlyph>
    <TTGlyph name="Uogonek" xMin="39" yMin="-325" xMax="434" yMax="535">
      <component glyphName="U" x="0" y="0" flags="0x204"/>
      <component glyphName="ogonek" x="189" y="-77" flags="0x4"/>
    </TTGlyph>
    <TTGlyph name="Uring" xMin="39" yMin="-135" xMax="416" yMax="751">
      <component glyphName="U" x="0" y="0" flags="0x204"/>
      <component glyphName="ring" x="98" y="0" flags="0x4"/>
    </TTGlyph>
    <TTGlyph name="Utilde" xMin="39" yMin="-135" xMax="416" yMax="734">
      <component glyphName="U" x="0" y="0" flags="0x204"/>
      <component glyphName="tilde" x="18" y="81" flags="0x4"/>
    </TTGlyph>
    <TTGlyph name="V" xMin="11" yMin="0" xMax="498" yMax="612">
      <contour>
        <pt x="42" y="477" on="1"/>
        <pt x="31" y="485" on="0"/>
        <pt x="11" y="521" on="0"/>
        <pt x="11" y="535" on="1"/>
        <pt x="11" y="550" on="0"/>
        <pt x="35" y="566" on="0"/>
        <pt x="48" y="566" on="1"/>
        <pt x="64" y="566" on="0"/>
        <pt x="86" y="554" on="0"/>
        <pt x="107" y="526" on="0"/>
        <pt x="134" y="478" on="0"/>
        <pt x="176" y="405" on="0"/>
        <pt x="240" y="304" on="0"/>
        <pt x="287" y="237" on="1"/>
        <pt x="290" y="229" on="0"/>
        <pt x="306" y="206" on="0"/>
        <pt x="308" y="203" on="1"/>
        <pt x="312" y="211" on="1"/>
        <pt x="367" y="418" on="1"/>
        <pt x="371" y="427" on="1"/>
        <pt x="410" y="566" on="1"/>
        <pt x="407" y="584" on="0"/>
        <pt x="429" y="612" on="0"/>
        <pt x="446" y="612" on="1"/>
        <pt x="463" y="612" on="0"/>
        <pt x="498" y="589" on="0"/>
        <pt x="498" y="570" on="1"/>
        <pt x="498" y="566" on="1"/>
        <pt x="384" y="139" on="1"/>
        <pt x="384" y="137" on="0"/>
        <pt x="380" y="116" on="0"/>
        <pt x="376" y="91" on="0"/>
        <pt x="372" y="66" on="0"/>
        <pt x="371" y="59" on="1"/>
        <pt x="370" y="50" on="0"/>
        <pt x="369" y="29" on="0"/>
        <pt x="362" y="12" on="0"/>
        <pt x="348" y="0" on="0"/>
        <pt x="334" y="0" on="1"/>
        <pt x="310" y="0" on="0"/>
        <pt x="286" y="26" on="0"/>
        <pt x="274" y="63" on="0"/>
        <pt x="266" y="104" on="0"/>
        <pt x="257" y="118" on="1"/>
      </contour>
    </TTGlyph>
    <TTGlyph name="W" xMin="14" yMin="0" xMax="493" yMax="722">
      <contour>
        <pt x="243" y="342" on="1"/>
        <pt x="239" y="346" on="1"/>
        <pt x="233" y="322" on="0"/>
        <pt x="231" y="274" on="0"/>
        <pt x="230" y="249" on="1"/>
        <pt x="230" y="241" on="0"/>
        <pt x="229" y="203" on="0"/>
        <pt x="227" y="160" on="0"/>
        <pt x="226" y="121" on="0"/>
        <pt x="226" y="114" on="1"/>
        <pt x="223" y="102" on="0"/>
        <pt x="203" y="84" on="0"/>
        <pt x="190" y="84" on="1"/>
        <pt x="185" y="84" on="0"/>
        <pt x="170" y="87" on="0"/>
        <pt x="155" y="92" on="0"/>
        <pt x="142" y="100" on="0"/>
        <pt x="141" y="105" on="1"/>
        <pt x="78" y="326" on="1"/>
        <pt x="32" y="507" on="1"/>
        <pt x="31" y="508" on="0"/>
        <pt x="25" y="520" on="0"/>
        <pt x="19" y="535" on="0"/>
        <pt x="14" y="549" on="0"/>
        <pt x="14" y="553" on="1"/>
        <pt x="14" y="567" on="0"/>
        <pt x="41" y="584" on="0"/>
        <pt x="52" y="584" on="1"/>
        <pt x="89" y="584" on="0"/>
        <pt x="99" y="553" on="1"/>
        <pt x="154" y="354" on="1"/>
        <pt x="159" y="356" on="0"/>
        <pt x="162" y="374" on="0"/>
        <pt x="162" y="376" on="1"/>
        <pt x="162" y="377" on="0"/>
        <pt x="165" y="395" on="0"/>
        <pt x="173" y="440" on="0"/>
        <pt x="188" y="518" on="0"/>
        <pt x="201" y="579" on="1"/>
        <pt x="209" y="589" on="0"/>
        <pt x="231" y="596" on="0"/>
        <pt x="245" y="596" on="1"/>
        <pt x="258" y="596" on="0"/>
        <pt x="273" y="588" on="0"/>
        <pt x="276" y="574" on="1"/>
        <pt x="344" y="288" on="1"/>
        <pt x="346" y="283" on="0"/>
        <pt x="350" y="271" on="0"/>
        <pt x="352" y="266" on="1"/>
        <pt x="356" y="299" on="0"/>
        <pt x="362" y="350" on="0"/>
        <pt x="368" y="399" on="0"/>
        <pt x="374" y="454" on="0"/>
        <pt x="384" y="526" on="0"/>
        <pt x="398" y="624" on="0"/>
        <pt x="408" y="692" on="1"/>
        <pt x="411" y="712" on="0"/>
        <pt x="440" y="722" on="0"/>
        <pt x="458" y="722" on="1"/>
        <pt x="459" y="722" on="0"/>
        <pt x="466" y="719" on="0"/>
        <pt x="467" y="718" on="1"/>
        <pt x="469" y="717" on="0"/>
        <pt x="481" y="715" on="0"/>
        <pt x="483" y="714" on="1"/>
        <pt x="487" y="705" on="0"/>
        <pt x="493" y="692" on="0"/>
        <pt x="493" y="684" on="1"/>
        <pt x="491" y="694" on="0"/>
        <pt x="481" y="656" on="0"/>
        <pt x="466" y="570" on="0"/>
        <pt x="449" y="443" on="0"/>
        <pt x="433" y="284" on="0"/>
        <pt x="420" y="99" on="0"/>
        <pt x="416" y="0" on="1"/>
        <pt x="413" y="0" on="0"/>
        <pt x="399" y="2" on="0"/>
        <pt x="384" y="6" on="0"/>
        <pt x="372" y="12" on="0"/>
        <pt x="370" y="17" on="1"/>
      </contour>
    </TTGlyph>
    <TTGlyph name="Wacute" xMin="14" yMin="0" xMax="493" yMax="811">
      <component glyphName="W" x="0" y="0" flags="0x204"/>
      <component glyphName="acute" x="101" y="41" flags="0x4"/>
    </TTGlyph>
    <TTGlyph name="Wcircumflex" xMin="14" yMin="0" xMax="493" yMax="943">
      <component glyphName="W" x="0" y="0" flags="0x204"/>
      <component glyphName="circumflex" x="34" y="66" flags="0x4"/>
    </TTGlyph>
    <TTGlyph name="Wdieresis" xMin="14" yMin="0" xMax="493" yMax="748">
      <component glyphName="W" x="0" y="0" flags="0x204"/>
      <component glyphName="dieresis" x="112" y="0" flags="0x4"/>
    </TTGlyph>
    <TTGlyph name="Wgrave" xMin="14" yMin="0" xMax="493" yMax="802">
      <component glyphName="W" x="0" y="0" flags="0x204"/>
      <component glyphName="grave" x="63" y="63" flags="0x4"/>
    </TTGlyph>
    <TTGlyph name="X" xMin="18" yMin="0" xMax="444" yMax="600">
      <contour>
        <pt x="203" y="169" on="1"/>
        <pt x="202" y="167" on="0"/>
        <pt x="192" y="150" on="0"/>
        <pt x="190" y="147" on="1"/>
        <pt x="182" y="136" on="0"/>
        <pt x="169" y="92" on="0"/>
        <pt x="151" y="49" on="0"/>
        <pt x="127" y="16" on="0"/>
        <pt x="110" y="16" on="1"/>
        <pt x="104" y="16" on="0"/>
        <pt x="87" y="21" on="0"/>
        <pt x="73" y="30" on="0"/>
        <pt x="63" y="43" on="0"/>
        <pt x="63" y="50" on="1"/>
        <pt x="63" y="64" on="0"/>
        <pt x="76" y="84" on="0"/>
        <pt x="76" y="97" on="1"/>
        <pt x="139" y="227" on="1"/>
        <pt x="140" y="229" on="0"/>
        <pt x="143" y="239" on="0"/>
        <pt x="144" y="241" on="1"/>
        <pt x="144" y="244" on="1"/>
        <pt x="144" y="245" on="1"/>
        <pt x="124" y="273" on="0"/>
        <pt x="85" y="336" on="0"/>
        <pt x="53" y="390" on="0"/>
        <pt x="30" y="431" on="0"/>
        <pt x="26" y="439" on="1"/>
        <pt x="18" y="449" on="0"/>
        <pt x="18" y="471" on="0"/>
        <pt x="29" y="488" on="0"/>
        <pt x="49" y="499" on="0"/>
        <pt x="61" y="499" on="1"/>
        <pt x="78" y="499" on="0"/>
        <pt x="98" y="487" on="0"/>
        <pt x="105" y="473" on="1"/>
        <pt x="122" y="437" on="0"/>
        <pt x="156" y="371" on="0"/>
        <pt x="178" y="338" on="1"/>
        <pt x="179" y="338" on="1"/>
        <pt x="185" y="345" on="0"/>
        <pt x="196" y="373" on="0"/>
        <pt x="209" y="427" on="0"/>
        <pt x="229" y="511" on="0"/>
        <pt x="245" y="574" on="1"/>
        <pt x="247" y="583" on="0"/>
        <pt x="268" y="600" on="0"/>
        <pt x="276" y="600" on="1"/>
        <pt x="280" y="600" on="1"/>
        <pt x="294" y="597" on="0"/>
        <pt x="310" y="594" on="0"/>
        <pt x="318" y="587" on="0"/>
        <pt x="321" y="571" on="0"/>
        <pt x="322" y="556" on="1"/>
        <pt x="321" y="541" on="0"/>
        <pt x="310" y="491" on="0"/>
        <pt x="295" y="431" on="0"/>
        <pt x="277" y="367" on="0"/>
        <pt x="259" y="312" on="0"/>
        <pt x="245" y="270" on="0"/>
        <pt x="241" y="262" on="1"/>
        <pt x="241" y="253" on="1"/>
        <pt x="435" y="59" on="1"/>
        <pt x="441" y="53" on="0"/>
        <pt x="444" y="42" on="0"/>
        <pt x="444" y="35" on="1"/>
        <pt x="444" y="19" on="0"/>
        <pt x="425" y="0" on="0"/>
        <pt x="410" y="0" on="1"/>
        <pt x="396" y="0" on="0"/>
        <pt x="365" y="15" on="0"/>
        <pt x="354" y="26" on="1"/>
        <pt x="211" y="169" on="1"/>
      </contour>
    </TTGlyph>
    <TTGlyph name="Y" xMin="6" yMin="-44" xMax="399" yMax="670">
      <contour>
        <pt x="226" y="-6" on="1"/>
        <pt x="227" y="-1" on="0"/>
        <pt x="230" y="27" on="0"/>
        <pt x="235" y="58" on="0"/>
        <pt x="239" y="85" on="0"/>
        <pt x="240" y="91" on="1"/>
        <pt x="245" y="136" on="0"/>
        <pt x="260" y="225" on="0"/>
        <pt x="260" y="270" on="1"/>
        <pt x="260" y="285" on="1"/>
        <pt x="244" y="293" on="1"/>
        <pt x="240" y="295" on="0"/>
        <pt x="208" y="317" on="0"/>
        <pt x="169" y="345" on="0"/>
        <pt x="131" y="374" on="0"/>
        <pt x="121" y="383" on="1"/>
        <pt x="115" y="387" on="0"/>
        <pt x="88" y="410" on="0"/>
        <pt x="59" y="437" on="0"/>
        <pt x="33" y="462" on="0"/>
        <pt x="28" y="467" on="1"/>
        <pt x="20" y="475" on="0"/>
        <pt x="6" y="496" on="0"/>
        <pt x="6" y="507" on="1"/>
        <pt x="6" y="524" on="0"/>
        <pt x="32" y="539" on="0"/>
        <pt x="47" y="539" on="1"/>
        <pt x="57" y="539" on="0"/>
        <pt x="79" y="534" on="0"/>
        <pt x="87" y="526" on="1"/>
        <pt x="125" y="484" on="0"/>
        <pt x="219" y="400" on="0"/>
        <pt x="268" y="370" on="1"/>
        <pt x="272" y="383" on="1"/>
        <pt x="314" y="653" on="1"/>
        <pt x="316" y="664" on="0"/>
        <pt x="337" y="670" on="0"/>
        <pt x="346" y="670" on="1"/>
        <pt x="372" y="670" on="0"/>
        <pt x="399" y="645" on="0"/>
        <pt x="399" y="616" on="1"/>
        <pt x="399" y="614" on="1"/>
        <pt x="399" y="613" on="0"/>
        <pt x="396" y="605" on="0"/>
        <pt x="393" y="595" on="0"/>
        <pt x="391" y="586" on="0"/>
        <pt x="391" y="585" on="1"/>
        <pt x="388" y="573" on="0"/>
        <pt x="378" y="504" on="0"/>
        <pt x="366" y="409" on="0"/>
        <pt x="352" y="295" on="0"/>
        <pt x="338" y="180" on="0"/>
        <pt x="324" y="73" on="0"/>
        <pt x="318" y="32" on="1"/>
        <pt x="319" y="22" on="0"/>
        <pt x="320" y="-4" on="0"/>
        <pt x="312" y="-28" on="0"/>
        <pt x="295" y="-44" on="0"/>
        <pt x="280" y="-44" on="1"/>
        <pt x="261" y="-44" on="0"/>
        <pt x="232" y="-24" on="0"/>
      </contour>
    </TTGlyph>
    <TTGlyph name="Yacute" xMin="6" yMin="-44" xMax="399" yMax="770">
      <component glyphName="Y" x="0" y="0" flags="0x204"/>
      <component glyphName="acute" x="54" y="0" flags="0x4"/>
    </TTGlyph>
    <TTGlyph name="Ycircumflex" xMin="6" yMin="-44" xMax="399" yMax="903">
      <component glyphName="Y" x="0" y="0" flags="0x204"/>
      <component glyphName="circumflex" x="20" y="26" flags="0x4"/>
    </TTGlyph>
    <TTGlyph name="Ydieresis" xMin="6" yMin="-44" xMax="399" yMax="748">
      <component glyphName="Y" x="0" y="0" flags="0x204"/>
      <component glyphName="dieresis" x="31" y="0" flags="0x4"/>
    </TTGlyph>
    <TTGlyph name="Ygrave" xMin="6" yMin="-44" xMax="399" yMax="788">
      <component glyphName="Y" x="0" y="0" flags="0x204"/>
      <component glyphName="grave" x="10" y="49" flags="0x4"/>
    </TTGlyph>
    <TTGlyph name="Z" xMin="23" yMin="-1" xMax="732" yMax="495">
      <contour>
        <pt x="74" y="38" on="1"/>
        <pt x="74" y="40" on="0"/>
        <pt x="77" y="49" on="0"/>
        <pt x="78" y="51" on="1"/>
        <pt x="82" y="58" on="0"/>
        <pt x="108" y="96" on="0"/>
        <pt x="161" y="178" on="0"/>
        <pt x="247" y="313" on="0"/>
        <pt x="313" y="418" on="1"/>
        <pt x="285" y="418" on="1"/>
        <pt x="90" y="388" on="1"/>
        <pt x="80" y="388" on="1"/>
        <pt x="73" y="388" on="0"/>
        <pt x="53" y="395" on="0"/>
        <pt x="35" y="406" on="0"/>
        <pt x="23" y="420" on="0"/>
        <pt x="23" y="428" on="1"/>
        <pt x="23" y="443" on="0"/>
        <pt x="39" y="458" on="0"/>
        <pt x="63" y="465" on="0"/>
        <pt x="89" y="465" on="0"/>
        <pt x="99" y="465" on="1"/>
        <pt x="314" y="494" on="1"/>
        <pt x="315" y="494" on="0"/>
        <pt x="339" y="495" on="0"/>
        <pt x="344" y="495" on="1"/>
        <pt x="357" y="495" on="0"/>
        <pt x="387" y="495" on="0"/>
        <pt x="412" y="488" on="0"/>
        <pt x="428" y="470" on="0"/>
        <pt x="428" y="452" on="1"/>
        <pt x="428" y="442" on="0"/>
        <pt x="415" y="423" on="0"/>
        <pt x="408" y="418" on="1"/>
        <pt x="243" y="153" on="1"/>
        <pt x="228" y="143" on="0"/>
        <pt x="211" y="102" on="0"/>
        <pt x="200" y="88" on="1"/>
        <pt x="202" y="85" on="0"/>
        <pt x="208" y="84" on="0"/>
        <pt x="211" y="84" on="1"/>
        <pt x="217" y="84" on="1"/>
        <pt x="686" y="148" on="1"/>
        <pt x="699" y="148" on="0"/>
        <pt x="732" y="132" on="0"/>
        <pt x="732" y="115" on="1"/>
        <pt x="732" y="100" on="0"/>
        <pt x="720" y="81" on="0"/>
        <pt x="707" y="72" on="1"/>
        <pt x="681" y="72" on="0"/>
        <pt x="594" y="69" on="0"/>
        <pt x="461" y="54" on="0"/>
        <pt x="275" y="25" on="0"/>
        <pt x="150" y="0" on="1"/>
        <pt x="147" y="-1" on="0"/>
        <pt x="143" y="-1" on="1"/>
        <pt x="134" y="-1" on="1"/>
        <pt x="127" y="-1" on="0"/>
        <pt x="106" y="3" on="0"/>
        <pt x="87" y="11" on="0"/>
        <pt x="74" y="25" on="0"/>
        <pt x="74" y="36" on="1"/>
      </contour>
    </TTGlyph>
    <TTGlyph name="Zacute" xMin="23" yMin="-1" xMax="732" yMax="770">
      <component glyphName="Z" x="0" y="0" flags="0x204"/>
      <component glyphName="acute" x="216" y="0" flags="0x4"/>
    </TTGlyph>
    <TTGlyph name="Zcaron" xMin="23" yMin="-1" xMax="732" yMax="777">
      <component glyphName="Z" x="0" y="0" flags="0x204"/>
      <component glyphName="caron" x="190" y="0" flags="0x4"/>
    </TTGlyph>
    <TTGlyph name="Zdotaccent" xMin="23" yMin="-1" xMax="732" yMax="687">
      <component glyphName="Z" x="0" y="0" flags="0x204"/>
      <component glyphName="dotaccent" x="220" y="46" flags="0x4"/>
    </TTGlyph>
    <TTGlyph name="a" xMin="18" yMin="0" xMax="370" yMax="576">
      <contour>
        <pt x="256" y="279" on="1"/>
        <pt x="247" y="263" on="0"/>
        <pt x="224" y="218" on="0"/>
        <pt x="198" y="167" on="0"/>
        <pt x="167" y="116" on="0"/>
        <pt x="134" y="74" on="0"/>
        <pt x="98" y="45" on="0"/>
        <pt x="79" y="42" on="1"/>
        <pt x="71" y="42" on="0"/>
        <pt x="51" y="45" on="0"/>
        <pt x="31" y="52" on="0"/>
        <pt x="18" y="65" on="0"/>
        <pt x="18" y="76" on="1"/>
        <pt x="19" y="178" on="0"/>
        <pt x="47" y="345" on="0"/>
        <pt x="107" y="472" on="0"/>
        <pt x="201" y="556" on="0"/>
        <pt x="268" y="574" on="1"/>
        <pt x="270" y="574" on="0"/>
        <pt x="281" y="575" on="0"/>
        <pt x="283" y="575" on="1"/>
        <pt x="313" y="576" on="0"/>
        <pt x="340" y="519" on="0"/>
        <pt x="353" y="396" on="0"/>
        <pt x="358" y="203" on="0"/>
        <pt x="366" y="68" on="1"/>
        <pt x="369" y="57" on="0"/>
        <pt x="370" y="41" on="0"/>
        <pt x="370" y="30" on="1"/>
        <pt x="370" y="15" on="0"/>
        <pt x="352" y="0" on="0"/>
        <pt x="338" y="0" on="1"/>
        <pt x="309" y="0" on="0"/>
        <pt x="285" y="32" on="0"/>
        <pt x="281" y="59" on="1"/>
        <pt x="281" y="60" on="0"/>
        <pt x="278" y="90" on="0"/>
        <pt x="273" y="129" on="0"/>
        <pt x="269" y="169" on="0"/>
        <pt x="268" y="182" on="1"/>
        <pt x="268" y="186" on="1"/>
        <pt x="266" y="196" on="0"/>
        <pt x="265" y="226" on="0"/>
        <pt x="263" y="240" on="1"/>
        <pt x="261" y="257" on="0"/>
        <pt x="260" y="274" on="1"/>
      </contour>
      <contour>
        <pt x="234" y="477" on="1"/>
        <pt x="207" y="457" on="0"/>
        <pt x="155" y="389" on="0"/>
        <pt x="144" y="357" on="1"/>
        <pt x="139" y="342" on="0"/>
        <pt x="127" y="290" on="0"/>
        <pt x="118" y="239" on="0"/>
        <pt x="112" y="196" on="0"/>
        <pt x="112" y="190" on="1"/>
        <pt x="113" y="190" on="0"/>
        <pt x="116" y="194" on="0"/>
        <pt x="117" y="195" on="1"/>
        <pt x="179" y="255" on="0"/>
        <pt x="230" y="394" on="0"/>
      </contour>
    </TTGlyph>
    <TTGlyph name="aacute" xMin="18" yMin="0" xMax="370" yMax="770">
      <component glyphName="a" x="0" y="0" flags="0x204"/>
      <component glyphName="acute" x="42" y="0" flags="0x4"/>
    </TTGlyph>
    <TTGlyph name="abreve" xMin="18" yMin="0" xMax="370" yMax="742">
      <component glyphName="a" x="0" y="0" flags="0x204"/>
      <component glyphName="breve" x="69" y="0" flags="0x4"/>
    </TTGlyph>
    <TTGlyph name="acircumflex" xMin="18" yMin="0" xMax="370" yMax="877">
      <component glyphName="a" x="0" y="0" flags="0x204"/>
      <component glyphName="circumflex" x="30" y="0" flags="0x4"/>
    </TTGlyph>
    <TTGlyph name="acute" xMin="84" yMin="610" xMax="226" yMax="770">
      <contour>
        <pt x="87" y="629" on="1"/>
        <pt x="84" y="655" on="0"/>
        <pt x="99" y="685" on="0"/>
        <pt x="124" y="709" on="0"/>
        <pt x="154" y="735" on="0"/>
        <pt x="168" y="758" on="1"/>
        <pt x="183" y="770" on="0"/>
        <pt x="209" y="762" on="0"/>
        <pt x="220" y="745" on="1"/>
        <pt x="226" y="736" on="0"/>
        <pt x="225" y="721" on="0"/>
        <pt x="217" y="706" on="0"/>
        <pt x="206" y="694" on="0"/>
        <pt x="202" y="688" on="1"/>
        <pt x="194" y="678" on="0"/>
        <pt x="164" y="643" on="0"/>
        <pt x="130" y="616" on="0"/>
        <pt x="97" y="610" on="0"/>
      </contour>
    </TTGlyph>
    <TTGlyph name="adieresis" xMin="18" yMin="0" xMax="370" yMax="748">
      <component glyphName="a" x="0" y="0" flags="0x204"/>
      <component glyphName="dieresis" x="53" y="0" flags="0x4"/>
    </TTGlyph>
    <TTGlyph name="ae" xMin="18" yMin="0" xMax="708" yMax="576">
      <component glyphName="a" x="0" y="0" flags="0x4"/>
      <component glyphName="e" x="267" y="46" flags="0x4"/>
    </TTGlyph>
    <TTGlyph name="aeacute" xMin="18" yMin="0" xMax="708" yMax="770">
      <component glyphName="a" x="0" y="0" flags="0x4"/>
      <component glyphName="e" x="267" y="46" flags="0x4"/>
      <component glyphName="acute" x="203" y="0" flags="0x4"/>
    </TTGlyph>
    <TTGlyph name="agrave" xMin="18" yMin="0" xMax="370" yMax="739">
      <component glyphName="a" x="0" y="0" flags="0x204"/>
      <component glyphName="grave" x="41" y="0" flags="0x4"/>
    </TTGlyph>
    <TTGlyph name="amacron" xMin="18" yMin="0" xMax="370" yMax="774">
      <component glyphName="a" x="0" y="0" flags="0x204"/>
      <component glyphName="macron" x="7" y="0" flags="0x4"/>
    </TTGlyph>
    <TTGlyph name="ampersand" xMin="32" yMin="-44" xMax="312" yMax="754">
      <contour>
        <pt x="309" y="220" on="1"/>
        <pt x="312" y="215" on="0"/>
        <pt x="307" y="198" on="0"/>
        <pt x="298" y="180" on="0"/>
        <pt x="287" y="166" on="0"/>
        <pt x="282" y="165" on="1"/>
        <pt x="256" y="157" on="0"/>
        <pt x="226" y="163" on="1"/>
        <pt x="169" y="173" on="0"/>
        <pt x="86" y="222" on="0"/>
        <pt x="58" y="268" on="1"/>
        <pt x="55" y="271" on="0"/>
        <pt x="44" y="293" on="0"/>
        <pt x="43" y="295" on="1"/>
        <pt x="32" y="324" on="0"/>
        <pt x="54" y="376" on="0"/>
        <pt x="84" y="386" on="1"/>
        <pt x="88" y="388" on="0"/>
        <pt x="104" y="391" on="0"/>
        <pt x="124" y="394" on="0"/>
        <pt x="142" y="397" on="0"/>
        <pt x="148" y="399" on="1"/>
        <pt x="131" y="420" on="0"/>
        <pt x="84" y="451" on="0"/>
        <pt x="57" y="477" on="1"/>
        <pt x="55" y="479" on="0"/>
        <pt x="52" y="485" on="0"/>
        <pt x="51" y="486" on="1"/>
        <pt x="35" y="513" on="0"/>
        <pt x="62" y="521" on="1"/>
        <pt x="71" y="529" on="0"/>
        <pt x="110" y="546" on="0"/>
        <pt x="158" y="559" on="0"/>
        <pt x="211" y="564" on="0"/>
        <pt x="257" y="557" on="0"/>
        <pt x="292" y="534" on="0"/>
        <pt x="298" y="512" on="1"/>
        <pt x="307" y="501" on="0"/>
        <pt x="291" y="484" on="0"/>
        <pt x="281" y="480" on="1"/>
        <pt x="268" y="475" on="0"/>
        <pt x="243" y="476" on="0"/>
        <pt x="216" y="478" on="0"/>
        <pt x="188" y="478" on="0"/>
        <pt x="172" y="473" on="1"/>
        <pt x="166" y="470" on="1"/>
        <pt x="181" y="458" on="0"/>
        <pt x="218" y="435" on="0"/>
        <pt x="253" y="412" on="0"/>
        <pt x="282" y="390" on="0"/>
        <pt x="290" y="379" on="1"/>
        <pt x="296" y="370" on="0"/>
        <pt x="291" y="350" on="0"/>
        <pt x="280" y="347" on="1"/>
        <pt x="262" y="341" on="0"/>
        <pt x="232" y="337" on="0"/>
        <pt x="202" y="335" on="0"/>
        <pt x="172" y="332" on="0"/>
        <pt x="154" y="326" on="1"/>
        <pt x="137" y="318" on="0"/>
        <pt x="147" y="290" on="0"/>
        <pt x="179" y="260" on="0"/>
        <pt x="221" y="235" on="0"/>
        <pt x="237" y="231" on="1"/>
        <pt x="246" y="228" on="0"/>
        <pt x="268" y="231" on="1"/>
        <pt x="269" y="231" on="0"/>
        <pt x="286" y="233" on="0"/>
        <pt x="287" y="234" on="1"/>
        <pt x="297" y="234" on="0"/>
        <pt x="304" y="227" on="0"/>
      </contour>
      <contour>
        <pt x="159" y="-17" on="1"/>
        <pt x="155" y="3" on="0"/>
        <pt x="149" y="59" on="0"/>
        <pt x="144" y="79" on="1"/>
        <pt x="146" y="92" on="0"/>
        <pt x="163" y="110" on="0"/>
        <pt x="176" y="113" on="1"/>
        <pt x="201" y="117" on="0"/>
        <pt x="227" y="91" on="0"/>
        <pt x="230" y="70" on="1"/>
        <pt x="232" y="61" on="0"/>
        <pt x="239" y="23" on="0"/>
        <pt x="240" y="-15" on="0"/>
        <pt x="231" y="-44" on="0"/>
        <pt x="218" y="-44" on="1"/>
        <pt x="202" y="-44" on="0"/>
        <pt x="182" y="-44" on="0"/>
        <pt x="168" y="-40" on="0"/>
        <pt x="161" y="-28" on="0"/>
      </contour>
      <contour>
        <pt x="119" y="667" on="1"/>
        <pt x="118" y="676" on="0"/>
        <pt x="118" y="686" on="0"/>
        <pt x="118" y="695" on="0"/>
        <pt x="119" y="706" on="0"/>
        <pt x="118" y="716" on="1"/>
        <pt x="119" y="729" on="0"/>
        <pt x="137" y="748" on="0"/>
        <pt x="150" y="750" on="1"/>
        <pt x="176" y="754" on="0"/>
        <pt x="199" y="729" on="0"/>
        <pt x="204" y="709" on="1"/>
        <pt x="205" y="699" on="0"/>
        <pt x="209" y="661" on="0"/>
        <pt x="208" y="622" on="0"/>
        <pt x="197" y="593" on="0"/>
        <pt x="184" y="593" on="1"/>
        <pt x="167" y="593" on="0"/>
        <pt x="145" y="609" on="0"/>
        <pt x="130" y="631" on="0"/>
        <pt x="122" y="656" on="0"/>
      </contour>
    </TTGlyph>
    <TTGlyph name="aogonek" xMin="18" yMin="-236" xMax="417" yMax="576">
      <component glyphName="a" x="0" y="0" flags="0x204"/>
      <component glyphName="ogonek" x="172" y="12" flags="0x4"/>
    </TTGlyph>
    <TTGlyph name="aring" xMin="18" yMin="0" xMax="370" yMax="720">
      <component glyphName="a" x="0" y="0" flags="0x204"/>
      <component glyphName="ring" x="86" y="-31" flags="0x4"/>
    </TTGlyph>
    <TTGlyph name="asciicircum" xMin="28" yMin="644" xMax="316" yMax="877">
      <contour>
        <pt x="115" y="821" on="1"/>
        <pt x="116" y="823" on="0"/>
        <pt x="121" y="836" on="0"/>
        <pt x="127" y="850" on="0"/>
        <pt x="133" y="863" on="0"/>
        <pt x="134" y="866" on="1"/>
        <pt x="138" y="874" on="0"/>
        <pt x="159" y="877" on="0"/>
        <pt x="169" y="877" on="1"/>
        <pt x="177" y="877" on="0"/>
        <pt x="189" y="874" on="0"/>
        <pt x="195" y="868" on="1"/>
        <pt x="198" y="863" on="0"/>
        <pt x="215" y="838" on="0"/>
        <pt x="235" y="811" on="0"/>
        <pt x="252" y="786" on="0"/>
        <pt x="255" y="782" on="1"/>
        <pt x="256" y="781" on="0"/>
        <pt x="262" y="774" on="0"/>
        <pt x="262" y="773" on="1"/>
        <pt x="265" y="769" on="0"/>
        <pt x="279" y="748" on="0"/>
        <pt x="295" y="724" on="0"/>
        <pt x="309" y="702" on="0"/>
        <pt x="312" y="698" on="1"/>
        <pt x="315" y="693" on="0"/>
        <pt x="316" y="688" on="0"/>
        <pt x="316" y="683" on="1"/>
        <pt x="316" y="672" on="0"/>
        <pt x="298" y="664" on="0"/>
        <pt x="283" y="664" on="1"/>
        <pt x="270" y="664" on="0"/>
        <pt x="249" y="675" on="0"/>
        <pt x="244" y="683" on="1"/>
        <pt x="177" y="782" on="1"/>
        <pt x="173" y="779" on="1"/>
        <pt x="170" y="775" on="0"/>
        <pt x="164" y="761" on="0"/>
        <pt x="149" y="733" on="0"/>
        <pt x="123" y="688" on="0"/>
        <pt x="100" y="652" on="1"/>
        <pt x="98" y="650" on="0"/>
        <pt x="81" y="644" on="0"/>
        <pt x="78" y="644" on="1"/>
        <pt x="72" y="644" on="0"/>
        <pt x="53" y="649" on="0"/>
        <pt x="37" y="657" on="0"/>
        <pt x="28" y="668" on="0"/>
        <pt x="32" y="675" on="1"/>
      </contour>
    </TTGlyph>
    <TTGlyph name="asciitilde" xMin="39" yMin="476" xMax="329" yMax="653">
      <contour>
        <pt x="39" y="502" on="1"/>
        <pt x="39" y="507" on="0"/>
        <pt x="40" y="514" on="0"/>
        <pt x="41" y="519" on="1"/>
        <pt x="48" y="540" on="0"/>
        <pt x="63" y="582" on="0"/>
        <pt x="84" y="619" on="0"/>
        <pt x="111" y="647" on="0"/>
        <pt x="129" y="653" on="1"/>
        <pt x="136" y="653" on="0"/>
        <pt x="148" y="650" on="0"/>
        <pt x="154" y="642" on="1"/>
        <pt x="211" y="570" on="1"/>
        <pt x="219" y="565" on="0"/>
        <pt x="230" y="551" on="0"/>
        <pt x="240" y="551" on="1"/>
        <pt x="247" y="551" on="0"/>
        <pt x="259" y="573" on="0"/>
        <pt x="262" y="578" on="1"/>
        <pt x="268" y="587" on="0"/>
        <pt x="277" y="609" on="0"/>
        <pt x="288" y="629" on="0"/>
        <pt x="301" y="642" on="0"/>
        <pt x="311" y="642" on="1"/>
        <pt x="322" y="642" on="0"/>
        <pt x="329" y="624" on="0"/>
        <pt x="329" y="610" on="1"/>
        <pt x="329" y="589" on="0"/>
        <pt x="315" y="542" on="0"/>
        <pt x="292" y="504" on="0"/>
        <pt x="264" y="479" on="0"/>
        <pt x="249" y="479" on="1"/>
        <pt x="231" y="478" on="0"/>
        <pt x="199" y="496" on="0"/>
        <pt x="170" y="523" on="0"/>
        <pt x="142" y="553" on="0"/>
        <pt x="129" y="564" on="1"/>
        <pt x="119" y="564" on="0"/>
        <pt x="102" y="536" on="0"/>
        <pt x="87" y="503" on="0"/>
        <pt x="72" y="476" on="0"/>
        <pt x="65" y="476" on="1"/>
        <pt x="58" y="476" on="0"/>
        <pt x="39" y="490" on="0"/>
      </contour>
    </TTGlyph>
    <TTGlyph name="asterisk" xMin="14" yMin="83" xMax="424" yMax="498">
      <contour>
        <pt x="59" y="186" on="1"/>
        <pt x="66" y="191" on="0"/>
        <pt x="79" y="201" on="0"/>
        <pt x="86" y="206" on="1"/>
        <pt x="66" y="201" on="0"/>
        <pt x="48" y="201" on="1"/>
        <pt x="14" y="201" on="0"/>
        <pt x="14" y="236" on="1"/>
        <pt x="14" y="245" on="0"/>
        <pt x="21" y="259" on="0"/>
        <pt x="18" y="268" on="1"/>
        <pt x="22" y="269" on="0"/>
        <pt x="42" y="272" on="0"/>
        <pt x="44" y="272" on="1"/>
        <pt x="78" y="272" on="1"/>
        <pt x="88" y="274" on="0"/>
        <pt x="117" y="281" on="0"/>
        <pt x="131" y="284" on="1"/>
        <pt x="114" y="301" on="0"/>
        <pt x="71" y="329" on="0"/>
        <pt x="56" y="349" on="1"/>
        <pt x="37" y="375" on="0"/>
        <pt x="63" y="397" on="1"/>
        <pt x="71" y="402" on="0"/>
        <pt x="86" y="407" on="0"/>
        <pt x="92" y="415" on="1"/>
        <pt x="95" y="413" on="0"/>
        <pt x="110" y="398" on="0"/>
        <pt x="112" y="396" on="1"/>
        <pt x="112" y="395" on="0"/>
        <pt x="118" y="388" on="0"/>
        <pt x="125" y="379" on="0"/>
        <pt x="131" y="371" on="0"/>
        <pt x="132" y="371" on="1"/>
        <pt x="139" y="363" on="0"/>
        <pt x="163" y="342" on="0"/>
        <pt x="174" y="333" on="1"/>
        <pt x="187" y="475" on="1"/>
        <pt x="189" y="492" on="0"/>
        <pt x="201" y="498" on="0"/>
        <pt x="215" y="498" on="1"/>
        <pt x="217" y="498" on="0"/>
        <pt x="228" y="497" on="0"/>
        <pt x="230" y="497" on="1"/>
        <pt x="238" y="491" on="0"/>
        <pt x="244" y="480" on="1"/>
        <pt x="244" y="444" on="1"/>
        <pt x="244" y="415" on="0"/>
        <pt x="241" y="359" on="0"/>
        <pt x="240" y="330" on="1"/>
        <pt x="358" y="407" on="1"/>
        <pt x="372" y="415" on="0"/>
        <pt x="385" y="409" on="0"/>
        <pt x="393" y="398" on="1"/>
        <pt x="395" y="396" on="0"/>
        <pt x="400" y="387" on="0"/>
        <pt x="401" y="386" on="1"/>
        <pt x="403" y="374" on="0"/>
        <pt x="396" y="366" on="1"/>
        <pt x="393" y="363" on="0"/>
        <pt x="371" y="345" on="0"/>
        <pt x="368" y="343" on="1"/>
        <pt x="363" y="339" on="0"/>
        <pt x="354" y="333" on="0"/>
        <pt x="349" y="330" on="1"/>
        <pt x="387" y="336" on="1"/>
        <pt x="395" y="334" on="0"/>
        <pt x="408" y="332" on="0"/>
        <pt x="418" y="327" on="0"/>
        <pt x="424" y="316" on="0"/>
        <pt x="424" y="305" on="1"/>
        <pt x="424" y="302" on="1"/>
        <pt x="415" y="293" on="0"/>
        <pt x="395" y="286" on="0"/>
        <pt x="374" y="281" on="0"/>
        <pt x="354" y="275" on="0"/>
        <pt x="344" y="268" on="1"/>
        <pt x="274" y="251" on="1"/>
        <pt x="371" y="164" on="1"/>
        <pt x="377" y="150" on="0"/>
        <pt x="385" y="128" on="0"/>
        <pt x="369" y="115" on="1"/>
        <pt x="368" y="115" on="0"/>
        <pt x="367" y="114" on="1"/>
        <pt x="355" y="115" on="0"/>
        <pt x="336" y="126" on="0"/>
        <pt x="320" y="140" on="0"/>
        <pt x="302" y="153" on="0"/>
        <pt x="291" y="157" on="1"/>
        <pt x="240" y="196" on="1"/>
        <pt x="243" y="178" on="0"/>
        <pt x="248" y="142" on="0"/>
        <pt x="248" y="125" on="1"/>
        <pt x="248" y="106" on="0"/>
        <pt x="222" y="83" on="0"/>
        <pt x="204" y="83" on="1"/>
        <pt x="201" y="83" on="1"/>
        <pt x="179" y="104" on="1"/>
        <pt x="180" y="127" on="0"/>
        <pt x="180" y="176" on="0"/>
        <pt x="176" y="200" on="1"/>
        <pt x="162" y="186" on="0"/>
        <pt x="133" y="158" on="0"/>
        <pt x="118" y="145" on="1"/>
        <pt x="103" y="134" on="0"/>
        <pt x="69" y="139" on="0"/>
        <pt x="58" y="154" on="1"/>
        <pt x="55" y="157" on="1"/>
        <pt x="59" y="186" on="1"/>
      </contour>
    </TTGlyph>
    <TTGlyph name="at" xMin="22" yMin="0" xMax="748" yMax="679">
      <contour>
        <pt x="22" y="190" on="1"/>
        <pt x="22" y="227" on="0"/>
        <pt x="54" y="328" on="0"/>
        <pt x="108" y="437" on="0"/>
        <pt x="182" y="543" on="0"/>
        <pt x="264" y="627" on="0"/>
        <pt x="352" y="679" on="0"/>
        <pt x="394" y="679" on="1"/>
        <pt x="426" y="679" on="0"/>
        <pt x="467" y="640" on="0"/>
        <pt x="492" y="577" on="0"/>
        <pt x="504" y="500" on="0"/>
        <pt x="508" y="423" on="0"/>
        <pt x="507" y="355" on="0"/>
        <pt x="507" y="334" on="1"/>
        <pt x="507" y="311" on="0"/>
        <pt x="499" y="259" on="0"/>
        <pt x="477" y="214" on="0"/>
        <pt x="440" y="185" on="0"/>
        <pt x="412" y="185" on="1"/>
        <pt x="374" y="185" on="0"/>
        <pt x="338" y="230" on="0"/>
        <pt x="326" y="262" on="1"/>
        <pt x="322" y="271" on="0"/>
        <pt x="322" y="279" on="0"/>
        <pt x="317" y="288" on="1"/>
        <pt x="316" y="287" on="0"/>
        <pt x="313" y="284" on="0"/>
        <pt x="313" y="283" on="1"/>
        <pt x="304" y="266" on="0"/>
        <pt x="283" y="229" on="0"/>
        <pt x="256" y="197" on="0"/>
        <pt x="221" y="177" on="0"/>
        <pt x="199" y="177" on="1"/>
        <pt x="178" y="177" on="0"/>
        <pt x="147" y="208" on="0"/>
        <pt x="147" y="228" on="1"/>
        <pt x="147" y="258" on="0"/>
        <pt x="171" y="316" on="0"/>
        <pt x="208" y="368" on="0"/>
        <pt x="251" y="415" on="0"/>
        <pt x="270" y="435" on="1"/>
        <pt x="284" y="449" on="0"/>
        <pt x="329" y="473" on="0"/>
        <pt x="346" y="473" on="1"/>
        <pt x="368" y="473" on="0"/>
        <pt x="396" y="447" on="0"/>
        <pt x="410" y="431" on="1"/>
        <pt x="410" y="428" on="0"/>
        <pt x="411" y="408" on="0"/>
        <pt x="411" y="406" on="1"/>
        <pt x="411" y="377" on="0"/>
        <pt x="401" y="322" on="0"/>
        <pt x="401" y="293" on="1"/>
        <pt x="401" y="286" on="0"/>
        <pt x="406" y="262" on="0"/>
        <pt x="414" y="257" on="1"/>
        <pt x="425" y="266" on="0"/>
        <pt x="436" y="293" on="0"/>
        <pt x="440" y="324" on="0"/>
        <pt x="440" y="354" on="0"/>
        <pt x="440" y="366" on="1"/>
        <pt x="442" y="399" on="0"/>
        <pt x="446" y="473" on="0"/>
        <pt x="439" y="537" on="0"/>
        <pt x="412" y="585" on="0"/>
        <pt x="384" y="592" on="1"/>
        <pt x="355" y="592" on="0"/>
        <pt x="290" y="548" on="0"/>
        <pt x="230" y="484" on="0"/>
        <pt x="181" y="414" on="0"/>
        <pt x="169" y="388" on="1"/>
        <pt x="166" y="381" on="0"/>
        <pt x="150" y="343" on="0"/>
        <pt x="132" y="300" on="0"/>
        <pt x="117" y="261" on="0"/>
        <pt x="114" y="253" on="1"/>
        <pt x="111" y="243" on="0"/>
        <pt x="107" y="229" on="0"/>
        <pt x="105" y="216" on="0"/>
        <pt x="105" y="203" on="0"/>
        <pt x="105" y="194" on="1"/>
        <pt x="105" y="158" on="0"/>
        <pt x="134" y="109" on="0"/>
        <pt x="181" y="77" on="0"/>
        <pt x="241" y="63" on="0"/>
        <pt x="272" y="63" on="1"/>
        <pt x="292" y="63" on="1"/>
        <pt x="299" y="64" on="0"/>
        <pt x="326" y="70" on="0"/>
        <pt x="353" y="75" on="0"/>
        <pt x="374" y="79" on="0"/>
        <pt x="376" y="80" on="1"/>
        <pt x="616" y="195" on="1"/>
        <pt x="627" y="200" on="0"/>
        <pt x="647" y="221" on="0"/>
        <pt x="668" y="242" on="0"/>
        <pt x="690" y="258" on="0"/>
        <pt x="702" y="258" on="1"/>
        <pt x="715" y="258" on="0"/>
        <pt x="748" y="244" on="0"/>
        <pt x="748" y="228" on="1"/>
        <pt x="748" y="219" on="0"/>
        <pt x="737" y="202" on="0"/>
        <pt x="720" y="186" on="0"/>
        <pt x="703" y="173" on="0"/>
        <pt x="697" y="169" on="1"/>
        <pt x="691" y="165" on="0"/>
        <pt x="671" y="151" on="0"/>
        <pt x="650" y="137" on="0"/>
        <pt x="634" y="127" on="0"/>
        <pt x="633" y="127" on="1"/>
        <pt x="625" y="122" on="0"/>
        <pt x="584" y="102" on="0"/>
        <pt x="537" y="79" on="0"/>
        <pt x="494" y="59" on="0"/>
        <pt x="485" y="55" on="1"/>
        <pt x="473" y="52" on="0"/>
        <pt x="452" y="38" on="0"/>
        <pt x="439" y="34" on="1"/>
        <pt x="394" y="20" on="0"/>
        <pt x="312" y="0" on="0"/>
        <pt x="264" y="0" on="1"/>
        <pt x="223" y="0" on="0"/>
        <pt x="138" y="24" on="0"/>
        <pt x="67" y="72" on="0"/>
        <pt x="22" y="143" on="0"/>
      </contour>
      <contour>
        <pt x="233" y="310" on="1"/>
        <pt x="226" y="294" on="0"/>
        <pt x="226" y="279" on="0"/>
        <pt x="235" y="279" on="0"/>
        <pt x="252" y="291" on="0"/>
        <pt x="262" y="302" on="1"/>
        <pt x="292" y="333" on="0"/>
        <pt x="301" y="361" on="0"/>
        <pt x="283" y="359" on="0"/>
        <pt x="248" y="332" on="0"/>
      </contour>
    </TTGlyph>
    <TTGlyph name="atilde" xMin="18" yMin="0" xMax="384" yMax="771">
      <component glyphName="a" x="0" y="0" flags="0x204"/>
      <component glyphName="tilde" x="55" y="118" flags="0x4"/>
    </TTGlyph>
    <TTGlyph name="b" xMin="26" yMin="-1" xMax="381" yMax="774">
      <contour>
        <pt x="26" y="334" on="1"/>
        <pt x="26" y="336" on="1"/>
        <pt x="26" y="344" on="0"/>
        <pt x="37" y="361" on="0"/>
        <pt x="43" y="367" on="1"/>
        <pt x="43" y="418" on="1"/>
        <pt x="43" y="501" on="0"/>
        <pt x="38" y="659" on="0"/>
        <pt x="30" y="743" on="1"/>
        <pt x="30" y="756" on="0"/>
        <pt x="48" y="769" on="0"/>
        <pt x="58" y="769" on="1"/>
        <pt x="86" y="774" on="0"/>
        <pt x="115" y="738" on="0"/>
        <pt x="127" y="676" on="0"/>
        <pt x="127" y="599" on="0"/>
        <pt x="124" y="527" on="0"/>
        <pt x="124" y="471" on="0"/>
        <pt x="131" y="461" on="1"/>
        <pt x="144" y="466" on="0"/>
        <pt x="145" y="465" on="0"/>
        <pt x="144" y="464" on="0"/>
        <pt x="149" y="469" on="0"/>
        <pt x="165" y="481" on="1"/>
        <pt x="187" y="498" on="0"/>
        <pt x="246" y="507" on="0"/>
        <pt x="272" y="507" on="1"/>
        <pt x="333" y="498" on="0"/>
        <pt x="381" y="441" on="0"/>
        <pt x="375" y="358" on="0"/>
        <pt x="324" y="257" on="0"/>
        <pt x="248" y="150" on="0"/>
        <pt x="156" y="45" on="0"/>
        <pt x="113" y="-1" on="1"/>
        <pt x="104" y="-1" on="0"/>
        <pt x="81" y="5" on="0"/>
        <pt x="61" y="17" on="0"/>
        <pt x="47" y="35" on="0"/>
        <pt x="47" y="47" on="1"/>
        <pt x="47" y="308" on="1"/>
      </contour>
      <contour>
        <pt x="131" y="257" on="1"/>
        <pt x="131" y="254" on="0"/>
        <pt x="132" y="232" on="0"/>
        <pt x="134" y="207" on="0"/>
        <pt x="135" y="185" on="0"/>
        <pt x="135" y="182" on="1"/>
        <pt x="135" y="179" on="0"/>
        <pt x="135" y="164" on="0"/>
        <pt x="136" y="147" on="0"/>
        <pt x="136" y="132" on="0"/>
        <pt x="136" y="129" on="1"/>
        <pt x="147" y="131" on="0"/>
        <pt x="187" y="183" on="0"/>
        <pt x="229" y="252" on="0"/>
        <pt x="265" y="322" on="0"/>
        <pt x="274" y="342" on="1"/>
        <pt x="278" y="352" on="0"/>
        <pt x="286" y="380" on="0"/>
        <pt x="289" y="409" on="0"/>
        <pt x="282" y="433" on="0"/>
        <pt x="271" y="440" on="1"/>
        <pt x="253" y="440" on="0"/>
        <pt x="212" y="422" on="0"/>
        <pt x="173" y="394" on="0"/>
        <pt x="142" y="361" on="0"/>
        <pt x="135" y="346" on="1"/>
        <pt x="134" y="341" on="0"/>
        <pt x="133" y="316" on="0"/>
        <pt x="132" y="288" on="0"/>
        <pt x="131" y="262" on="0"/>
      </contour>
    </TTGlyph>
    <TTGlyph name="backslash" xMin="10" yMin="-1" xMax="551" yMax="916">
      <contour>
        <pt x="10" y="879" on="1"/>
        <pt x="10" y="880" on="1"/>
        <pt x="10" y="897" on="0"/>
        <pt x="39" y="916" on="0"/>
        <pt x="53" y="916" on="1"/>
        <pt x="70" y="916" on="0"/>
        <pt x="91" y="901" on="0"/>
        <pt x="99" y="887" on="1"/>
        <pt x="526" y="92" on="1"/>
        <pt x="540" y="77" on="0"/>
        <pt x="551" y="55" on="0"/>
        <pt x="551" y="36" on="1"/>
        <pt x="551" y="18" on="0"/>
        <pt x="534" y="-1" on="0"/>
        <pt x="514" y="-1" on="1"/>
        <pt x="502" y="-1" on="0"/>
        <pt x="473" y="10" on="0"/>
        <pt x="467" y="22" on="1"/>
      </contour>
    </TTGlyph>
    <TTGlyph name="bar" xMin="22" yMin="0" xMax="144" yMax="938">
      <contour>
        <pt x="22" y="910" on="1"/>
        <pt x="22" y="930" on="0"/>
        <pt x="37" y="938" on="0"/>
        <pt x="54" y="938" on="1"/>
        <pt x="77" y="938" on="0"/>
        <pt x="97" y="919" on="0"/>
        <pt x="105" y="899" on="1"/>
        <pt x="116" y="769" on="0"/>
        <pt x="124" y="511" on="0"/>
        <pt x="127" y="380" on="1"/>
        <pt x="129" y="302" on="0"/>
        <pt x="126" y="141" on="0"/>
        <pt x="139" y="63" on="1"/>
        <pt x="144" y="58" on="0"/>
        <pt x="144" y="47" on="0"/>
        <pt x="144" y="42" on="1"/>
        <pt x="144" y="22" on="0"/>
        <pt x="116" y="0" on="0"/>
        <pt x="99" y="0" on="1"/>
        <pt x="88" y="0" on="0"/>
        <pt x="70" y="11" on="0"/>
        <pt x="56" y="29" on="0"/>
        <pt x="48" y="50" on="0"/>
        <pt x="47" y="59" on="1"/>
        <pt x="47" y="62" on="0"/>
        <pt x="47" y="85" on="0"/>
        <pt x="47" y="110" on="0"/>
        <pt x="47" y="132" on="0"/>
        <pt x="47" y="135" on="1"/>
        <pt x="45" y="260" on="0"/>
        <pt x="43" y="505" on="0"/>
        <pt x="39" y="629" on="1"/>
        <pt x="36" y="700" on="0"/>
        <pt x="22" y="840" on="0"/>
      </contour>
    </TTGlyph>
    <TTGlyph name="braceleft" xMin="12" yMin="-84" xMax="374" yMax="916">
      <contour>
        <pt x="156" y="44" on="1"/>
        <pt x="159" y="84" on="0"/>
        <pt x="168" y="164" on="0"/>
        <pt x="170" y="245" on="0"/>
        <pt x="162" y="325" on="0"/>
        <pt x="147" y="364" on="1"/>
        <pt x="136" y="360" on="0"/>
        <pt x="115" y="347" on="0"/>
        <pt x="94" y="335" on="0"/>
        <pt x="72" y="326" on="0"/>
        <pt x="60" y="326" on="1"/>
        <pt x="43" y="326" on="0"/>
        <pt x="12" y="348" on="0"/>
        <pt x="12" y="368" on="1"/>
        <pt x="12" y="377" on="0"/>
        <pt x="33" y="395" on="0"/>
        <pt x="61" y="413" on="0"/>
        <pt x="87" y="429" on="0"/>
        <pt x="92" y="435" on="1"/>
        <pt x="102" y="448" on="0"/>
        <pt x="105" y="484" on="0"/>
        <pt x="105" y="498" on="1"/>
        <pt x="97" y="536" on="0"/>
        <pt x="92" y="625" on="0"/>
        <pt x="103" y="714" on="0"/>
        <pt x="131" y="799" on="0"/>
        <pt x="180" y="866" on="0"/>
        <pt x="251" y="911" on="0"/>
        <pt x="299" y="916" on="1"/>
        <pt x="306" y="916" on="0"/>
        <pt x="331" y="916" on="0"/>
        <pt x="354" y="910" on="0"/>
        <pt x="371" y="896" on="0"/>
        <pt x="371" y="883" on="1"/>
        <pt x="374" y="870" on="0"/>
        <pt x="361" y="857" on="0"/>
        <pt x="336" y="850" on="0"/>
        <pt x="301" y="845" on="0"/>
        <pt x="265" y="834" on="0"/>
        <pt x="231" y="813" on="0"/>
        <pt x="219" y="794" on="1"/>
        <pt x="190" y="753" on="0"/>
        <pt x="172" y="665" on="0"/>
        <pt x="174" y="574" on="0"/>
        <pt x="185" y="481" on="0"/>
        <pt x="185" y="435" on="1"/>
        <pt x="208" y="428" on="0"/>
        <pt x="234" y="369" on="0"/>
        <pt x="246" y="286" on="0"/>
        <pt x="248" y="189" on="0"/>
        <pt x="246" y="99" on="0"/>
        <pt x="242" y="25" on="0"/>
        <pt x="243" y="6" on="1"/>
        <pt x="252" y="6" on="0"/>
        <pt x="270" y="21" on="0"/>
        <pt x="288" y="40" on="0"/>
        <pt x="307" y="55" on="0"/>
        <pt x="318" y="55" on="1"/>
        <pt x="321" y="55" on="1"/>
        <pt x="334" y="44" on="0"/>
        <pt x="338" y="38" on="0"/>
        <pt x="338" y="24" on="1"/>
        <pt x="338" y="6" on="0"/>
        <pt x="320" y="-32" on="0"/>
        <pt x="291" y="-63" on="0"/>
        <pt x="254" y="-84" on="0"/>
        <pt x="236" y="-84" on="1"/>
        <pt x="211" y="-84" on="0"/>
        <pt x="180" y="-58" on="0"/>
        <pt x="162" y="-20" on="0"/>
        <pt x="156" y="25" on="0"/>
      </contour>
    </TTGlyph>
    <TTGlyph name="braceright" xMin="15" yMin="-115" xMax="272" yMax="833">
      <contour>
        <pt x="18" y="-76" on="1"/>
        <pt x="18" y="-64" on="0"/>
        <pt x="43" y="-50" on="0"/>
        <pt x="76" y="-40" on="0"/>
        <pt x="109" y="-32" on="0"/>
        <pt x="117" y="-26" on="1"/>
        <pt x="146" y="-3" on="0"/>
        <pt x="193" y="63" on="0"/>
        <pt x="193" y="101" on="1"/>
        <pt x="193" y="119" on="0"/>
        <pt x="172" y="143" on="0"/>
        <pt x="140" y="161" on="0"/>
        <pt x="103" y="179" on="0"/>
        <pt x="70" y="203" on="0"/>
        <pt x="46" y="238" on="0"/>
        <pt x="44" y="266" on="1"/>
        <pt x="44" y="276" on="0"/>
        <pt x="52" y="297" on="0"/>
        <pt x="62" y="315" on="0"/>
        <pt x="70" y="329" on="0"/>
        <pt x="70" y="332" on="1"/>
        <pt x="70" y="334" on="1"/>
        <pt x="66" y="338" on="1"/>
        <pt x="59" y="345" on="0"/>
        <pt x="56" y="365" on="0"/>
        <pt x="56" y="380" on="1"/>
        <pt x="59" y="417" on="0"/>
        <pt x="89" y="489" on="0"/>
        <pt x="119" y="562" on="0"/>
        <pt x="139" y="638" on="0"/>
        <pt x="133" y="679" on="1"/>
        <pt x="133" y="684" on="0"/>
        <pt x="131" y="710" on="0"/>
        <pt x="116" y="736" on="0"/>
        <pt x="83" y="756" on="0"/>
        <pt x="52" y="756" on="1"/>
        <pt x="46" y="759" on="0"/>
        <pt x="28" y="775" on="0"/>
        <pt x="16" y="795" on="0"/>
        <pt x="15" y="816" on="0"/>
        <pt x="35" y="830" on="0"/>
        <pt x="82" y="833" on="0"/>
        <pt x="125" y="827" on="1"/>
        <pt x="144" y="827" on="0"/>
        <pt x="188" y="801" on="0"/>
        <pt x="220" y="748" on="0"/>
        <pt x="227" y="665" on="0"/>
        <pt x="209" y="608" on="1"/>
        <pt x="201" y="570" on="0"/>
        <pt x="185" y="494" on="0"/>
        <pt x="167" y="461" on="1"/>
        <pt x="159" y="446" on="0"/>
        <pt x="141" y="415" on="0"/>
        <pt x="141" y="397" on="1"/>
        <pt x="141" y="393" on="1"/>
        <pt x="152" y="399" on="0"/>
        <pt x="174" y="393" on="0"/>
        <pt x="191" y="376" on="0"/>
        <pt x="201" y="353" on="0"/>
        <pt x="201" y="342" on="1"/>
        <pt x="199" y="328" on="0"/>
        <pt x="175" y="313" on="0"/>
        <pt x="148" y="298" on="0"/>
        <pt x="125" y="277" on="0"/>
        <pt x="125" y="258" on="1"/>
        <pt x="125" y="246" on="0"/>
        <pt x="139" y="231" on="0"/>
        <pt x="159" y="220" on="0"/>
        <pt x="180" y="211" on="0"/>
        <pt x="187" y="207" on="1"/>
        <pt x="202" y="199" on="0"/>
        <pt x="233" y="182" on="0"/>
        <pt x="257" y="156" on="0"/>
        <pt x="272" y="120" on="0"/>
        <pt x="272" y="95" on="1"/>
        <pt x="272" y="62" on="0"/>
        <pt x="237" y="-11" on="0"/>
        <pt x="181" y="-74" on="0"/>
        <pt x="111" y="-115" on="0"/>
        <pt x="76" y="-115" on="1"/>
        <pt x="68" y="-115" on="0"/>
        <pt x="48" y="-110" on="0"/>
        <pt x="30" y="-100" on="0"/>
        <pt x="18" y="-86" on="0"/>
      </contour>
    </TTGlyph>
    <TTGlyph name="bracketleft" xMin="22" yMin="-113" xMax="393" yMax="842">
      <contour>
        <pt x="47" y="-42" on="1"/>
        <pt x="47" y="-1" on="0"/>
        <pt x="55" y="79" on="0"/>
        <pt x="55" y="120" on="1"/>
        <pt x="55" y="157" on="0"/>
        <pt x="49" y="231" on="0"/>
        <pt x="47" y="268" on="1"/>
        <pt x="45" y="316" on="0"/>
        <pt x="45" y="410" on="0"/>
        <pt x="43" y="458" on="1"/>
        <pt x="40" y="507" on="0"/>
        <pt x="35" y="614" on="0"/>
        <pt x="30" y="660" on="1"/>
        <pt x="28" y="677" on="0"/>
        <pt x="22" y="709" on="0"/>
        <pt x="22" y="726" on="1"/>
        <pt x="22" y="733" on="1"/>
        <pt x="23" y="736" on="0"/>
        <pt x="39" y="752" on="0"/>
        <pt x="43" y="754" on="1"/>
        <pt x="57" y="761" on="0"/>
        <pt x="100" y="765" on="0"/>
        <pt x="114" y="771" on="1"/>
        <pt x="149" y="786" on="0"/>
        <pt x="217" y="817" on="0"/>
        <pt x="249" y="834" on="1"/>
        <pt x="252" y="842" on="0"/>
        <pt x="274" y="842" on="0"/>
        <pt x="282" y="842" on="1"/>
        <pt x="309" y="842" on="0"/>
        <pt x="309" y="817" on="1"/>
        <pt x="309" y="807" on="0"/>
        <pt x="297" y="791" on="0"/>
        <pt x="280" y="779" on="0"/>
        <pt x="261" y="770" on="0"/>
        <pt x="254" y="767" on="1"/>
        <pt x="110" y="703" on="1"/>
        <pt x="106" y="699" on="1"/>
        <pt x="106" y="685" on="1"/>
        <pt x="106" y="665" on="1"/>
        <pt x="117" y="497" on="0"/>
        <pt x="140" y="163" on="0"/>
        <pt x="135" y="-6" on="1"/>
        <pt x="134" y="-9" on="0"/>
        <pt x="137" y="-22" on="0"/>
        <pt x="139" y="-24" on="1"/>
        <pt x="146" y="-24" on="1"/>
        <pt x="153" y="-24" on="1"/>
        <pt x="326" y="53" on="1"/>
        <pt x="332" y="51" on="0"/>
        <pt x="345" y="58" on="0"/>
        <pt x="352" y="58" on="1"/>
        <pt x="369" y="58" on="0"/>
        <pt x="393" y="43" on="0"/>
        <pt x="393" y="25" on="1"/>
        <pt x="393" y="19" on="0"/>
        <pt x="391" y="1" on="0"/>
        <pt x="384" y="-2" on="1"/>
        <pt x="114" y="-112" on="1"/>
        <pt x="111" y="-113" on="0"/>
        <pt x="108" y="-113" on="1"/>
        <pt x="100" y="-113" on="1"/>
        <pt x="68" y="-113" on="0"/>
        <pt x="47" y="-71" on="0"/>
      </contour>
    </TTGlyph>
    <TTGlyph name="bracketright" xMin="12" yMin="-65" xMax="401" yMax="874">
      <contour>
        <pt x="138" y="-57" on="1"/>
        <pt x="137" y="-53" on="0"/>
        <pt x="128" y="-30" on="0"/>
        <pt x="126" y="-27" on="1"/>
        <pt x="126" y="-25" on="1"/>
        <pt x="126" y="-13" on="0"/>
        <pt x="154" y="1" on="0"/>
        <pt x="191" y="9" on="0"/>
        <pt x="225" y="11" on="0"/>
        <pt x="231" y="11" on="1"/>
        <pt x="235" y="11" on="0"/>
        <pt x="262" y="11" on="0"/>
        <pt x="292" y="10" on="0"/>
        <pt x="318" y="9" on="0"/>
        <pt x="322" y="9" on="1"/>
        <pt x="322" y="17" on="1"/>
        <pt x="321" y="42" on="0"/>
        <pt x="309" y="133" on="0"/>
        <pt x="289" y="292" on="0"/>
        <pt x="259" y="532" on="0"/>
        <pt x="240" y="706" on="1"/>
        <pt x="240" y="708" on="0"/>
        <pt x="241" y="721" on="0"/>
        <pt x="241" y="736" on="0"/>
        <pt x="240" y="749" on="0"/>
        <pt x="240" y="752" on="1"/>
        <pt x="240" y="756" on="0"/>
        <pt x="239" y="770" on="0"/>
        <pt x="238" y="784" on="0"/>
        <pt x="236" y="794" on="0"/>
        <pt x="236" y="794" on="1"/>
        <pt x="231" y="798" on="1"/>
        <pt x="100" y="785" on="1"/>
        <pt x="99" y="784" on="0"/>
        <pt x="90" y="781" on="0"/>
        <pt x="88" y="781" on="1"/>
        <pt x="80" y="781" on="0"/>
        <pt x="54" y="784" on="0"/>
        <pt x="30" y="793" on="0"/>
        <pt x="12" y="807" on="0"/>
        <pt x="12" y="819" on="1"/>
        <pt x="12" y="842" on="0"/>
        <pt x="45" y="856" on="0"/>
        <pt x="63" y="857" on="1"/>
        <pt x="68" y="857" on="0"/>
        <pt x="105" y="860" on="0"/>
        <pt x="148" y="863" on="0"/>
        <pt x="184" y="866" on="0"/>
        <pt x="189" y="866" on="1"/>
        <pt x="208" y="867" on="0"/>
        <pt x="248" y="874" on="0"/>
        <pt x="265" y="874" on="1"/>
        <pt x="284" y="874" on="0"/>
        <pt x="319" y="863" on="0"/>
        <pt x="325" y="841" on="1"/>
        <pt x="325" y="840" on="0"/>
        <pt x="324" y="830" on="0"/>
        <pt x="323" y="818" on="0"/>
        <pt x="321" y="808" on="0"/>
        <pt x="321" y="807" on="1"/>
        <pt x="321" y="785" on="1"/>
        <pt x="321" y="766" on="0"/>
        <pt x="324" y="723" on="0"/>
        <pt x="331" y="654" on="0"/>
        <pt x="343" y="548" on="0"/>
        <pt x="361" y="385" on="0"/>
        <pt x="384" y="154" on="0"/>
        <pt x="400" y="-6" on="1"/>
        <pt x="400" y="-7" on="0"/>
        <pt x="401" y="-15" on="0"/>
        <pt x="401" y="-17" on="1"/>
        <pt x="401" y="-31" on="0"/>
        <pt x="387" y="-53" on="0"/>
        <pt x="373" y="-53" on="1"/>
        <pt x="354" y="-53" on="0"/>
        <pt x="320" y="-48" on="0"/>
        <pt x="301" y="-48" on="1"/>
        <pt x="278" y="-48" on="0"/>
        <pt x="230" y="-52" on="0"/>
        <pt x="207" y="-57" on="1"/>
        <pt x="205" y="-57" on="0"/>
        <pt x="196" y="-60" on="0"/>
        <pt x="186" y="-63" on="0"/>
        <pt x="178" y="-65" on="0"/>
        <pt x="177" y="-65" on="1"/>
        <pt x="175" y="-65" on="0"/>
        <pt x="164" y="-64" on="0"/>
        <pt x="152" y="-62" on="0"/>
        <pt x="141" y="-59" on="0"/>
      </contour>
    </TTGlyph>
    <TTGlyph name="breve" xMin="41" yMin="607" xMax="246" yMax="742">
      <contour>
        <pt x="138" y="610" on="1"/>
        <pt x="89" y="614" on="0"/>
        <pt x="48" y="650" on="0"/>
        <pt x="41" y="690" on="0"/>
        <pt x="55" y="727" on="0"/>
        <pt x="61" y="733" on="1"/>
        <pt x="71" y="694" on="0"/>
        <pt x="126" y="663" on="0"/>
        <pt x="186" y="670" on="0"/>
        <pt x="236" y="710" on="0"/>
        <pt x="242" y="742" on="1"/>
        <pt x="246" y="719" on="0"/>
        <pt x="242" y="670" on="0"/>
        <pt x="219" y="631" on="0"/>
        <pt x="174" y="607" on="0"/>
      </contour>
    </TTGlyph>
    <TTGlyph name="brokenbar" xMin="23" yMin="-1" xMax="121" yMax="593">
      <contour>
        <pt x="31" y="348" on="1"/>
        <pt x="35" y="389" on="0"/>
        <pt x="42" y="470" on="0"/>
        <pt x="44" y="511" on="1"/>
        <pt x="44" y="520" on="0"/>
        <pt x="43" y="549" on="0"/>
        <pt x="49" y="576" on="0"/>
        <pt x="65" y="593" on="0"/>
        <pt x="82" y="592" on="1"/>
        <pt x="98" y="590" on="0"/>
        <pt x="116" y="568" on="0"/>
        <pt x="121" y="553" on="1"/>
        <pt x="116" y="502" on="0"/>
        <pt x="106" y="399" on="0"/>
        <pt x="102" y="348" on="1"/>
      </contour>
      <contour>
        <pt x="94" y="313" on="1"/>
        <pt x="92" y="288" on="0"/>
        <pt x="92" y="249" on="0"/>
        <pt x="93" y="212" on="0"/>
        <pt x="94" y="173" on="0"/>
        <pt x="94" y="148" on="1"/>
        <pt x="94" y="124" on="0"/>
        <pt x="99" y="76" on="0"/>
        <pt x="99" y="52" on="1"/>
        <pt x="99" y="44" on="0"/>
        <pt x="97" y="26" on="0"/>
        <pt x="91" y="10" on="0"/>
        <pt x="78" y="-1" on="0"/>
        <pt x="68" y="-1" on="1"/>
        <pt x="50" y="-1" on="0"/>
        <pt x="32" y="23" on="0"/>
        <pt x="27" y="38" on="1"/>
        <pt x="25" y="61" on="0"/>
        <pt x="24" y="101" on="0"/>
        <pt x="23" y="140" on="0"/>
        <pt x="23" y="179" on="0"/>
        <pt x="23" y="202" on="1"/>
        <pt x="23" y="220" on="0"/>
        <pt x="26" y="246" on="0"/>
        <pt x="31" y="269" on="0"/>
        <pt x="35" y="295" on="0"/>
        <pt x="37" y="313" on="1"/>
      </contour>
    </TTGlyph>
    <TTGlyph name="bullet" xMin="51" yMin="214" xMax="222" yMax="374">
      <contour>
        <pt x="51" y="294" on="1"/>
        <pt x="51" y="308" on="0"/>
        <pt x="63" y="337" on="0"/>
        <pt x="83" y="360" on="0"/>
        <pt x="109" y="374" on="0"/>
        <pt x="123" y="374" on="1"/>
        <pt x="157" y="374" on="0"/>
        <pt x="202" y="337" on="0"/>
        <pt x="222" y="313" on="1"/>
        <pt x="222" y="307" on="1"/>
        <pt x="222" y="289" on="0"/>
        <pt x="209" y="256" on="0"/>
        <pt x="187" y="230" on="0"/>
        <pt x="154" y="214" on="0"/>
        <pt x="135" y="214" on="1"/>
        <pt x="122" y="214" on="0"/>
        <pt x="92" y="228" on="0"/>
        <pt x="67" y="251" on="0"/>
        <pt x="51" y="280" on="0"/>
      </contour>
    </TTGlyph>
    <TTGlyph name="c" xMin="16" yMin="-1" xMax="336" yMax="438">
      <contour>
        <pt x="23" y="120" on="1"/>
        <pt x="16" y="150" on="0"/>
        <pt x="31" y="232" on="0"/>
        <pt x="64" y="315" on="0"/>
        <pt x="113" y="389" on="0"/>
        <pt x="168" y="433" on="0"/>
        <pt x="225" y="438" on="0"/>
        <pt x="251" y="410" on="1"/>
        <pt x="251" y="409" on="0"/>
        <pt x="253" y="401" on="0"/>
        <pt x="255" y="376" on="0"/>
        <pt x="256" y="331" on="0"/>
        <pt x="256" y="292" on="1"/>
        <pt x="257" y="290" on="0"/>
        <pt x="260" y="281" on="0"/>
        <pt x="260" y="279" on="1"/>
        <pt x="257" y="268" on="0"/>
        <pt x="240" y="249" on="0"/>
        <pt x="227" y="249" on="1"/>
        <pt x="210" y="249" on="0"/>
        <pt x="189" y="260" on="0"/>
        <pt x="184" y="281" on="1"/>
        <pt x="186" y="284" on="0"/>
        <pt x="184" y="303" on="0"/>
        <pt x="179" y="327" on="0"/>
        <pt x="175" y="351" on="0"/>
        <pt x="175" y="358" on="1"/>
        <pt x="174" y="358" on="0"/>
        <pt x="171" y="355" on="0"/>
        <pt x="170" y="354" on="1"/>
        <pt x="153" y="324" on="0"/>
        <pt x="124" y="251" on="0"/>
        <pt x="109" y="176" on="0"/>
        <pt x="114" y="102" on="0"/>
        <pt x="133" y="72" on="1"/>
        <pt x="147" y="72" on="0"/>
        <pt x="171" y="95" on="0"/>
        <pt x="179" y="105" on="1"/>
        <pt x="196" y="125" on="0"/>
        <pt x="229" y="167" on="0"/>
        <pt x="243" y="190" on="1"/>
        <pt x="249" y="200" on="0"/>
        <pt x="255" y="216" on="0"/>
        <pt x="264" y="226" on="0"/>
        <pt x="278" y="232" on="0"/>
        <pt x="292" y="232" on="1"/>
        <pt x="308" y="232" on="0"/>
        <pt x="336" y="217" on="0"/>
        <pt x="336" y="200" on="1"/>
        <pt x="336" y="177" on="0"/>
        <pt x="295" y="108" on="0"/>
        <pt x="236" y="44" on="0"/>
        <pt x="170" y="-1" on="0"/>
        <pt x="145" y="-1" on="1"/>
        <pt x="121" y="-1" on="0"/>
        <pt x="76" y="18" on="0"/>
        <pt x="43" y="50" on="0"/>
        <pt x="23" y="94" on="0"/>
      </contour>
    </TTGlyph>
    <TTGlyph name="cacute" xMin="16" yMin="-1" xMax="336" yMax="770">
      <component glyphName="c" x="0" y="0" flags="0x204"/>
      <component glyphName="acute" x="19" y="0" flags="0x4"/>
    </TTGlyph>
    <TTGlyph name="caron" xMin="54" yMin="628" xMax="319" yMax="777">
      <contour>
        <pt x="57" y="757" on="1"/>
        <pt x="54" y="761" on="0"/>
        <pt x="62" y="769" on="0"/>
        <pt x="77" y="774" on="0"/>
        <pt x="94" y="777" on="0"/>
        <pt x="100" y="777" on="1"/>
        <pt x="102" y="777" on="0"/>
        <pt x="118" y="774" on="0"/>
        <pt x="120" y="772" on="1"/>
        <pt x="141" y="749" on="0"/>
        <pt x="165" y="720" on="0"/>
        <pt x="179" y="702" on="0"/>
        <pt x="184" y="694" on="0"/>
        <pt x="187" y="691" on="1"/>
        <pt x="191" y="689" on="1"/>
        <pt x="253" y="752" on="1"/>
        <pt x="263" y="764" on="0"/>
        <pt x="289" y="764" on="1"/>
        <pt x="303" y="764" on="0"/>
        <pt x="319" y="760" on="0"/>
        <pt x="319" y="752" on="1"/>
        <pt x="319" y="749" on="0"/>
        <pt x="318" y="746" on="0"/>
        <pt x="315" y="742" on="1"/>
        <pt x="313" y="739" on="0"/>
        <pt x="300" y="726" on="0"/>
        <pt x="285" y="711" on="0"/>
        <pt x="272" y="697" on="0"/>
        <pt x="269" y="695" on="1"/>
        <pt x="269" y="694" on="0"/>
        <pt x="264" y="689" on="0"/>
        <pt x="263" y="689" on="1"/>
        <pt x="260" y="686" on="0"/>
        <pt x="244" y="670" on="0"/>
        <pt x="226" y="653" on="0"/>
        <pt x="210" y="637" on="0"/>
        <pt x="207" y="634" on="1"/>
        <pt x="202" y="630" on="0"/>
        <pt x="192" y="628" on="0"/>
        <pt x="184" y="628" on="1"/>
        <pt x="175" y="628" on="0"/>
        <pt x="155" y="630" on="0"/>
        <pt x="151" y="635" on="1"/>
        <pt x="149" y="639" on="0"/>
        <pt x="136" y="661" on="0"/>
        <pt x="134" y="664" on="1"/>
      </contour>
    </TTGlyph>
    <TTGlyph name="ccaron" xMin="16" yMin="-1" xMax="336" yMax="683">
      <component glyphName="c" x="0" y="0" flags="0x204"/>
      <component glyphName="caron" x="-5" y="-94" flags="0x4"/>
    </TTGlyph>
    <TTGlyph name="ccedilla" xMin="16" yMin="-317" xMax="382" yMax="438">
      <component glyphName="c" x="0" y="0" flags="0x204"/>
      <component glyphName="cedilla" x="-7" y="-8" flags="0x4"/>
    </TTGlyph>
    <TTGlyph name="ccircumflex" xMin="16" yMin="-1" xMax="336" yMax="740">
      <component glyphName="c" x="0" y="0" flags="0x204"/>
      <component glyphName="circumflex" x="8" y="-137" flags="0x4"/>
    </TTGlyph>
    <TTGlyph name="cdotaccent" xMin="16" yMin="-1" xMax="336" yMax="641">
      <component glyphName="c" x="0" y="0" flags="0x204"/>
      <component glyphName="dotaccent" x="92" y="0" flags="0x4"/>
    </TTGlyph>
    <TTGlyph name="cedilla" xMin="57" yMin="-309" xMax="389" yMax="47">
      <contour>
        <pt x="113" y="-270" on="1"/>
        <pt x="113" y="-265" on="0"/>
        <pt x="114" y="-257" on="0"/>
        <pt x="118" y="-253" on="1"/>
        <pt x="130" y="-238" on="0"/>
        <pt x="175" y="-228" on="0"/>
        <pt x="222" y="-221" on="0"/>
        <pt x="262" y="-207" on="0"/>
        <pt x="270" y="-186" on="1"/>
        <pt x="278" y="-168" on="0"/>
        <pt x="257" y="-152" on="0"/>
        <pt x="221" y="-148" on="0"/>
        <pt x="185" y="-151" on="0"/>
        <pt x="178" y="-152" on="1"/>
        <pt x="164" y="-152" on="0"/>
        <pt x="123" y="-148" on="0"/>
        <pt x="84" y="-135" on="0"/>
        <pt x="57" y="-111" on="0"/>
        <pt x="57" y="-91" on="1"/>
        <pt x="63" y="-58" on="0"/>
        <pt x="91" y="-4" on="0"/>
        <pt x="126" y="32" on="0"/>
        <pt x="161" y="47" on="0"/>
        <pt x="186" y="36" on="0"/>
        <pt x="194" y="-5" on="0"/>
        <pt x="184" y="-42" on="1"/>
        <pt x="178" y="-49" on="0"/>
        <pt x="160" y="-74" on="0"/>
        <pt x="160" y="-76" on="1"/>
        <pt x="160" y="-77" on="1"/>
        <pt x="186" y="-82" on="0"/>
        <pt x="250" y="-79" on="0"/>
        <pt x="311" y="-85" on="0"/>
        <pt x="364" y="-113" on="0"/>
        <pt x="380" y="-150" on="1"/>
        <pt x="389" y="-192" on="0"/>
        <pt x="369" y="-237" on="0"/>
        <pt x="315" y="-264" on="0"/>
        <pt x="231" y="-285" on="0"/>
        <pt x="178" y="-304" on="1"/>
        <pt x="176" y="-307" on="0"/>
        <pt x="161" y="-309" on="0"/>
        <pt x="156" y="-309" on="1"/>
        <pt x="142" y="-309" on="0"/>
        <pt x="113" y="-285" on="0"/>
      </contour>
    </TTGlyph>
    <TTGlyph name="cent" xMin="15" yMin="-60" xMax="332" yMax="535">
      <contour>
        <pt x="137" y="383" on="1"/>
        <pt x="139" y="439" on="0"/>
        <pt x="141" y="501" on="0"/>
        <pt x="149" y="531" on="0"/>
        <pt x="164" y="535" on="0"/>
        <pt x="178" y="532" on="1"/>
        <pt x="197" y="531" on="0"/>
        <pt x="212" y="521" on="0"/>
        <pt x="215" y="499" on="0"/>
        <pt x="212" y="461" on="0"/>
        <pt x="214" y="432" on="1"/>
        <pt x="235" y="439" on="0"/>
        <pt x="273" y="434" on="0"/>
        <pt x="304" y="406" on="0"/>
        <pt x="325" y="353" on="0"/>
        <pt x="328" y="311" on="1"/>
        <pt x="329" y="309" on="0"/>
        <pt x="332" y="300" on="0"/>
        <pt x="332" y="298" on="1"/>
        <pt x="330" y="293" on="0"/>
        <pt x="316" y="285" on="0"/>
        <pt x="296" y="281" on="0"/>
        <pt x="276" y="279" on="0"/>
        <pt x="270" y="279" on="1"/>
        <pt x="270" y="284" on="0"/>
        <pt x="265" y="300" on="0"/>
        <pt x="258" y="318" on="0"/>
        <pt x="248" y="334" on="0"/>
        <pt x="242" y="340" on="1"/>
        <pt x="240" y="342" on="0"/>
        <pt x="226" y="343" on="0"/>
        <pt x="217" y="344" on="1"/>
        <pt x="213" y="274" on="0"/>
        <pt x="212" y="162" on="0"/>
        <pt x="220" y="117" on="1"/>
        <pt x="225" y="118" on="0"/>
        <pt x="234" y="123" on="0"/>
        <pt x="239" y="131" on="1"/>
        <pt x="245" y="141" on="0"/>
        <pt x="251" y="157" on="0"/>
        <pt x="260" y="167" on="0"/>
        <pt x="274" y="173" on="0"/>
        <pt x="288" y="173" on="1"/>
        <pt x="304" y="173" on="0"/>
        <pt x="332" y="158" on="0"/>
        <pt x="332" y="141" on="1"/>
        <pt x="332" y="112" on="0"/>
        <pt x="276" y="52" on="0"/>
        <pt x="239" y="30" on="1"/>
        <pt x="241" y="12" on="0"/>
        <pt x="244" y="-23" on="0"/>
        <pt x="244" y="-26" on="1"/>
        <pt x="244" y="-46" on="0"/>
        <pt x="215" y="-60" on="0"/>
        <pt x="198" y="-60" on="1"/>
        <pt x="186" y="-60" on="0"/>
        <pt x="163" y="-23" on="0"/>
        <pt x="155" y="0" on="1"/>
        <pt x="152" y="-1" on="0"/>
        <pt x="145" y="-1" on="1"/>
        <pt x="121" y="-1" on="0"/>
        <pt x="76" y="18" on="0"/>
        <pt x="43" y="50" on="0"/>
        <pt x="23" y="94" on="0"/>
        <pt x="23" y="120" on="1"/>
        <pt x="15" y="150" on="0"/>
        <pt x="28" y="221" on="0"/>
        <pt x="61" y="292" on="0"/>
        <pt x="110" y="358" on="0"/>
      </contour>
      <contour>
        <pt x="139" y="72" on="1"/>
        <pt x="139" y="79" on="0"/>
        <pt x="139" y="99" on="0"/>
        <pt x="140" y="118" on="0"/>
        <pt x="140" y="133" on="0"/>
        <pt x="140" y="135" on="1"/>
        <pt x="140" y="161" on="0"/>
        <pt x="139" y="241" on="0"/>
        <pt x="138" y="287" on="1"/>
        <pt x="127" y="260" on="0"/>
        <pt x="113" y="203" on="0"/>
        <pt x="109" y="147" on="0"/>
        <pt x="119" y="94" on="0"/>
        <pt x="133" y="72" on="1"/>
      </contour>
    </TTGlyph>
    <TTGlyph name="circumflex" xMin="28" yMin="644" xMax="316" yMax="877">
      <contour>
        <pt x="115" y="821" on="1"/>
        <pt x="116" y="823" on="0"/>
        <pt x="121" y="836" on="0"/>
        <pt x="127" y="850" on="0"/>
        <pt x="133" y="863" on="0"/>
        <pt x="134" y="866" on="1"/>
        <pt x="138" y="874" on="0"/>
        <pt x="159" y="877" on="0"/>
        <pt x="169" y="877" on="1"/>
        <pt x="177" y="877" on="0"/>
        <pt x="189" y="874" on="0"/>
        <pt x="195" y="868" on="1"/>
        <pt x="198" y="863" on="0"/>
        <pt x="215" y="838" on="0"/>
        <pt x="235" y="811" on="0"/>
        <pt x="252" y="786" on="0"/>
        <pt x="255" y="782" on="1"/>
        <pt x="256" y="781" on="0"/>
        <pt x="262" y="774" on="0"/>
        <pt x="262" y="773" on="1"/>
        <pt x="265" y="769" on="0"/>
        <pt x="279" y="748" on="0"/>
        <pt x="295" y="724" on="0"/>
        <pt x="309" y="702" on="0"/>
        <pt x="312" y="698" on="1"/>
        <pt x="315" y="693" on="0"/>
        <pt x="316" y="688" on="0"/>
        <pt x="316" y="683" on="1"/>
        <pt x="316" y="672" on="0"/>
        <pt x="298" y="664" on="0"/>
        <pt x="283" y="664" on="1"/>
        <pt x="270" y="664" on="0"/>
        <pt x="249" y="675" on="0"/>
        <pt x="244" y="683" on="1"/>
        <pt x="177" y="782" on="1"/>
        <pt x="173" y="779" on="1"/>
        <pt x="170" y="775" on="0"/>
        <pt x="164" y="761" on="0"/>
        <pt x="149" y="733" on="0"/>
        <pt x="123" y="688" on="0"/>
        <pt x="100" y="652" on="1"/>
        <pt x="98" y="650" on="0"/>
        <pt x="81" y="644" on="0"/>
        <pt x="78" y="644" on="1"/>
        <pt x="72" y="644" on="0"/>
        <pt x="53" y="649" on="0"/>
        <pt x="37" y="657" on="0"/>
        <pt x="28" y="668" on="0"/>
        <pt x="32" y="675" on="1"/>
      </contour>
    </TTGlyph>
    <TTGlyph name="colon" xMin="22" yMin="113" xMax="114" yMax="396">
      <contour>
        <pt x="22" y="154" on="1"/>
        <pt x="22" y="168" on="0"/>
        <pt x="39" y="195" on="0"/>
        <pt x="53" y="195" on="1"/>
        <pt x="62" y="195" on="0"/>
        <pt x="83" y="187" on="0"/>
        <pt x="101" y="173" on="0"/>
        <pt x="111" y="154" on="0"/>
        <pt x="110" y="143" on="1"/>
        <pt x="108" y="129" on="0"/>
        <pt x="82" y="113" on="0"/>
        <pt x="71" y="113" on="1"/>
        <pt x="53" y="113" on="0"/>
        <pt x="22" y="134" on="0"/>
      </contour>
      <contour>
        <pt x="26" y="358" on="1"/>
        <pt x="24" y="378" on="0"/>
        <pt x="60" y="396" on="0"/>
        <pt x="76" y="396" on="1"/>
        <pt x="80" y="396" on="0"/>
        <pt x="91" y="387" on="0"/>
        <pt x="102" y="374" on="0"/>
        <pt x="110" y="361" on="0"/>
        <pt x="110" y="358" on="1"/>
        <pt x="114" y="344" on="0"/>
        <pt x="88" y="325" on="0"/>
        <pt x="76" y="325" on="1"/>
        <pt x="62" y="325" on="0"/>
        <pt x="28" y="341" on="0"/>
      </contour>
    </TTGlyph>
    <TTGlyph name="comma" xMin="18" yMin="-83" xMax="109" yMax="150">
      <contour>
        <pt x="18" y="-10" on="1"/>
        <pt x="19" y="-6" on="0"/>
        <pt x="24" y="27" on="0"/>
        <pt x="30" y="66" on="0"/>
        <pt x="36" y="99" on="0"/>
        <pt x="36" y="103" on="1"/>
        <pt x="37" y="110" on="0"/>
        <pt x="39" y="127" on="0"/>
        <pt x="45" y="141" on="0"/>
        <pt x="57" y="150" on="0"/>
        <pt x="67" y="150" on="1"/>
        <pt x="86" y="150" on="0"/>
        <pt x="109" y="133" on="0"/>
        <pt x="109" y="113" on="1"/>
        <pt x="109" y="110" on="0"/>
        <pt x="109" y="100" on="0"/>
        <pt x="108" y="99" on="1"/>
        <pt x="107" y="93" on="0"/>
        <pt x="102" y="64" on="0"/>
        <pt x="96" y="32" on="0"/>
        <pt x="92" y="3" on="0"/>
        <pt x="91" y="-2" on="1"/>
        <pt x="84" y="-11" on="0"/>
        <pt x="81" y="-39" on="0"/>
        <pt x="77" y="-64" on="0"/>
        <pt x="65" y="-83" on="0"/>
        <pt x="48" y="-83" on="1"/>
        <pt x="39" y="-83" on="0"/>
        <pt x="28" y="-72" on="0"/>
        <pt x="21" y="-56" on="0"/>
        <pt x="18" y="-38" on="0"/>
        <pt x="18" y="-31" on="1"/>
      </contour>
    </TTGlyph>
    <TTGlyph name="commaaccent" xMin="157" yMin="-184" xMax="247" yMax="-22">
      <contour>
        <pt x="195" y="-181" on="1"/>
        <pt x="181" y="-170" on="0"/>
        <pt x="187" y="-138" on="0"/>
        <pt x="197" y="-106" on="0"/>
        <pt x="195" y="-77" on="0"/>
        <pt x="174" y="-69" on="1"/>
        <pt x="160" y="-61" on="0"/>
        <pt x="157" y="-44" on="0"/>
        <pt x="169" y="-30" on="0"/>
        <pt x="192" y="-22" on="0"/>
        <pt x="205" y="-22" on="1"/>
        <pt x="224" y="-22" on="0"/>
        <pt x="247" y="-39" on="0"/>
        <pt x="247" y="-59" on="1"/>
        <pt x="247" y="-62" on="0"/>
        <pt x="247" y="-72" on="0"/>
        <pt x="246" y="-73" on="1"/>
        <pt x="244" y="-98" on="0"/>
        <pt x="241" y="-140" on="0"/>
        <pt x="233" y="-169" on="0"/>
        <pt x="214" y="-184" on="0"/>
      </contour>
    </TTGlyph>
    <TTGlyph name="copyright" xMin="64" yMin="-4" xMax="640" yMax="682">
      <contour>
        <pt x="201" y="220" on="1"/>
        <pt x="194" y="250" on="0"/>
        <pt x="209" y="332" on="0"/>
        <pt x="242" y="415" on="0"/>
        <pt x="291" y="489" on="0"/>
        <pt x="346" y="533" on="0"/>
        <pt x="403" y="538" on="0"/>
        <pt x="429" y="510" on="1"/>
        <pt x="429" y="509" on="0"/>
        <pt x="431" y="501" on="0"/>
        <pt x="433" y="476" on="0"/>
        <pt x="434" y="431" on="0"/>
        <pt x="434" y="392" on="1"/>
        <pt x="435" y="390" on="0"/>
        <pt x="438" y="381" on="0"/>
        <pt x="438" y="379" on="1"/>
        <pt x="435" y="368" on="0"/>
        <pt x="418" y="349" on="0"/>
        <pt x="405" y="349" on="1"/>
        <pt x="388" y="349" on="0"/>
        <pt x="367" y="360" on="0"/>
        <pt x="362" y="381" on="1"/>
        <pt x="364" y="384" on="0"/>
        <pt x="362" y="403" on="0"/>
        <pt x="357" y="427" on="0"/>
        <pt x="353" y="451" on="0"/>
        <pt x="353" y="458" on="1"/>
        <pt x="352" y="458" on="0"/>
        <pt x="349" y="455" on="0"/>
        <pt x="348" y="454" on="1"/>
        <pt x="331" y="424" on="0"/>
        <pt x="302" y="351" on="0"/>
        <pt x="287" y="276" on="0"/>
        <pt x="292" y="202" on="0"/>
        <pt x="311" y="172" on="1"/>
        <pt x="325" y="172" on="0"/>
        <pt x="349" y="195" on="0"/>
        <pt x="357" y="205" on="1"/>
        <pt x="374" y="225" on="0"/>
        <pt x="407" y="267" on="0"/>
        <pt x="421" y="290" on="1"/>
        <pt x="427" y="300" on="0"/>
        <pt x="433" y="316" on="0"/>
        <pt x="442" y="326" on="0"/>
        <pt x="456" y="332" on="0"/>
        <pt x="470" y="332" on="1"/>
        <pt x="486" y="332" on="0"/>
        <pt x="514" y="317" on="0"/>
        <pt x="514" y="300" on="1"/>
        <pt x="514" y="277" on="0"/>
        <pt x="473" y="208" on="0"/>
        <pt x="414" y="144" on="0"/>
        <pt x="348" y="99" on="0"/>
        <pt x="323" y="99" on="1"/>
        <pt x="299" y="99" on="0"/>
        <pt x="254" y="118" on="0"/>
        <pt x="221" y="150" on="0"/>
        <pt x="201" y="194" on="0"/>
      </contour>
      <contour>
        <pt x="66" y="201" on="1"/>
        <pt x="64" y="210" on="0"/>
        <pt x="65" y="266" on="0"/>
        <pt x="74" y="344" on="0"/>
        <pt x="95" y="435" on="0"/>
        <pt x="132" y="525" on="0"/>
        <pt x="188" y="606" on="0"/>
        <pt x="268" y="661" on="0"/>
        <pt x="374" y="682" on="0"/>
        <pt x="443" y="669" on="1"/>
        <pt x="471" y="668" on="0"/>
        <pt x="519" y="634" on="0"/>
        <pt x="559" y="583" on="0"/>
        <pt x="590" y="523" on="0"/>
        <pt x="601" y="497" on="1"/>
        <pt x="608" y="477" on="0"/>
        <pt x="622" y="406" on="0"/>
        <pt x="633" y="328" on="0"/>
        <pt x="640" y="256" on="0"/>
        <pt x="640" y="235" on="1"/>
        <pt x="640" y="205" on="0"/>
        <pt x="605" y="124" on="0"/>
        <pt x="548" y="52" on="0"/>
        <pt x="473" y="2" on="0"/>
        <pt x="434" y="2" on="1"/>
        <pt x="424" y="2" on="0"/>
        <pt x="369" y="-4" on="0"/>
        <pt x="296" y="-3" on="0"/>
        <pt x="215" y="13" on="0"/>
        <pt x="140" y="57" on="0"/>
        <pt x="80" y="137" on="0"/>
      </contour>
      <contour>
        <pt x="163" y="134" on="1"/>
        <pt x="172" y="115" on="0"/>
        <pt x="220" y="92" on="0"/>
        <pt x="279" y="79" on="0"/>
        <pt x="343" y="76" on="0"/>
        <pt x="395" y="76" on="0"/>
        <pt x="429" y="78" on="0"/>
        <pt x="428" y="78" on="1"/>
        <pt x="436" y="78" on="1"/>
        <pt x="457" y="97" on="0"/>
        <pt x="502" y="139" on="0"/>
        <pt x="540" y="186" on="0"/>
        <pt x="564" y="237" on="0"/>
        <pt x="564" y="264" on="1"/>
        <pt x="564" y="276" on="0"/>
        <pt x="553" y="333" on="0"/>
        <pt x="535" y="406" on="0"/>
        <pt x="511" y="484" on="0"/>
        <pt x="484" y="549" on="0"/>
        <pt x="458" y="591" on="0"/>
        <pt x="446" y="592" on="1"/>
        <pt x="412" y="602" on="0"/>
        <pt x="328" y="588" on="0"/>
        <pt x="245" y="542" on="0"/>
        <pt x="174" y="464" on="0"/>
        <pt x="134" y="356" on="0"/>
        <pt x="133" y="218" on="0"/>
      </contour>
    </TTGlyph>
    <TTGlyph name="currency" xMin="44" yMin="26" xMax="451" yMax="591">
      <contour>
        <pt x="46" y="70" on="1"/>
        <pt x="47" y="75" on="0"/>
        <pt x="62" y="101" on="0"/>
        <pt x="85" y="135" on="0"/>
        <pt x="115" y="177" on="0"/>
        <pt x="130" y="199" on="1"/>
        <pt x="126" y="219" on="0"/>
        <pt x="126" y="244" on="1"/>
        <pt x="126" y="247" on="1"/>
        <pt x="155" y="449" on="1"/>
        <pt x="146" y="468" on="0"/>
        <pt x="131" y="502" on="0"/>
        <pt x="123" y="517" on="1"/>
        <pt x="123" y="517" on="0"/>
        <pt x="124" y="519" on="1"/>
        <pt x="124" y="521" on="1"/>
        <pt x="129" y="536" on="0"/>
        <pt x="156" y="548" on="0"/>
        <pt x="170" y="544" on="1"/>
        <pt x="186" y="539" on="0"/>
        <pt x="196" y="529" on="1"/>
        <pt x="205" y="492" on="0"/>
        <pt x="231" y="467" on="0"/>
        <pt x="253" y="486" on="1"/>
        <pt x="254" y="486" on="1"/>
        <pt x="266" y="486" on="0"/>
        <pt x="285" y="495" on="0"/>
        <pt x="299" y="495" on="1"/>
        <pt x="305" y="495" on="0"/>
        <pt x="316" y="493" on="0"/>
        <pt x="322" y="491" on="1"/>
        <pt x="333" y="509" on="0"/>
        <pt x="362" y="554" on="0"/>
        <pt x="382" y="583" on="1"/>
        <pt x="387" y="591" on="0"/>
        <pt x="409" y="590" on="0"/>
        <pt x="417" y="588" on="1"/>
        <pt x="431" y="584" on="0"/>
        <pt x="451" y="559" on="0"/>
        <pt x="446" y="542" on="1"/>
        <pt x="446" y="541" on="0"/>
        <pt x="445" y="537" on="0"/>
        <pt x="444" y="537" on="1"/>
        <pt x="384" y="438" on="1"/>
        <pt x="401" y="408" on="0"/>
        <pt x="417" y="335" on="0"/>
        <pt x="417" y="307" on="1"/>
        <pt x="417" y="286" on="0"/>
        <pt x="402" y="237" on="0"/>
        <pt x="388" y="213" on="1"/>
        <pt x="435" y="145" on="1"/>
        <pt x="435" y="140" on="1"/>
        <pt x="435" y="138" on="0"/>
        <pt x="436" y="134" on="0"/>
        <pt x="436" y="133" on="1"/>
        <pt x="436" y="131" on="1"/>
        <pt x="431" y="115" on="0"/>
        <pt x="403" y="105" on="0"/>
        <pt x="389" y="109" on="1"/>
        <pt x="378" y="112" on="0"/>
        <pt x="356" y="135" on="0"/>
        <pt x="344" y="151" on="1"/>
        <pt x="321" y="125" on="0"/>
        <pt x="266" y="93" on="0"/>
        <pt x="238" y="93" on="1"/>
        <pt x="218" y="93" on="0"/>
        <pt x="188" y="104" on="0"/>
        <pt x="176" y="114" on="1"/>
        <pt x="156" y="79" on="0"/>
        <pt x="109" y="26" on="0"/>
        <pt x="80" y="27" on="1"/>
        <pt x="74" y="28" on="0"/>
        <pt x="60" y="37" on="0"/>
        <pt x="50" y="49" on="0"/>
        <pt x="44" y="63" on="0"/>
      </contour>
      <contour>
        <pt x="200" y="239" on="1"/>
        <pt x="202" y="229" on="0"/>
        <pt x="206" y="203" on="0"/>
        <pt x="214" y="182" on="0"/>
        <pt x="229" y="171" on="0"/>
        <pt x="243" y="176" on="1"/>
        <pt x="256" y="188" on="0"/>
        <pt x="286" y="218" on="0"/>
        <pt x="313" y="252" on="0"/>
        <pt x="331" y="290" on="0"/>
        <pt x="331" y="311" on="1"/>
        <pt x="335" y="345" on="0"/>
        <pt x="317" y="402" on="0"/>
        <pt x="284" y="427" on="0"/>
        <pt x="242" y="408" on="0"/>
        <pt x="221" y="366" on="1"/>
        <pt x="209" y="340" on="0"/>
        <pt x="200" y="271" on="0"/>
        <pt x="200" y="242" on="1"/>
      </contour>
    </TTGlyph>
    <TTGlyph name="d" xMin="12" yMin="-145" xMax="408" yMax="754">
      <contour>
        <pt x="274" y="158" on="1"/>
        <pt x="273" y="158" on="0"/>
        <pt x="248" y="114" on="0"/>
        <pt x="206" y="62" on="0"/>
        <pt x="149" y="18" on="0"/>
        <pt x="117" y="18" on="1"/>
        <pt x="73" y="18" on="0"/>
        <pt x="14" y="72" on="0"/>
        <pt x="14" y="119" on="1"/>
        <pt x="12" y="143" on="0"/>
        <pt x="29" y="209" on="0"/>
        <pt x="62" y="280" on="0"/>
        <pt x="109" y="347" on="0"/>
        <pt x="163" y="396" on="0"/>
        <pt x="222" y="420" on="0"/>
        <pt x="252" y="412" on="1"/>
        <pt x="252" y="426" on="1"/>
        <pt x="252" y="452" on="0"/>
        <pt x="249" y="507" on="0"/>
        <pt x="246" y="578" on="0"/>
        <pt x="243" y="671" on="0"/>
        <pt x="243" y="736" on="1"/>
        <pt x="246" y="747" on="0"/>
        <pt x="261" y="754" on="0"/>
        <pt x="270" y="754" on="1"/>
        <pt x="293" y="754" on="0"/>
        <pt x="320" y="724" on="0"/>
        <pt x="323" y="702" on="1"/>
        <pt x="321" y="668" on="0"/>
        <pt x="322" y="597" on="0"/>
        <pt x="328" y="507" on="0"/>
        <pt x="341" y="393" on="0"/>
        <pt x="361" y="238" on="0"/>
        <pt x="389" y="37" on="0"/>
        <pt x="408" y="-95" on="1"/>
        <pt x="408" y="-129" on="1"/>
        <pt x="408" y="-135" on="0"/>
        <pt x="399" y="-141" on="0"/>
        <pt x="386" y="-144" on="0"/>
        <pt x="373" y="-145" on="0"/>
        <pt x="370" y="-145" on="1"/>
        <pt x="355" y="-145" on="0"/>
        <pt x="321" y="-128" on="0"/>
        <pt x="318" y="-113" on="1"/>
        <pt x="281" y="154" on="1"/>
        <pt x="281" y="157" on="0"/>
        <pt x="276" y="158" on="0"/>
      </contour>
      <contour>
        <pt x="98" y="136" on="1"/>
        <pt x="98" y="133" on="0"/>
        <pt x="97" y="118" on="0"/>
        <pt x="98" y="102" on="0"/>
        <pt x="102" y="90" on="0"/>
        <pt x="108" y="90" on="1"/>
        <pt x="133" y="89" on="0"/>
        <pt x="186" y="129" on="0"/>
        <pt x="230" y="188" on="0"/>
        <pt x="259" y="256" on="0"/>
        <pt x="262" y="310" on="0"/>
        <pt x="233" y="339" on="0"/>
        <pt x="198" y="331" on="1"/>
        <pt x="155" y="293" on="0"/>
        <pt x="98" y="195" on="0"/>
      </contour>
    </TTGlyph>
    <TTGlyph name="dagger" xMin="22" yMin="-11" xMax="376" yMax="842">
      <contour>
        <pt x="125" y="458" on="1"/>
        <pt x="111" y="458" on="0"/>
        <pt x="89" y="444" on="0"/>
        <pt x="74" y="444" on="1"/>
        <pt x="72" y="444" on="0"/>
        <pt x="55" y="445" on="0"/>
        <pt x="53" y="445" on="1"/>
        <pt x="49" y="450" on="0"/>
        <pt x="39" y="456" on="0"/>
        <pt x="29" y="463" on="0"/>
        <pt x="22" y="473" on="0"/>
        <pt x="22" y="482" on="1"/>
        <pt x="22" y="497" on="0"/>
        <pt x="46" y="516" on="0"/>
        <pt x="78" y="530" on="0"/>
        <pt x="111" y="542" on="0"/>
        <pt x="121" y="550" on="1"/>
        <pt x="121" y="594" on="1"/>
        <pt x="121" y="631" on="0"/>
        <pt x="117" y="680" on="0"/>
        <pt x="111" y="725" on="0"/>
        <pt x="107" y="774" on="0"/>
        <pt x="107" y="810" on="1"/>
        <pt x="107" y="830" on="0"/>
        <pt x="127" y="842" on="0"/>
        <pt x="144" y="842" on="1"/>
        <pt x="164" y="842" on="0"/>
        <pt x="183" y="819" on="0"/>
        <pt x="191" y="786" on="0"/>
        <pt x="191" y="749" on="0"/>
        <pt x="192" y="736" on="1"/>
        <pt x="192" y="723" on="0"/>
        <pt x="196" y="682" on="0"/>
        <pt x="200" y="638" on="0"/>
        <pt x="204" y="597" on="0"/>
        <pt x="205" y="584" on="1"/>
        <pt x="209" y="585" on="0"/>
        <pt x="232" y="594" on="0"/>
        <pt x="258" y="603" on="0"/>
        <pt x="281" y="611" on="0"/>
        <pt x="286" y="613" on="1"/>
        <pt x="299" y="618" on="0"/>
        <pt x="306" y="622" on="0"/>
        <pt x="311" y="622" on="0"/>
        <pt x="320" y="621" on="0"/>
        <pt x="335" y="621" on="1"/>
        <pt x="355" y="621" on="0"/>
        <pt x="376" y="594" on="0"/>
        <pt x="376" y="576" on="1"/>
        <pt x="376" y="563" on="0"/>
        <pt x="356" y="551" on="0"/>
        <pt x="345" y="546" on="1"/>
        <pt x="225" y="508" on="1"/>
        <pt x="222" y="506" on="0"/>
        <pt x="216" y="503" on="0"/>
        <pt x="213" y="500" on="1"/>
        <pt x="213" y="468" on="1"/>
        <pt x="213" y="433" on="0"/>
        <pt x="216" y="358" on="0"/>
        <pt x="221" y="323" on="1"/>
        <pt x="222" y="313" on="0"/>
        <pt x="227" y="267" on="0"/>
        <pt x="232" y="208" on="0"/>
        <pt x="237" y="143" on="0"/>
        <pt x="241" y="84" on="0"/>
        <pt x="244" y="38" on="0"/>
        <pt x="244" y="28" on="1"/>
        <pt x="244" y="19" on="0"/>
        <pt x="232" y="-11" on="0"/>
        <pt x="219" y="-11" on="1"/>
        <pt x="192" y="-11" on="0"/>
        <pt x="158" y="21" on="0"/>
        <pt x="156" y="48" on="1"/>
        <pt x="154" y="65" on="0"/>
        <pt x="150" y="129" on="0"/>
        <pt x="145" y="207" on="0"/>
        <pt x="140" y="293" on="0"/>
        <pt x="135" y="373" on="0"/>
        <pt x="131" y="439" on="0"/>
        <pt x="129" y="458" on="1"/>
      </contour>
    </TTGlyph>
    <TTGlyph name="daggerdbl" xMin="22" yMin="-11" xMax="392" yMax="842">
      <contour>
        <pt x="39" y="337" on="1"/>
        <pt x="39" y="354" on="0"/>
        <pt x="63" y="369" on="0"/>
        <pt x="77" y="372" on="1"/>
        <pt x="134" y="389" on="1"/>
        <pt x="132" y="411" on="0"/>
        <pt x="130" y="446" on="0"/>
        <pt x="129" y="458" on="1"/>
        <pt x="125" y="458" on="1"/>
        <pt x="111" y="458" on="0"/>
        <pt x="89" y="444" on="0"/>
        <pt x="74" y="444" on="1"/>
        <pt x="72" y="444" on="0"/>
        <pt x="55" y="445" on="0"/>
        <pt x="53" y="445" on="1"/>
        <pt x="49" y="450" on="0"/>
        <pt x="39" y="456" on="0"/>
        <pt x="29" y="463" on="0"/>
        <pt x="22" y="473" on="0"/>
        <pt x="22" y="482" on="1"/>
        <pt x="22" y="497" on="0"/>
        <pt x="46" y="516" on="0"/>
        <pt x="78" y="530" on="0"/>
        <pt x="111" y="542" on="0"/>
        <pt x="121" y="550" on="1"/>
        <pt x="121" y="594" on="1"/>
        <pt x="121" y="631" on="0"/>
        <pt x="117" y="680" on="0"/>
        <pt x="111" y="725" on="0"/>
        <pt x="107" y="774" on="0"/>
        <pt x="107" y="810" on="1"/>
        <pt x="107" y="830" on="0"/>
        <pt x="127" y="842" on="0"/>
        <pt x="144" y="842" on="1"/>
        <pt x="164" y="842" on="0"/>
        <pt x="183" y="819" on="0"/>
        <pt x="191" y="786" on="0"/>
        <pt x="191" y="749" on="0"/>
        <pt x="192" y="736" on="1"/>
        <pt x="192" y="723" on="0"/>
        <pt x="196" y="682" on="0"/>
        <pt x="200" y="638" on="0"/>
        <pt x="204" y="597" on="0"/>
        <pt x="205" y="584" on="1"/>
        <pt x="209" y="585" on="0"/>
        <pt x="232" y="594" on="0"/>
        <pt x="258" y="603" on="0"/>
        <pt x="281" y="611" on="0"/>
        <pt x="286" y="613" on="1"/>
        <pt x="299" y="618" on="0"/>
        <pt x="306" y="622" on="0"/>
        <pt x="311" y="622" on="0"/>
        <pt x="320" y="621" on="0"/>
        <pt x="335" y="621" on="1"/>
        <pt x="355" y="621" on="0"/>
        <pt x="376" y="594" on="0"/>
        <pt x="376" y="576" on="1"/>
        <pt x="376" y="563" on="0"/>
        <pt x="356" y="551" on="0"/>
        <pt x="345" y="546" on="1"/>
        <pt x="225" y="508" on="1"/>
        <pt x="222" y="506" on="0"/>
        <pt x="216" y="503" on="0"/>
        <pt x="213" y="500" on="1"/>
        <pt x="213" y="468" on="1"/>
        <pt x="213" y="454" on="0"/>
        <pt x="213" y="427" on="0"/>
        <pt x="214" y="413" on="1"/>
        <pt x="345" y="452" on="1"/>
        <pt x="362" y="452" on="0"/>
        <pt x="392" y="440" on="0"/>
        <pt x="392" y="420" on="1"/>
        <pt x="392" y="415" on="0"/>
        <pt x="379" y="403" on="0"/>
        <pt x="363" y="393" on="0"/>
        <pt x="345" y="386" on="0"/>
        <pt x="341" y="388" on="1"/>
        <pt x="218" y="350" on="1"/>
        <pt x="221" y="323" on="1"/>
        <pt x="222" y="313" on="0"/>
        <pt x="227" y="267" on="0"/>
        <pt x="232" y="208" on="0"/>
        <pt x="237" y="143" on="0"/>
        <pt x="241" y="84" on="0"/>
        <pt x="244" y="38" on="0"/>
        <pt x="244" y="28" on="1"/>
        <pt x="244" y="19" on="0"/>
        <pt x="232" y="-11" on="0"/>
        <pt x="219" y="-11" on="1"/>
        <pt x="192" y="-11" on="0"/>
        <pt x="158" y="21" on="0"/>
        <pt x="156" y="48" on="1"/>
        <pt x="154" y="65" on="0"/>
        <pt x="150" y="126" on="0"/>
        <pt x="145" y="202" on="0"/>
        <pt x="140" y="286" on="0"/>
        <pt x="138" y="325" on="1"/>
        <pt x="77" y="306" on="1"/>
        <pt x="64" y="306" on="0"/>
        <pt x="39" y="323" on="0"/>
      </contour>
    </TTGlyph>
    <TTGlyph name="degree" xMin="28" yMin="436" xMax="230" yMax="613">
      <contour>
        <pt x="122" y="609" on="1"/>
        <pt x="130" y="609" on="0"/>
        <pt x="143" y="613" on="0"/>
        <pt x="152" y="613" on="1"/>
        <pt x="173" y="613" on="0"/>
        <pt x="203" y="595" on="0"/>
        <pt x="222" y="570" on="0"/>
        <pt x="230" y="541" on="0"/>
        <pt x="230" y="530" on="1"/>
        <pt x="230" y="517" on="0"/>
        <pt x="209" y="484" on="0"/>
        <pt x="176" y="456" on="0"/>
        <pt x="133" y="436" on="0"/>
        <pt x="111" y="436" on="1"/>
        <pt x="88" y="437" on="0"/>
        <pt x="42" y="460" on="0"/>
        <pt x="28" y="503" on="0"/>
        <pt x="63" y="567" on="0"/>
        <pt x="121" y="609" on="1"/>
      </contour>
      <contour>
        <pt x="172" y="532" on="1"/>
        <pt x="171" y="557" on="0"/>
        <pt x="146" y="570" on="0"/>
        <pt x="116" y="558" on="0"/>
        <pt x="92" y="529" on="0"/>
        <pt x="91" y="512" on="1"/>
        <pt x="96" y="497" on="0"/>
        <pt x="123" y="490" on="0"/>
        <pt x="151" y="499" on="0"/>
        <pt x="173" y="520" on="0"/>
      </contour>
    </TTGlyph>
</ttFont>
